<svg width="314" height="205" viewBox="0 0 314 205" fill="none" xmlns="http://www.w3.org/2000/svg">
<rect x="8.84375" y="192.499" width="177.432" height="300" rx="5.04543" transform="rotate(-90 8.84375 192.499)" fill="#073B4C"/>
<rect x="312.698" y="25.8169" width="178" height="298" rx="4.04543" transform="rotate(94.6302 312.698 25.8169)" fill="#FFD166" stroke="#073B4C" stroke-width="2"/>
<path d="M240.257 60.8625L240.206 61.8612L240.209 61.8614L240.257 60.8625ZM243.086 63.6939H242.086V63.7197L242.087 63.7454L243.086 63.6939ZM243.086 64.0033L242.087 63.9517L242.086 63.9775L242.086 64.0033L243.086 64.0033ZM243.086 78.953L242.086 78.953L242.086 80.0093L243.141 79.9515L243.086 78.953ZM238.791 113.18L239.091 112.226L238.42 112.015L237.994 112.576L238.791 113.18ZM231.713 122.513L230.916 121.909L230.91 121.918L231.713 122.513ZM229.318 123.721L229.316 122.721L229.318 123.721ZM226.919 122.52L227.72 121.922L227.717 121.918L226.919 122.52ZM219.86 113.157L220.658 112.555L220.231 111.989L219.556 112.205L219.86 113.157ZM217.986 79.2691L217.789 80.2495L218.986 80.4896V79.2691H217.986ZM217.999 67.3563L218.993 67.4626L219.004 67.3644L218.995 67.266L217.999 67.3563ZM219.215 64.6689L218.626 63.8606L218.626 63.8606L219.215 64.6689ZM223.389 65.3248L224.197 64.736L224.197 64.736L223.389 65.3248ZM229.311 73.4559L228.503 74.0446L229.307 75.148L230.117 74.049L229.311 73.4559ZM237.32 62.5863L238.125 63.1795L238.192 63.0879L238.238 62.9835L237.32 62.5863ZM240.066 60.8589L240.075 61.8589L240.079 61.8588L240.066 60.8589ZM223.952 81.6781L222.956 81.5938L222.905 82.1953L223.413 82.5205L223.952 81.6781ZM229.29 87.0117L228.448 87.5512L229.29 88.8653L230.132 87.5512L229.29 87.0117ZM237.111 80.3579L237.508 81.2758L238.111 81.015V80.3579H237.111ZM237.111 72.9426H238.111V69.8994L236.306 72.3494L237.111 72.9426ZM231.703 80.283L232.508 80.8762L232.508 80.8762L231.703 80.283ZM229.29 81.4984L229.287 82.4984L229.287 82.4984L229.29 81.4984ZM226.883 80.2699L227.691 79.6811L227.691 79.6811L226.883 80.2699ZM223.96 76.2576L224.769 75.6688L222.96 73.1862V76.2576H223.96ZM229.306 115.728L228.509 116.332L229.302 117.378L230.1 116.336L229.306 115.728ZM225.224 110.339L224.612 109.548L223.828 110.153L224.426 110.943L225.224 110.339ZM233.406 110.378L234.2 110.986L234.808 110.192L234.014 109.584L233.406 110.378ZM229.29 105.901L230.132 105.361L229.29 104.047L228.448 105.361L229.29 105.901ZM244.086 63.5923C244.086 61.5189 242.332 59.9606 240.305 59.8637L240.209 61.8614C241.334 61.9152 242.086 62.7436 242.086 63.5923H244.086ZM244.086 63.6939V63.5923H242.086V63.6939H244.086ZM244.084 64.055C244.092 63.9172 244.092 63.7795 244.084 63.6423L242.087 63.7454C242.091 63.8141 242.091 63.8829 242.087 63.9517L244.084 64.055ZM244.086 78.953L244.086 64.0033L242.086 64.0033L242.086 78.953L244.086 78.953ZM243.141 79.9515C243.445 79.9348 243.752 79.9264 244.06 79.9264V77.9264C243.715 77.9264 243.372 77.9358 243.031 77.9545L243.141 79.9515ZM244.06 79.9264C253.19 79.9264 260.59 87.327 260.59 96.4561H262.59C262.59 86.2224 254.294 77.9264 244.06 77.9264V79.9264ZM260.59 96.4561C260.59 105.585 253.19 112.986 244.06 112.986V114.986C254.294 114.986 262.59 106.69 262.59 96.4561H260.59ZM244.06 112.986C242.327 112.986 240.658 112.72 239.091 112.226L238.491 114.134C240.25 114.688 242.121 114.986 244.06 114.986V112.986ZM232.51 123.117L239.588 113.784L237.994 112.576L230.917 121.909L232.51 123.117ZM229.319 124.721C230.58 124.72 231.766 124.122 232.517 123.109L230.91 121.918C230.536 122.422 229.945 122.72 229.316 122.721L229.319 124.721ZM226.117 123.118C226.871 124.129 228.058 124.723 229.319 124.721L229.316 122.721C228.688 122.722 228.096 122.426 227.72 121.922L226.117 123.118ZM219.062 113.759L226.12 123.122L227.717 121.918L220.658 112.555L219.062 113.759ZM219.556 112.205C217.969 112.712 216.277 112.986 214.519 112.986V114.986C216.486 114.986 218.383 114.679 220.164 114.11L219.556 112.205ZM214.519 112.986C205.39 112.986 197.99 105.585 197.99 96.4562H195.99C195.99 106.69 204.286 114.986 214.519 114.986V112.986ZM197.99 96.4562C197.99 87.327 205.39 79.9264 214.519 79.9264V77.9264C204.286 77.9264 195.99 86.2225 195.99 96.4562H197.99ZM214.519 79.9264C215.64 79.9264 216.733 80.0377 217.789 80.2495L218.182 78.2886C216.997 78.0509 215.772 77.9264 214.519 77.9264V79.9264ZM216.986 67.6033V79.2691H218.986V67.6033H216.986ZM217.004 67.2499C216.992 67.3665 216.986 67.4844 216.986 67.6033H218.986C218.986 67.5556 218.988 67.5087 218.993 67.4626L217.004 67.2499ZM218.626 63.8606C217.449 64.718 216.881 66.0988 217.003 67.4466L218.995 67.266C218.933 66.5897 219.219 65.9035 219.804 65.4772L218.626 63.8606ZM224.197 64.736C222.901 62.956 220.406 62.5641 218.626 63.8606L219.804 65.4772C220.691 64.831 221.934 65.0264 222.581 65.9136L224.197 64.736ZM230.12 72.8671L224.197 64.736L222.581 65.9136L228.503 74.0446L230.12 72.8671ZM236.515 61.9932L228.506 72.8627L230.117 74.049L238.125 63.1795L236.515 61.9932ZM240.056 59.8589C238.44 59.8749 237.003 60.7995 236.402 62.1892L238.238 62.9835C238.504 62.3669 239.196 61.8675 240.075 61.8588L240.056 59.8589ZM240.308 59.8638C240.223 59.8595 240.137 59.8579 240.052 59.859L240.079 61.8588C240.121 61.8583 240.164 61.8591 240.206 61.8612L240.308 59.8638ZM223.413 82.5205C225.433 83.8127 227.154 85.5322 228.448 87.5512L230.132 86.4722C228.682 84.2098 226.755 82.2836 224.491 80.8357L223.413 82.5205ZM230.132 87.5512C231.901 84.7898 234.469 82.5894 237.508 81.2758L236.714 79.44C233.306 80.9131 230.43 83.3788 228.448 86.4722L230.132 87.5512ZM236.111 72.9426V80.3579H238.111V72.9426H236.111ZM232.508 80.8762L237.916 73.5357L236.306 72.3494L230.898 79.6899L232.508 80.8762ZM229.287 82.4984C230.558 82.5019 231.754 81.8993 232.508 80.8762L230.898 79.6899C230.522 80.1998 229.926 80.5001 229.292 80.4984L229.287 82.4984ZM226.075 80.8586C226.823 81.8859 228.016 82.4949 229.287 82.4984L229.292 80.4984C228.659 80.4967 228.064 80.1931 227.691 79.6811L226.075 80.8586ZM223.152 76.8463L226.075 80.8586L227.691 79.6811L224.769 75.6688L223.152 76.8463ZM224.96 81.4819V76.2576H222.96V81.4819H224.96ZM224.949 81.7625C224.956 81.6697 224.96 81.5761 224.96 81.4819H222.96C222.96 81.5197 222.959 81.557 222.956 81.5938L224.949 81.7625ZM230.104 115.124L226.021 109.735L224.426 110.943L228.509 116.332L230.104 115.124ZM232.612 109.769L228.513 115.119L230.1 116.336L234.2 110.986L232.612 109.769ZM234.014 109.584C232.488 108.414 231.172 106.984 230.132 105.361L228.448 106.44C229.613 108.259 231.088 109.861 232.798 111.171L234.014 109.584ZM228.448 105.361C227.418 106.968 226.119 108.385 224.612 109.548L225.835 111.131C227.522 109.828 228.978 108.241 230.132 106.44L228.448 105.361ZM254.615 96.4561C254.615 102.285 249.89 107.011 244.06 107.011V109.011C250.994 109.011 256.615 103.39 256.615 96.4561H254.615ZM244.06 85.9012C249.89 85.9012 254.615 90.6268 254.615 96.4561H256.615C256.615 89.5222 250.994 83.9012 244.06 83.9012V85.9012ZM233.506 96.4561C233.506 90.6268 238.231 85.9012 244.06 85.9012V83.9012C237.127 83.9012 231.506 89.5222 231.506 96.4561H233.506ZM244.06 107.011C238.231 107.011 233.506 102.285 233.506 96.4561H231.506C231.506 103.39 237.127 109.011 244.06 109.011V107.011ZM225.074 96.4562C225.074 102.285 220.349 107.011 214.519 107.011V109.011C221.453 109.011 227.074 103.39 227.074 96.4562H225.074ZM214.519 85.9012C220.349 85.9012 225.074 90.6268 225.074 96.4562H227.074C227.074 89.5223 221.453 83.9012 214.519 83.9012V85.9012ZM203.964 96.4562C203.964 90.6268 208.69 85.9012 214.519 85.9012V83.9012C207.585 83.9012 201.964 89.5223 201.964 96.4562H203.964ZM214.519 107.011C208.69 107.011 203.964 102.285 203.964 96.4562H201.964C201.964 103.39 207.585 109.011 214.519 109.011V107.011Z" fill="#073B4C"/>
<path fill-rule="evenodd" clip-rule="evenodd" d="M216.164 104.404C213.698 103.671 212.25 101.103 212.92 98.6033C213.601 96.0613 216.214 94.5528 218.756 95.2339C220.371 95.6667 221.569 96.8791 222.053 98.3578C222.679 94.5042 220.419 90.6828 216.497 89.6321C212.364 88.5245 208.246 90.9021 207.138 95.0357C206.03 99.1693 208.408 103.287 212.542 104.395C213.87 104.751 214.983 104.733 216.174 104.419C216.171 104.414 216.167 104.409 216.164 104.404Z" fill="#073B4C"/>
<path fill-rule="evenodd" clip-rule="evenodd" d="M246.149 104.404C243.683 103.671 242.236 101.103 242.905 98.6033C243.587 96.0614 246.199 94.5528 248.741 95.234C250.356 95.6667 251.554 96.8792 252.038 98.3578C252.664 94.5042 250.404 90.6828 246.483 89.6321C242.349 88.5245 238.231 90.9021 237.123 95.0357C236.016 99.1693 238.393 103.287 242.527 104.395C243.856 104.751 244.968 104.733 246.16 104.419C246.156 104.414 246.153 104.409 246.149 104.404Z" fill="#073B4C"/>
<path d="M205.516 80.9826V75.0347H254.02V80.9826H205.516Z" fill="#FFD166" stroke="#073B4C" stroke-width="2" stroke-linecap="round" stroke-linejoin="round"/>
<path d="M261.326 52.5474L254.063 75.2605H205.348L198.017 52.5688C197.641 51.4063 198.093 50.1257 199.118 49.4492C217.633 37.2314 241.768 37.1943 260.243 49.4622C261.253 50.1329 261.695 51.3925 261.326 52.5474Z" fill="#FFD166" stroke="#073B4C" stroke-width="2" stroke-linecap="round" stroke-linejoin="round"/>
<line x1="229.348" y1="52.6665" x2="229.348" y2="65.8282" stroke="#073B4C" stroke-width="4" stroke-linecap="round"/>
<line x1="235.871" y1="59.1447" x2="222.709" y2="59.1447" stroke="#073B4C" stroke-width="4" stroke-linecap="round"/>
</svg>
