<svg width="611" height="417" viewBox="0 0 611 417" fill="none" xmlns="http://www.w3.org/2000/svg">
<rect x="13" y="331" width="306" height="560" rx="10" transform="rotate(-90 13 331)" fill="#073B4C"/>
<rect x="577.641" y="3.11109" width="363.352" height="577.244" rx="8" transform="rotate(85.0751 577.641 3.11109)" fill="#FFD166" stroke="#073B4C" stroke-width="4"/>
<path d="M497.119 125.826H495.619V125.862L495.621 125.898L497.119 125.826ZM497.119 126.397L495.621 126.324L495.619 126.36V126.397H497.119ZM497.119 156.047H495.619V157.631L497.201 157.545L497.119 156.047ZM488.607 223.885L489.058 222.454L488.05 222.137L487.412 222.978L488.607 223.885ZM474.579 242.383L473.384 241.476L473.379 241.483L473.375 241.489L474.579 242.383ZM469.832 244.777L469.834 246.277H469.834L469.832 244.777ZM465.077 242.396L466.279 241.499L466.275 241.493L465.077 242.396ZM451.087 223.84L452.284 222.937L451.644 222.087L450.63 222.411L451.087 223.84ZM447.371 156.674L447.076 158.144L448.871 158.504V156.674H447.371ZM447.396 133.066L448.888 133.224L448.903 133.077L448.89 132.93L447.396 133.066ZM449.807 127.737L448.924 126.525V126.525L449.807 127.737ZM458.079 129.037L456.867 129.92L458.079 129.037ZM469.818 145.153L468.605 146.036L469.811 147.691L471.025 146.042L469.818 145.153ZM485.691 123.607L486.899 124.497L487 124.36L487.068 124.203L485.691 123.607ZM459.196 161.448L457.701 161.322L457.625 162.224L458.388 162.712L459.196 161.448ZM469.776 172.02L468.513 172.829L469.776 174.8L471.039 172.829L469.776 172.02ZM485.277 158.831L485.873 160.208L486.777 159.817V158.831H485.277ZM485.277 144.134H486.777V139.569L484.07 143.244L485.277 144.134ZM474.557 158.684L475.765 159.574L475.765 159.574L474.557 158.684ZM469.774 161.093L469.778 159.593L469.774 161.093ZM465.004 158.658L466.217 157.775L465.004 158.658ZM459.213 150.706L460.425 149.823L457.713 146.099V150.706H459.213ZM469.809 228.934L468.614 229.84L469.802 231.409L471 229.846L469.809 228.934ZM461.717 218.254L460.8 217.067L459.624 217.975L460.521 219.16L461.717 218.254ZM477.934 218.33L479.125 219.242L480.037 218.052L478.847 217.139L477.934 218.33ZM469.776 209.457L471.039 208.647L469.776 206.676L468.513 208.648L469.776 209.457ZM498.619 125.602C498.619 121.659 495.169 118.684 491.198 118.684V121.684C493.768 121.684 495.619 123.561 495.619 125.602H498.619ZM498.619 125.826V125.602H495.619V125.826H498.619ZM498.618 126.469C498.629 126.23 498.629 125.991 498.618 125.754L495.621 125.898C495.628 126.04 495.628 126.182 495.621 126.324L498.618 126.469ZM498.619 156.047V126.397H495.619V156.047H498.619ZM497.201 157.545C497.814 157.511 498.43 157.494 499.051 157.494V154.494C498.376 154.494 497.704 154.513 497.037 154.549L497.201 157.545ZM499.051 157.494C517.411 157.494 532.295 172.378 532.295 190.738H535.295C535.295 170.721 519.068 154.494 499.051 154.494V157.494ZM532.295 190.738C532.295 209.098 517.411 223.982 499.051 223.982V226.982C519.068 226.982 535.295 210.755 535.295 190.738H532.295ZM499.051 223.982C495.567 223.982 492.21 223.446 489.058 222.454L488.157 225.315C491.597 226.398 495.258 226.982 499.051 226.982V223.982ZM475.775 243.289L489.802 224.791L487.412 222.978L473.384 241.476L475.775 243.289ZM469.834 246.277C472.18 246.274 474.387 245.161 475.784 243.276L473.375 241.489C472.542 242.612 471.227 243.275 469.829 243.277L469.834 246.277ZM463.875 243.293C465.277 245.174 467.487 246.281 469.834 246.277L469.829 243.277C468.432 243.279 467.115 242.62 466.279 241.499L463.875 243.293ZM449.889 224.743L463.879 243.299L466.275 241.493L452.284 222.937L449.889 224.743ZM450.63 222.411C447.438 223.431 444.035 223.982 440.501 223.982V226.982C444.349 226.982 448.06 226.382 451.543 225.269L450.63 222.411ZM440.501 223.982C422.141 223.982 407.257 209.098 407.257 190.738H404.257C404.257 210.755 420.484 226.982 440.501 226.982V223.982ZM407.257 190.738C407.257 172.378 422.141 157.495 440.501 157.495V154.495C420.484 154.495 404.257 170.722 404.257 190.738H407.257ZM440.501 157.495C442.753 157.495 444.951 157.718 447.076 158.144L447.665 155.203C445.348 154.738 442.952 154.495 440.501 154.495V157.495ZM445.871 133.552V156.674H448.871V133.552H445.871ZM445.905 132.908C445.882 133.12 445.871 133.335 445.871 133.552H448.871C448.871 133.441 448.876 133.332 448.888 133.224L445.905 132.908ZM448.924 126.525C446.733 128.121 445.674 130.691 445.902 133.202L448.89 132.93C448.753 131.427 449.387 129.899 450.69 128.949L448.924 126.525ZM459.292 128.154C456.879 124.841 452.237 124.111 448.924 126.525L450.69 128.949C452.664 127.512 455.429 127.946 456.867 129.92L459.292 128.154ZM471.03 144.269L459.292 128.154L456.867 129.92L468.605 146.036L471.03 144.269ZM484.484 122.718L468.61 144.263L471.025 146.042L486.899 124.497L484.484 122.718ZM491.198 118.684C488.14 118.684 485.436 120.422 484.315 123.011L487.068 124.203C487.683 122.783 489.256 121.684 491.198 121.684V118.684ZM458.388 162.712C462.451 165.31 465.911 168.768 468.513 172.829L471.039 171.21C468.203 166.785 464.432 163.017 460.004 160.185L458.388 162.712ZM471.039 172.829C474.597 167.276 479.761 162.85 485.873 160.208L484.682 157.455C478.017 160.336 472.39 165.159 468.513 171.21L471.039 172.829ZM483.777 144.134V158.831H486.777V144.134H483.777ZM475.765 159.574L486.485 145.024L484.07 143.244L473.35 157.794L475.765 159.574ZM469.77 162.593C472.135 162.599 474.362 161.478 475.765 159.574L473.35 157.794C472.514 158.929 471.187 159.597 469.778 159.593L469.77 162.593ZM463.792 159.541C465.184 161.453 467.405 162.586 469.77 162.593L469.778 159.593C468.369 159.589 467.046 158.914 466.217 157.775L463.792 159.541ZM458 151.59L463.792 159.541L466.217 157.775L460.425 149.823L458 151.59ZM460.713 161.059V150.706H457.713V161.059H460.713ZM460.691 161.575C460.705 161.404 460.713 161.232 460.713 161.059H457.713C457.713 161.148 457.709 161.235 457.701 161.322L460.691 161.575ZM471.005 228.028L462.912 217.348L460.521 219.16L468.614 229.84L471.005 228.028ZM476.744 217.418L468.618 228.021L471 229.846L479.125 219.242L476.744 217.418ZM478.847 217.139C475.778 214.787 473.131 211.912 471.039 208.647L468.513 210.266C470.793 213.824 473.678 216.957 477.022 219.521L478.847 217.139ZM468.513 208.648C466.443 211.878 463.829 214.728 460.8 217.067L462.634 219.441C465.934 216.893 468.783 213.788 471.039 210.266L468.513 208.648ZM520.453 190.738C520.453 202.558 510.871 212.14 499.051 212.14V215.14C512.528 215.14 523.453 204.215 523.453 190.738H520.453ZM499.051 169.336C510.871 169.336 520.453 178.918 520.453 190.738H523.453C523.453 177.261 512.528 166.336 499.051 166.336V169.336ZM477.65 190.738C477.65 178.918 487.232 169.336 499.051 169.336V166.336C485.575 166.336 474.65 177.261 474.65 190.738H477.65ZM499.051 212.14C487.232 212.14 477.65 202.558 477.65 190.738H474.65C474.65 204.215 485.575 215.14 499.051 215.14V212.14ZM461.902 190.738C461.902 202.558 452.321 212.14 440.501 212.14V215.14C453.977 215.14 464.902 204.215 464.902 190.738H461.902ZM440.501 169.337C452.321 169.337 461.902 178.919 461.902 190.738H464.902C464.902 177.262 453.977 166.337 440.501 166.337V169.337ZM419.099 190.738C419.099 178.919 428.681 169.337 440.501 169.337V166.337C427.024 166.337 416.099 177.262 416.099 190.738H419.099ZM440.501 212.14C428.681 212.14 419.099 202.558 419.099 190.738H416.099C416.099 204.215 427.024 215.14 440.501 215.14V212.14Z" fill="#073B4C"/>
<path fill-rule="evenodd" clip-rule="evenodd" d="M443.759 206.49C438.871 205.038 436.002 199.948 437.329 194.993C438.679 189.955 443.858 186.965 448.896 188.315C452.097 189.173 454.472 191.576 455.431 194.507C456.672 186.869 452.192 179.295 444.42 177.212C436.227 175.017 428.065 179.729 425.87 187.922C423.675 196.115 428.387 204.277 436.58 206.472C439.213 207.178 441.418 207.141 443.78 206.52C443.773 206.51 443.766 206.5 443.759 206.49Z" fill="#073B4C"/>
<path fill-rule="evenodd" clip-rule="evenodd" d="M503.19 206.49C498.303 205.038 495.433 199.948 496.761 194.993C498.111 189.955 503.289 186.965 508.328 188.315C511.529 189.173 513.903 191.576 514.862 194.507C516.103 186.869 511.624 179.295 503.851 177.212C495.659 175.017 487.497 179.729 485.301 187.922C483.106 196.115 487.818 204.277 496.011 206.472C498.645 207.178 500.85 207.141 503.211 206.52C503.204 206.51 503.197 206.5 503.19 206.49Z" fill="#073B4C"/>
<path d="M431.191 127.824C431.191 127.271 431.639 126.824 432.191 126.824H507.361C507.914 126.824 508.361 127.271 508.361 127.824V154.374C508.361 154.768 508.129 155.126 507.769 155.287L470.184 172.075C469.924 172.191 469.628 172.191 469.368 172.075L431.783 155.287C431.423 155.126 431.191 154.768 431.191 154.374V127.824Z" fill="#FFD166" stroke="#073B4C" stroke-width="3" stroke-linecap="round" stroke-linejoin="round"/>
<path d="M400.301 124.505L469.776 97.6816L539.251 124.505L469.776 151.329L400.301 124.505Z" fill="#FFD166" stroke="#073B4C"/>
<path d="M469.416 79.4647C469.648 79.3753 469.904 79.3753 470.136 79.4647L567.164 116.926C568.018 117.256 568.018 118.463 567.164 118.792L470.136 156.254C469.904 156.343 469.648 156.343 469.416 156.254L372.387 118.792C371.534 118.463 371.534 117.256 372.387 116.926L469.416 79.4647Z" fill="#FFD166" stroke="#073B4C" stroke-width="3" stroke-linejoin="round"/>
<rect x="545.012" y="164.203" width="13.2834" height="44.6921" rx="6.64169" stroke="#073B4C" stroke-width="3"/>
<line x1="551.781" y1="165.008" x2="551.781" y2="124.41" stroke="#073B4C" stroke-width="3"/>
</svg>
