<svg width="612" height="417" viewBox="0 0 612 417" fill="none" xmlns="http://www.w3.org/2000/svg">
<rect x="15.752" y="392.237" width="362.562" height="581.244" rx="10" transform="rotate(-90 15.752 392.237)" fill="#073B4C"/>
<rect x="578.064" y="2.42085" width="363.352" height="577.244" rx="8" transform="rotate(85 578.064 2.42085)" fill="#FFD166" stroke="#073B4C" stroke-width="4"/>
<path d="M474.097 169.055V170.555V169.055ZM480.018 174.691H478.518V174.728L478.52 174.764L480.018 174.691ZM480.018 175.273L478.52 175.199L478.518 175.236V175.273H480.018ZM480.018 204.918H478.518V206.503L480.1 206.416L480.018 204.918ZM471.506 272.756L471.956 271.325L470.949 271.008L470.311 271.849L471.506 272.756ZM457.478 291.254L456.283 290.348L456.278 290.354L456.273 290.361L457.478 291.254ZM452.73 293.649L452.732 295.149H452.732L452.73 293.649ZM447.976 291.268L449.178 290.371L449.173 290.365L447.976 291.268ZM433.985 272.711L435.183 271.808L434.542 270.958L433.528 271.282L433.985 272.711ZM430.269 205.545L429.974 207.015L431.769 207.375V205.545H430.269ZM430.295 181.936L431.787 182.094L431.802 181.947L431.789 181.8L430.295 181.936ZM432.706 176.608L433.589 177.82L433.589 177.82L432.706 176.608ZM440.978 177.908L442.191 177.025V177.025L440.978 177.908ZM452.717 194.023L451.504 194.907L452.71 196.562L453.924 194.913L452.717 194.023ZM468.59 172.479L469.798 173.368L469.899 173.231L469.967 173.075L468.59 172.479ZM442.095 210.319L440.6 210.193L440.524 211.095L441.287 211.583L442.095 210.319ZM452.675 220.891L451.412 221.7L452.675 223.671L453.938 221.7L452.675 220.891ZM468.176 207.703L468.771 209.08L469.676 208.688V207.703H468.176ZM468.176 193.005H469.676V188.44L466.968 192.115L468.176 193.005ZM457.456 207.555L458.664 208.445V208.445L457.456 207.555ZM452.673 209.964L452.669 211.464H452.669L452.673 209.964ZM447.903 207.529L449.116 206.646L447.903 207.529ZM442.111 199.577L443.324 198.694L440.611 194.97V199.577H442.111ZM452.708 277.805L451.512 278.711L452.701 280.28L453.898 278.717L452.708 277.805ZM444.615 267.125L443.699 265.938L442.522 266.847L443.42 268.031L444.615 267.125ZM460.833 267.201L462.024 268.113L462.936 266.923L461.745 266.011L460.833 267.201ZM452.675 258.328L453.938 257.518L452.675 255.547L451.412 257.518L452.675 258.328ZM481.518 174.473C481.518 170.53 478.067 167.555 474.097 167.555V170.555C476.667 170.555 478.518 172.432 478.518 174.473H481.518ZM481.518 174.691V174.473H478.518V174.691H481.518ZM481.516 175.346C481.528 175.103 481.528 174.86 481.516 174.618L478.52 174.764C478.527 174.909 478.527 175.054 478.52 175.199L481.516 175.346ZM481.518 204.918V175.273H478.518V204.918H481.518ZM480.1 206.416C480.712 206.382 481.329 206.365 481.95 206.365V203.365C481.274 203.365 480.603 203.384 479.936 203.42L480.1 206.416ZM481.95 206.365C500.31 206.365 515.194 221.249 515.194 239.609H518.194C518.194 219.592 501.967 203.365 481.95 203.365V206.365ZM515.194 239.609C515.194 257.969 500.31 272.853 481.95 272.853V275.853C501.967 275.853 518.194 259.626 518.194 239.609H515.194ZM481.95 272.853C478.466 272.853 475.109 272.317 471.956 271.325L471.056 274.187C474.496 275.27 478.156 275.853 481.95 275.853V272.853ZM458.673 292.16L472.701 273.662L470.311 271.849L456.283 290.348L458.673 292.16ZM452.732 295.149C455.079 295.145 457.285 294.032 458.683 292.147L456.273 290.361C455.441 291.484 454.126 292.147 452.728 292.149L452.732 295.149ZM446.773 292.164C448.176 294.045 450.386 295.152 452.732 295.149L452.728 292.149C451.33 292.151 450.014 291.491 449.178 290.371L446.773 292.164ZM432.787 273.614L446.778 292.171L449.173 290.365L435.183 271.808L432.787 273.614ZM433.528 271.282C430.337 272.302 426.934 272.853 423.399 272.853V275.853C427.247 275.853 430.958 275.253 434.442 274.14L433.528 271.282ZM423.399 272.853C405.039 272.853 390.156 257.969 390.156 239.609H387.156C387.156 259.626 403.382 275.853 423.399 275.853V272.853ZM390.156 239.609C390.156 221.249 405.039 206.366 423.399 206.366V203.366C403.382 203.366 387.156 219.592 387.156 239.609H390.156ZM423.399 206.366C425.652 206.366 427.85 206.589 429.974 207.015L430.564 204.074C428.247 203.609 425.851 203.366 423.399 203.366V206.366ZM428.769 182.423V205.545H431.769V182.423H428.769ZM428.803 181.777C428.781 181.99 428.769 182.205 428.769 182.423H431.769C431.769 182.312 431.775 182.202 431.787 182.094L428.803 181.777ZM431.823 175.395C429.632 176.991 428.573 179.561 428.801 182.071L431.789 181.8C431.652 180.297 432.286 178.769 433.589 177.82L431.823 175.395ZM442.191 177.025C439.777 173.712 435.136 172.982 431.823 175.395L433.589 177.82C435.563 176.383 438.328 176.817 439.766 178.791L442.191 177.025ZM453.929 193.14L442.191 177.025L439.766 178.791L451.504 194.907L453.929 193.14ZM467.383 171.589L451.509 193.134L453.924 194.913L469.798 173.368L467.383 171.589ZM474.097 167.555C471.039 167.555 468.335 169.293 467.214 171.883L469.967 173.075C470.582 171.654 472.155 170.555 474.097 170.555V167.555ZM441.287 211.583C445.349 214.181 448.81 217.639 451.412 221.7L453.938 220.082C451.102 215.656 447.331 211.888 442.903 209.056L441.287 211.583ZM453.938 221.7C457.496 216.147 462.66 211.722 468.771 209.08L467.581 206.326C460.916 209.207 455.289 214.03 451.412 220.082L453.938 221.7ZM466.676 193.005V207.703H469.676V193.005H466.676ZM458.664 208.445L469.384 193.895L466.968 192.115L456.249 206.665L458.664 208.445ZM452.669 211.464C455.034 211.47 457.261 210.349 458.664 208.445L456.249 206.665C455.413 207.799 454.086 208.468 452.677 208.464L452.669 211.464ZM446.691 208.412C448.083 210.324 450.304 211.457 452.669 211.464L452.677 208.464C451.268 208.46 449.945 207.785 449.116 206.646L446.691 208.412ZM440.899 200.46L446.691 208.412L449.116 206.646L443.324 198.694L440.899 200.46ZM443.611 209.93V199.577H440.611V209.93H443.611ZM443.589 210.446C443.604 210.275 443.611 210.103 443.611 209.93H440.611C440.611 210.019 440.607 210.106 440.6 210.193L443.589 210.446ZM453.903 276.899L445.811 266.22L443.42 268.031L451.512 278.711L453.903 276.899ZM459.642 266.289L451.517 276.893L453.898 278.717L462.024 268.113L459.642 266.289ZM461.745 266.011C458.677 263.658 456.029 260.783 453.938 257.518L451.412 259.137C453.692 262.695 456.576 265.828 459.92 268.392L461.745 266.011ZM451.412 257.518C449.342 260.75 446.727 263.599 443.699 265.938L445.532 268.313C448.833 265.764 451.681 262.659 453.938 259.137L451.412 257.518ZM503.352 239.609C503.352 251.429 493.77 261.011 481.95 261.011V264.011C495.427 264.011 506.352 253.086 506.352 239.609H503.352ZM481.95 218.207C493.77 218.207 503.352 227.789 503.352 239.609H506.352C506.352 226.132 495.427 215.207 481.95 215.207V218.207ZM460.548 239.609C460.548 227.789 470.13 218.207 481.95 218.207V215.207C468.473 215.207 457.548 226.132 457.548 239.609H460.548ZM481.95 261.011C470.13 261.011 460.548 251.429 460.548 239.609H457.548C457.548 253.086 468.473 264.011 481.95 264.011V261.011ZM444.801 239.609C444.801 251.429 435.219 261.011 423.399 261.011V264.011C436.876 264.011 447.801 253.086 447.801 239.609H444.801ZM423.399 218.208C435.219 218.208 444.801 227.79 444.801 239.609H447.801C447.801 226.133 436.876 215.208 423.399 215.208V218.208ZM401.998 239.609C401.998 227.79 411.579 218.208 423.399 218.208V215.208C409.923 215.208 398.998 226.133 398.998 239.609H401.998ZM423.399 261.011C411.579 261.011 401.998 251.429 401.998 239.609H398.998C398.998 253.086 409.923 264.011 423.399 264.011V261.011Z" fill="#073B4C"/>
<path fill-rule="evenodd" clip-rule="evenodd" d="M426.658 255.362C421.771 253.91 418.901 248.82 420.229 243.865C421.579 238.827 426.757 235.837 431.795 237.187C434.997 238.045 437.371 240.448 438.33 243.379C439.571 235.741 435.092 228.167 427.319 226.084C419.127 223.889 410.965 228.601 408.769 236.794C406.574 244.987 411.286 253.149 419.479 255.344C422.113 256.05 424.318 256.013 426.679 255.392C426.672 255.382 426.665 255.372 426.658 255.362Z" fill="#073B4C"/>
<path fill-rule="evenodd" clip-rule="evenodd" d="M486.09 255.362C481.202 253.91 478.332 248.82 479.66 243.865C481.01 238.827 486.189 235.837 491.227 237.187C494.428 238.045 496.802 240.448 497.762 243.379C499.003 235.741 494.523 228.167 486.751 226.084C478.558 223.889 470.396 228.601 468.201 236.794C466.005 244.987 470.718 253.149 478.911 255.344C481.544 256.05 483.749 256.013 486.111 255.392C486.104 255.382 486.097 255.372 486.09 255.362Z" fill="#073B4C"/>
<path d="M405.072 209.423V196.67H502.171V209.423H405.072Z" fill="#FFD166" stroke="#073B4C" stroke-width="3" stroke-linecap="round" stroke-linejoin="round"/>
<path d="M390.233 152.773C389.421 150.261 390.398 147.499 392.609 146.039C429.465 121.718 477.51 121.643 514.289 146.066C516.471 147.514 517.426 150.235 516.628 152.729L502.127 198.082H404.872L390.233 152.773Z" fill="#FFD166" stroke="#073B4C" stroke-width="3" stroke-linecap="round" stroke-linejoin="round"/>
<line x1="451.652" y1="151.854" x2="451.652" y2="179.869" stroke="#073B4C" stroke-width="6" stroke-linecap="round"/>
<line x1="466.682" y1="165.042" x2="438.668" y2="165.042" stroke="#073B4C" stroke-width="6" stroke-linecap="round"/>
</svg>
