<svg width="316" height="206" viewBox="0 0 316 206" fill="none" xmlns="http://www.w3.org/2000/svg">
<rect x="9.84375" y="175.549" width="162.877" height="300" rx="5.04543" transform="rotate(-90 9.84375 175.549)" fill="#073B4C"/>
<rect x="298.809" y="1.20862" width="178" height="298" rx="4.04543" transform="rotate(85.0751 298.809 1.20862)" fill="#FFD166" stroke="#073B4C" stroke-width="2"/>
<path d="M249.893 57.1602H248.893V57.1831L248.894 57.206L249.893 57.1602ZM249.893 57.4349L248.894 57.3891L248.893 57.412L248.893 57.4349L249.893 57.4349ZM249.893 72.4014L248.893 72.4014L248.893 73.4577L249.947 73.3999L249.893 72.4014ZM245.598 106.628L245.898 105.674L245.226 105.463L244.801 106.024L245.598 106.628ZM238.52 115.962L237.723 115.357L237.717 115.366L238.52 115.962ZM236.124 117.17L236.123 116.17L236.124 117.17ZM233.725 115.968L234.527 115.37L234.524 115.366L233.725 115.968ZM226.667 106.606L227.465 106.004L227.038 105.438L226.362 105.654L226.667 106.606ZM224.792 72.7179L224.595 73.6984L225.792 73.9384V72.7179H224.792ZM224.805 60.8081L225.799 60.9129L225.81 60.8149L225.801 60.7168L224.805 60.8081ZM226.021 58.1179L225.432 57.3096L225.432 57.3096L226.021 58.1179ZM230.195 58.7738L231.003 58.185L231.003 58.185L230.195 58.7738ZM236.117 66.9048L235.309 67.4936L236.113 68.597L236.922 67.498L236.117 66.9048ZM244.127 56.0335L244.932 56.6267L245 56.5353L245.045 56.4311L244.127 56.0335ZM230.759 75.127L229.762 75.0424L229.711 75.644L230.22 75.9694L230.759 75.127ZM236.096 80.4604L235.254 80.9999L236.096 82.3141L236.938 80.9999L236.096 80.4604ZM243.918 73.8062L244.315 74.7241L244.918 74.4633V73.8062H243.918ZM243.918 66.3904H244.918V63.3472L243.113 65.7972L243.918 66.3904ZM238.509 73.732L239.314 74.3252L239.314 74.3252L238.509 73.732ZM236.095 74.9474L236.093 75.9474L236.093 75.9474L236.095 74.9474ZM233.689 73.7188L232.881 74.3076L232.881 74.3076L233.689 73.7188ZM230.767 69.7074L231.575 69.1186L229.767 66.636V69.7074H230.767ZM236.113 109.176L235.316 109.78L236.109 110.826L236.907 109.784L236.113 109.176ZM232.03 103.788L231.419 102.996L230.635 103.602L231.233 104.392L232.03 103.788ZM240.213 103.826L241.006 104.434L241.614 103.64L240.821 103.032L240.213 103.826ZM236.097 99.3491L236.939 98.8096L236.097 97.4954L235.255 98.8096L236.097 99.3491ZM250.893 57.0406C250.893 54.8969 249.022 53.307 246.905 53.307V55.307C248.088 55.307 248.893 56.1649 248.893 57.0406H250.893ZM250.893 57.1602V57.0406H248.893V57.1602H250.893ZM250.892 57.4807C250.897 57.3585 250.897 57.2363 250.892 57.1144L248.894 57.206C248.896 57.267 248.896 57.3281 248.894 57.3891L250.892 57.4807ZM250.893 72.4014L250.893 57.4349L248.893 57.4349L248.893 72.4014L250.893 72.4014ZM249.947 73.3999C250.252 73.3832 250.558 73.3747 250.867 73.3747V71.3747C250.522 71.3747 250.179 71.3842 249.838 71.4029L249.947 73.3999ZM250.867 73.3747C259.996 73.3747 267.397 80.7754 267.397 89.9045H269.397C269.397 79.6708 261.101 71.3747 250.867 71.3747V73.3747ZM267.397 89.9045C267.397 99.0336 259.996 106.434 250.867 106.434V108.434C261.101 108.434 269.397 100.138 269.397 89.9045H267.397ZM250.867 106.434C249.134 106.434 247.465 106.168 245.898 105.674L245.297 107.582C247.057 108.136 248.928 108.434 250.867 108.434V106.434ZM239.317 116.566L246.394 107.233L244.801 106.024L237.723 115.357L239.317 116.566ZM236.126 118.17C237.387 118.168 238.572 117.57 239.323 116.557L237.717 115.366C237.342 115.871 236.751 116.169 236.123 116.17L236.126 118.17ZM232.924 116.566C233.678 117.577 234.865 118.171 236.126 118.17L236.123 116.17C235.494 116.171 234.903 115.874 234.527 115.37L232.924 116.566ZM225.868 107.208L232.927 116.57L234.524 115.366L227.465 106.004L225.868 107.208ZM226.362 105.654C224.776 106.161 223.084 106.435 221.326 106.435V108.435C223.293 108.435 225.19 108.128 226.971 107.559L226.362 105.654ZM221.326 106.435C212.197 106.435 204.796 99.0341 204.796 89.905H202.796C202.796 100.139 211.092 108.435 221.326 108.435V106.435ZM204.796 89.905C204.796 80.7759 212.197 73.3752 221.326 73.3752V71.3752C211.092 71.3752 202.796 79.6713 202.796 89.905H204.796ZM221.326 73.3752C222.446 73.3752 223.539 73.4865 224.595 73.6984L224.989 71.7374C223.804 71.4998 222.579 71.3752 221.326 71.3752V73.3752ZM223.792 61.0516V72.7179H225.792V61.0516H223.792ZM223.81 60.7033C223.798 60.8182 223.792 60.9344 223.792 61.0516H225.792C225.792 61.0045 225.795 60.9583 225.799 60.9129L223.81 60.7033ZM225.432 57.3096C224.254 58.1678 223.685 59.5503 223.809 60.8993L225.801 60.7168C225.739 60.0399 226.024 59.3529 226.61 58.9262L225.432 57.3096ZM231.003 58.185C229.707 56.405 227.212 56.013 225.432 57.3096L226.61 58.9262C227.497 58.28 228.74 58.4753 229.387 59.3625L231.003 58.185ZM236.926 66.3161L231.003 58.185L229.387 59.3625L235.309 67.4936L236.926 66.3161ZM243.322 55.4403L235.312 66.3117L236.922 67.498L244.932 56.6267L243.322 55.4403ZM246.905 53.307C245.272 53.307 243.817 54.2349 243.21 55.6359L245.045 56.4311C245.314 55.8094 246.016 55.307 246.905 55.307V53.307ZM230.22 75.9694C232.24 77.2615 233.961 78.981 235.254 80.9999L236.938 79.9209C235.489 77.6586 233.561 75.7324 231.297 74.2846L230.22 75.9694ZM236.938 80.9999C238.708 78.2383 241.276 76.0377 244.315 74.7241L243.521 72.8883C240.113 74.3614 237.236 76.8273 235.254 79.921L236.938 80.9999ZM242.918 66.3904V73.8062H244.918V66.3904H242.918ZM239.314 74.3252L244.723 66.9836L243.113 65.7972L237.704 73.1388L239.314 74.3252ZM236.093 75.9474C237.364 75.9508 238.56 75.3483 239.314 74.3252L237.704 73.1388C237.328 73.6488 236.732 73.9491 236.098 73.9474L236.093 75.9474ZM232.881 74.3076C233.629 75.3349 234.822 75.9439 236.093 75.9474L236.098 73.9474C235.465 73.9457 234.87 73.6421 234.497 73.1301L232.881 74.3076ZM229.959 70.2962L232.881 74.3076L234.497 73.1301L231.575 69.1186L229.959 70.2962ZM231.767 74.9301V69.7074H229.767V74.9301H231.767ZM231.755 75.2116C231.763 75.1185 231.767 75.0246 231.767 74.9301H229.767C229.767 74.9681 229.765 75.0055 229.762 75.0424L231.755 75.2116ZM236.91 108.572L232.827 103.184L231.233 104.392L235.316 109.78L236.91 108.572ZM239.419 103.218L235.319 108.568L236.907 109.784L241.006 104.434L239.419 103.218ZM240.821 103.032C239.295 101.862 237.979 100.433 236.939 98.8096L235.255 99.8886C236.42 101.708 237.895 103.309 239.604 104.619L240.821 103.032ZM235.255 98.8096C234.225 100.416 232.925 101.833 231.419 102.996L232.641 104.579C234.329 103.277 235.785 101.689 236.939 99.8885L235.255 98.8096ZM261.422 89.9045C261.422 95.7338 256.696 100.459 250.867 100.459V102.459C257.801 102.459 263.422 96.8384 263.422 89.9045H261.422ZM250.867 79.3496C256.696 79.3496 261.422 84.0752 261.422 89.9045H263.422C263.422 82.9706 257.801 77.3496 250.867 77.3496V79.3496ZM240.312 89.9045C240.312 84.0752 245.038 79.3496 250.867 79.3496V77.3496C243.933 77.3496 238.312 82.9706 238.312 89.9045H240.312ZM250.867 100.459C245.038 100.459 240.312 95.7338 240.312 89.9045H238.312C238.312 96.8384 243.933 102.459 250.867 102.459V100.459ZM231.881 89.905C231.881 95.7343 227.155 100.46 221.326 100.46V102.46C228.26 102.46 233.881 96.8389 233.881 89.905H231.881ZM221.326 79.3501C227.155 79.3501 231.881 84.0757 231.881 89.905H233.881C233.881 82.9711 228.26 77.3501 221.326 77.3501V79.3501ZM210.771 89.905C210.771 84.0757 215.496 79.3501 221.326 79.3501V77.3501C214.392 77.3501 208.771 82.9711 208.771 89.905H210.771ZM221.326 100.46C215.496 100.46 210.771 95.7343 210.771 89.905H208.771C208.771 96.8389 214.392 102.46 221.326 102.46V100.46Z" fill="#073B4C"/>
<path fill-rule="evenodd" clip-rule="evenodd" d="M222.969 97.8519C220.504 97.1196 219.056 94.5513 219.726 92.0515C220.407 89.5095 223.02 88.001 225.562 88.6821C227.177 89.1148 228.374 90.3273 228.859 91.8059C229.484 87.9523 227.224 84.1309 223.303 83.0802C219.169 81.9726 215.051 84.3502 213.944 88.4838C212.836 92.6174 215.214 96.7356 219.347 97.8432C220.676 98.1992 221.789 98.1808 222.98 97.8672C222.977 97.8621 222.973 97.857 222.969 97.8519Z" fill="#073B4C"/>
<path fill-rule="evenodd" clip-rule="evenodd" d="M252.955 97.8519C250.489 97.1196 249.042 94.5513 249.711 92.0515C250.393 89.5095 253.005 88.001 255.547 88.6821C257.162 89.1148 258.36 90.3273 258.844 91.8059C259.47 87.9523 257.21 84.1309 253.289 83.0802C249.155 81.9726 245.037 84.3502 243.929 88.4838C242.822 92.6174 245.199 96.7356 249.333 97.8432C250.662 98.1992 251.774 98.1808 252.966 97.8672C252.962 97.8621 252.959 97.857 252.955 97.8519Z" fill="#073B4C"/>
<path d="M216.629 58.1615C216.629 57.8829 216.855 57.657 217.133 57.657H255.06C255.339 57.657 255.564 57.8829 255.564 58.1615V71.5572C255.564 71.7563 255.447 71.9367 255.266 72.0179L236.302 80.4882C236.171 80.5467 236.022 80.5467 235.891 80.4882L216.927 72.0179C216.746 71.9367 216.629 71.7563 216.629 71.5572V58.1615Z" fill="#FFD166" stroke="#073B4C" stroke-width="2" stroke-linecap="round" stroke-linejoin="round"/>
<path d="M203.119 56.4871L236.096 43.755L269.073 56.4871L236.096 69.2192L203.119 56.4871Z" fill="#FFD166" stroke="#073B4C" stroke-width="2"/>
<path d="M235.915 33.7624C236.032 33.7173 236.161 33.7173 236.278 33.7624L285.233 52.6634C285.663 52.8296 285.663 53.4386 285.233 53.6048L236.278 72.5058C236.161 72.551 236.032 72.551 235.915 72.5058L186.96 53.6048C186.529 53.4386 186.529 52.8296 186.96 52.6634L235.915 33.7624Z" fill="#FFD166" stroke="#073B4C" stroke-width="2" stroke-linejoin="round"/>
<rect x="274.056" y="76.5164" width="6.70203" height="22.5491" rx="3.35102" stroke="#073B4C" stroke-width="2"/>
<line x1="277.229" y1="76.9227" x2="277.229" y2="56.4393" stroke="#073B4C" stroke-width="2"/>
</svg>
