<svg width="314" height="204" viewBox="0 0 314 204" fill="none" xmlns="http://www.w3.org/2000/svg">
<rect x="8.84375" y="191.921" width="177.432" height="300" rx="5.04543" transform="rotate(-90 8.84375 191.921)" fill="#073B4C"/>
<rect x="312.698" y="25.2394" width="178" height="298" rx="4.04543" transform="rotate(94.6302 312.698 25.2394)" fill="#FFD166" stroke="#073B4C" stroke-width="2"/>
<path d="M248.653 72.2767H247.653V72.3L247.654 72.3232L248.653 72.2767ZM248.653 72.5557L247.654 72.5091L247.653 72.5324L247.653 72.5557L248.653 72.5557ZM248.653 87.5201L247.653 87.5201L247.653 88.5763L248.708 88.5186L248.653 87.5201ZM244.359 121.747L244.659 120.793L243.987 120.582L243.562 121.143L244.359 121.747ZM237.281 131.08L236.484 130.476L236.478 130.485L237.281 131.08ZM234.885 132.288L234.887 133.288L234.885 132.288ZM232.487 131.087L233.288 130.489L233.285 130.485L232.487 131.087ZM225.428 121.725L226.227 121.123L225.799 120.557L225.124 120.772L225.428 121.725ZM223.553 87.8369L223.356 88.8174L224.553 89.0574V87.8369H223.553ZM223.566 75.9262L224.56 76.0312L224.571 75.9332L224.562 75.8351L223.566 75.9262ZM224.782 73.2365L225.371 74.0448L225.371 74.0448L224.782 73.2365ZM228.956 73.8924L229.764 73.3036L229.764 73.3036L228.956 73.8924ZM234.878 82.0234L234.07 82.6122L234.874 83.7156L235.683 82.6166L234.878 82.0234ZM242.888 71.1524L243.693 71.7455L243.76 71.6541L243.805 71.5499L242.888 71.1524ZM229.519 90.2459L228.523 90.1612L228.472 90.7629L228.981 91.0884L229.519 90.2459ZM234.857 95.5793L234.015 96.1188L234.857 97.4329L235.699 96.1187L234.857 95.5793ZM242.679 88.9249L243.075 89.8428L243.679 89.582V88.9249H242.679ZM242.679 81.5091H243.679V78.466L241.873 80.916L242.679 81.5091ZM237.27 88.8506L238.075 89.4438L238.075 89.4438L237.27 88.8506ZM234.856 90.066L234.854 91.066L234.854 91.066L234.856 90.066ZM232.45 88.8375L233.258 88.2487L233.258 88.2487L232.45 88.8375ZM229.528 84.8259L230.336 84.2371L228.528 81.7545V84.8259H229.528ZM234.874 124.295L234.077 124.899L234.87 125.945L235.668 124.903L234.874 124.295ZM230.791 118.907L230.18 118.115L229.396 118.721L229.994 119.511L230.791 118.907ZM238.974 118.945L239.767 119.553L240.375 118.759L239.582 118.151L238.974 118.945ZM234.857 114.468L235.699 113.928L234.857 112.614L234.015 113.928L234.857 114.468ZM249.653 72.1592C249.653 70.0155 247.783 68.4257 245.666 68.4257V70.4257C246.849 70.4257 247.653 71.2835 247.653 72.1592H249.653ZM249.653 72.2767V72.1592H247.653V72.2767H249.653ZM249.652 72.6023C249.658 72.4781 249.658 72.3539 249.652 72.2301L247.654 72.3232C247.657 72.3851 247.657 72.4471 247.654 72.5091L249.652 72.6023ZM249.653 87.5201L249.653 72.5557L247.653 72.5557L247.653 87.5201L249.653 87.5201ZM248.708 88.5186C249.012 88.5019 249.319 88.4934 249.628 88.4934V86.4934C249.283 86.4934 248.939 86.5029 248.599 86.5216L248.708 88.5186ZM249.628 88.4934C258.757 88.4934 266.158 95.894 266.158 105.023H268.158C268.158 94.7895 259.862 86.4934 249.628 86.4934V88.4934ZM266.158 105.023C266.158 114.152 258.757 121.553 249.628 121.553V123.553C259.862 123.553 268.158 115.257 268.158 105.023H266.158ZM249.628 121.553C247.895 121.553 246.226 121.287 244.659 120.793L244.058 122.701C245.818 123.255 247.689 123.553 249.628 123.553V121.553ZM238.078 131.684L245.155 122.351L243.562 121.143L236.484 130.476L238.078 131.684ZM234.887 133.288C236.148 133.287 237.333 132.689 238.084 131.676L236.478 130.485C236.103 130.989 235.512 131.287 234.884 131.288L234.887 133.288ZM231.685 131.685C232.439 132.696 233.626 133.29 234.887 133.288L234.884 131.288C234.256 131.289 233.664 130.993 233.288 130.489L231.685 131.685ZM224.63 122.327L231.688 131.689L233.285 130.485L226.227 121.123L224.63 122.327ZM225.124 120.772C223.537 121.28 221.845 121.554 220.087 121.554V123.554C222.054 123.554 223.951 123.247 225.732 122.678L225.124 120.772ZM220.087 121.554C210.957 121.554 203.557 114.153 203.557 105.024H201.557C201.557 115.258 209.853 123.554 220.087 123.554V121.554ZM203.557 105.024C203.557 95.8948 210.957 88.4942 220.087 88.4942V86.4942C209.853 86.4942 201.557 94.7903 201.557 105.024H203.557ZM220.087 88.4942C221.207 88.4942 222.3 88.6055 223.356 88.8174L223.75 86.8564C222.565 86.6187 221.34 86.4942 220.087 86.4942V88.4942ZM222.553 76.1702V87.8369H224.553V76.1702H222.553ZM222.571 75.8212C222.559 75.9363 222.553 76.0528 222.553 76.1702H224.553C224.553 76.1231 224.555 76.0768 224.56 76.0312L222.571 75.8212ZM224.193 72.4282C223.015 73.2862 222.447 74.6685 222.57 76.0173L224.562 75.8351C224.5 75.1583 224.785 74.4714 225.371 74.0448L224.193 72.4282ZM229.764 73.3036C228.467 71.5236 225.973 71.1316 224.193 72.4282L225.371 74.0448C226.258 73.3986 227.501 73.5939 228.147 74.4811L229.764 73.3036ZM235.687 81.4347L229.764 73.3036L228.147 74.4811L234.07 82.6122L235.687 81.4347ZM242.083 70.5592L234.073 81.4303L235.683 82.6166L243.693 71.7455L242.083 70.5592ZM245.666 68.4257C244.033 68.4257 242.577 69.3537 241.97 70.7548L243.805 71.5499C244.075 70.9281 244.776 70.4257 245.666 70.4257V68.4257ZM228.981 91.0884C231.001 92.3804 232.721 94.0999 234.015 96.1188L235.699 95.0398C234.249 92.7775 232.322 90.8514 230.058 89.4035L228.981 91.0884ZM235.699 96.1187C237.468 93.3571 240.036 91.1564 243.075 89.8428L242.282 88.007C238.874 89.4801 235.997 91.9461 234.015 95.0398L235.699 96.1187ZM241.679 81.5091V88.9249H243.679V81.5091H241.679ZM238.075 89.4438L243.484 82.1023L241.873 80.916L236.465 88.2574L238.075 89.4438ZM234.854 91.066C236.124 91.0694 237.321 90.4669 238.075 89.4438L236.465 88.2574C236.089 88.7674 235.492 89.0677 234.859 89.066L234.854 91.066ZM231.641 89.4262C232.39 90.4535 233.583 91.0625 234.854 91.066L234.859 89.066C234.226 89.0643 233.631 88.7607 233.258 88.2487L231.641 89.4262ZM228.719 85.4146L231.641 89.4262L233.258 88.2487L230.336 84.2371L228.719 85.4146ZM230.528 90.0488V84.8259H228.528V90.0488H230.528ZM230.516 90.3307C230.524 90.2375 230.528 90.1434 230.528 90.0488H228.528C228.528 90.0868 228.526 90.1243 228.523 90.1612L230.516 90.3307ZM235.671 123.691L231.588 118.303L229.994 119.511L234.077 124.899L235.671 123.691ZM238.18 118.336L234.08 123.686L235.668 124.903L239.767 119.553L238.18 118.336ZM239.582 118.151C238.056 116.981 236.74 115.552 235.699 113.928L234.015 115.007C235.181 116.826 236.656 118.428 238.365 119.738L239.582 118.151ZM234.015 113.928C232.986 115.535 231.686 116.952 230.18 118.115L231.403 119.698C233.09 118.395 234.546 116.808 235.699 115.007L234.015 113.928ZM260.183 105.023C260.183 110.853 255.457 115.578 249.628 115.578V117.578C256.562 117.578 262.183 111.957 262.183 105.023H260.183ZM249.628 94.4683C255.457 94.4683 260.183 99.1939 260.183 105.023H262.183C262.183 98.0893 256.562 92.4683 249.628 92.4683V94.4683ZM239.073 105.023C239.073 99.1939 243.799 94.4683 249.628 94.4683V92.4683C242.694 92.4683 237.073 98.0893 237.073 105.023H239.073ZM249.628 115.578C243.799 115.578 239.073 110.853 239.073 105.023H237.073C237.073 111.957 242.694 117.578 249.628 117.578V115.578ZM230.641 105.024C230.641 110.853 225.916 115.579 220.087 115.579V117.579C227.02 117.579 232.641 111.958 232.641 105.024H230.641ZM220.087 94.469C225.916 94.469 230.641 99.1946 230.641 105.024H232.641C232.641 98.0901 227.02 92.469 220.087 92.469V94.469ZM209.532 105.024C209.532 99.1946 214.257 94.469 220.087 94.469V92.469C213.153 92.469 207.532 98.0901 207.532 105.024H209.532ZM220.087 115.579C214.257 115.579 209.532 110.853 209.532 105.024H207.532C207.532 111.958 213.153 117.579 220.087 117.579V115.579Z" fill="#073B4C"/>
<path fill-rule="evenodd" clip-rule="evenodd" d="M221.73 112.971C219.264 112.238 217.817 109.67 218.486 107.17C219.168 104.628 221.78 103.12 224.322 103.801C225.937 104.234 227.135 105.446 227.619 106.925C228.245 103.071 225.985 99.2498 222.064 98.1991C217.93 97.0915 213.812 99.4691 212.704 103.603C211.597 107.736 213.974 111.854 218.108 112.962C219.437 113.318 220.549 113.3 221.741 112.986C221.737 112.981 221.734 112.976 221.73 112.971Z" fill="#073B4C"/>
<path fill-rule="evenodd" clip-rule="evenodd" d="M251.716 112.971C249.25 112.238 247.803 109.67 248.473 107.17C249.154 104.628 251.766 103.12 254.308 103.801C255.923 104.234 257.121 105.446 257.606 106.925C258.231 103.071 255.971 99.2498 252.05 98.1991C247.916 97.0915 243.798 99.4691 242.691 103.603C241.583 107.736 243.961 111.854 248.094 112.962C249.423 113.318 250.535 113.3 251.727 112.986C251.723 112.981 251.72 112.976 251.716 112.971Z" fill="#073B4C"/>
<mask id="path-6-inside-1" fill="white">
<path fill-rule="evenodd" clip-rule="evenodd" d="M196.837 59.9651C196.837 68.4547 202.402 75.6445 210.083 78.0857V90.7726C210.083 91.0512 210.309 91.2771 210.587 91.2771H260.083C260.361 91.2771 260.587 91.0512 260.587 90.7726V77.9269C268.02 75.3443 273.356 68.2778 273.356 59.9651C273.356 49.466 264.845 40.9548 254.346 40.9548C246.191 40.9548 239.235 46.0899 236.536 53.3029H233.657C230.958 46.0899 224.002 40.9548 215.847 40.9548C205.348 40.9548 196.837 49.466 196.837 59.9651Z"/>
</mask>
<path fill-rule="evenodd" clip-rule="evenodd" d="M196.837 59.9651C196.837 68.4547 202.402 75.6445 210.083 78.0857V90.7726C210.083 91.0512 210.309 91.2771 210.587 91.2771H260.083C260.361 91.2771 260.587 91.0512 260.587 90.7726V77.9269C268.02 75.3443 273.356 68.2778 273.356 59.9651C273.356 49.466 264.845 40.9548 254.346 40.9548C246.191 40.9548 239.235 46.0899 236.536 53.3029H233.657C230.958 46.0899 224.002 40.9548 215.847 40.9548C205.348 40.9548 196.837 49.466 196.837 59.9651Z" fill="#FFD166"/>
<path d="M210.083 78.0857H212.083V76.6228L210.689 76.1796L210.083 78.0857ZM260.587 77.9269L259.931 76.0377L258.587 76.5046V77.9269H260.587ZM236.536 53.3029V55.3029H237.923L238.409 54.0039L236.536 53.3029ZM233.657 53.3029L231.784 54.0039L232.27 55.3029H233.657V53.3029ZM210.689 76.1796C203.814 73.9947 198.837 67.5585 198.837 59.9651H194.837C194.837 69.3509 200.99 77.2944 209.477 79.9918L210.689 76.1796ZM212.083 90.7726V78.0857H208.083V90.7726H212.083ZM210.587 89.2771C211.413 89.2771 212.083 89.9467 212.083 90.7726H208.083C208.083 92.1558 209.204 93.2771 210.587 93.2771V89.2771ZM260.083 89.2771H210.587V93.2771H260.083V89.2771ZM258.587 90.7726C258.587 89.9467 259.257 89.2771 260.083 89.2771V93.2771C261.466 93.2771 262.587 92.1558 262.587 90.7726H258.587ZM258.587 77.9269V90.7726H262.587V77.9269H258.587ZM271.356 59.9651C271.356 67.4001 266.585 73.7259 259.931 76.0377L261.244 79.8162C269.456 76.9627 275.356 69.1555 275.356 59.9651H271.356ZM254.346 42.9548C263.74 42.9548 271.356 50.5706 271.356 59.9651H275.356C275.356 48.3614 265.949 38.9548 254.346 38.9548V42.9548ZM238.409 54.0039C240.825 47.5466 247.052 42.9548 254.346 42.9548V38.9548C245.33 38.9548 237.645 44.6332 234.662 52.602L238.409 54.0039ZM233.657 55.3029H236.536V51.3029H233.657V55.3029ZM215.847 42.9548C223.141 42.9548 229.367 47.5466 231.784 54.0039L235.53 52.602C232.548 44.6332 224.863 38.9548 215.847 38.9548V42.9548ZM198.837 59.9651C198.837 50.5706 206.453 42.9548 215.847 42.9548V38.9548C204.243 38.9548 194.837 48.3614 194.837 59.9651H198.837Z" fill="#073B4C" mask="url(#path-6-inside-1)"/>
<circle cx="235.335" cy="47.9985" r="18.0102" fill="#FFD166" stroke="#073B4C" stroke-width="2"/>
<circle cx="235.335" cy="47.9985" r="19.0102" fill="#FFD166"/>
<path d="M254.346 47.9985C254.346 37.4994 245.834 28.9883 235.335 28.9883C224.836 28.9883 216.325 37.4994 216.325 47.9985" stroke="#073B4C" stroke-width="2"/>
<line x1="211.22" y1="83.9525" x2="258.896" y2="83.9525" stroke="#073B4C" stroke-width="2"/>
</svg>
