<svg width="620" height="432" viewBox="0 0 620 432" fill="none" xmlns="http://www.w3.org/2000/svg">
<rect x="23.752" y="339.84" width="305.621" height="581.244" rx="10" transform="rotate(-90 23.752 339.84)" fill="#073B4C"/>
<rect x="617.351" y="68.4341" width="363.352" height="577.244" rx="8" transform="rotate(96.5513 617.351 68.4341)" fill="#FFD166" stroke="#073B4C" stroke-width="4"/>
<path d="M487.81 134.822H486.31V134.858L486.312 134.895L487.81 134.822ZM487.81 135.401L486.312 135.328L486.31 135.364V135.401H487.81ZM487.81 165.047H486.31V166.632L487.892 166.545L487.81 165.047ZM479.298 232.885L479.748 231.454L478.741 231.137L478.103 231.978L479.298 232.885ZM465.27 251.383L464.075 250.476L464.07 250.483L464.065 250.489L465.27 251.383ZM460.522 253.777L460.524 255.277H460.524L460.522 253.777ZM455.768 251.396L456.97 250.499L456.965 250.493L455.768 251.396ZM441.777 232.84L442.975 231.937L442.334 231.087L441.321 231.411L441.777 232.84ZM438.061 165.674L437.766 167.144L439.561 167.504V165.674H438.061ZM438.087 142.065L439.578 142.224L439.594 142.077L439.581 141.929L438.087 142.065ZM440.498 136.737L439.615 135.525V135.525L440.498 136.737ZM448.77 138.037L449.982 137.154L448.77 138.037ZM460.509 154.153L459.296 155.036L460.502 156.691L461.716 155.042L460.509 154.153ZM476.382 132.608L477.59 133.498L477.691 133.36L477.759 133.204L476.382 132.608ZM449.887 170.448L448.392 170.322L448.316 171.224L449.079 171.712L449.887 170.448ZM460.467 181.02L459.204 181.829L460.467 183.8L461.73 181.829L460.467 181.02ZM475.968 167.832L476.563 169.208L477.468 168.817V167.832H475.968ZM475.968 153.134H477.468V148.57L474.76 152.245L475.968 153.134ZM465.248 167.684L464.04 166.794L465.248 167.684ZM460.465 170.093L460.461 171.593L460.465 170.093ZM455.695 167.658L456.908 166.775L455.695 167.658ZM449.903 159.706L451.116 158.823L448.403 155.099V159.706H449.903ZM460.5 237.934L459.304 238.84L460.493 240.409L461.69 238.846L460.5 237.934ZM452.408 227.254L451.491 226.067L450.314 226.976L451.212 228.16L452.408 227.254ZM468.625 227.33L469.816 228.242L470.728 227.052L469.537 226.14L468.625 227.33ZM460.467 218.457L461.73 217.648L460.467 215.676L459.204 217.648L460.467 218.457ZM489.31 134.602C489.31 130.659 485.859 127.684 481.889 127.684V130.684C484.459 130.684 486.31 132.561 486.31 134.602H489.31ZM489.31 134.822V134.602H486.31V134.822H489.31ZM489.308 135.474C489.32 135.232 489.32 134.99 489.308 134.749L486.312 134.895C486.319 135.039 486.319 135.183 486.312 135.328L489.308 135.474ZM489.31 165.047V135.401H486.31V165.047H489.31ZM487.892 166.545C488.504 166.511 489.121 166.494 489.742 166.494V163.494C489.066 163.494 488.395 163.513 487.728 163.549L487.892 166.545ZM489.742 166.494C508.102 166.494 522.986 181.378 522.986 199.738H525.986C525.986 179.721 509.759 163.494 489.742 163.494V166.494ZM522.986 199.738C522.986 218.098 508.102 232.982 489.742 232.982V235.982C509.759 235.982 525.986 219.755 525.986 199.738H522.986ZM489.742 232.982C486.257 232.982 482.901 232.446 479.748 231.454L478.848 234.316C482.288 235.399 485.948 235.982 489.742 235.982V232.982ZM466.465 252.289L480.493 233.791L478.103 231.978L464.075 250.476L466.465 252.289ZM460.524 255.277C462.871 255.274 465.078 254.161 466.475 252.276L464.065 250.489C463.233 251.612 461.918 252.275 460.52 252.277L460.524 255.277ZM454.565 252.293C455.968 254.174 458.178 255.281 460.524 255.277L460.52 252.277C459.122 252.279 457.806 251.62 456.97 250.5L454.565 252.293ZM440.579 233.743L454.57 252.299L456.965 250.493L442.975 231.937L440.579 233.743ZM441.321 231.411C438.129 232.431 434.726 232.982 431.191 232.982V235.982C435.039 235.982 438.75 235.382 442.234 234.269L441.321 231.411ZM431.191 232.982C412.831 232.982 397.948 218.099 397.948 199.738H394.948C394.948 219.755 411.174 235.982 431.191 235.982V232.982ZM397.948 199.738C397.948 181.378 412.831 166.495 431.191 166.495V163.495C411.174 163.495 394.948 179.722 394.948 199.738H397.948ZM431.191 166.495C433.444 166.495 435.642 166.718 437.766 167.144L438.356 164.203C436.039 163.738 433.643 163.495 431.191 163.495V166.495ZM436.561 142.552V165.674H439.561V142.552H436.561ZM436.595 141.906C436.573 142.119 436.561 142.335 436.561 142.552H439.561C439.561 142.441 439.567 142.331 439.578 142.224L436.595 141.906ZM439.615 135.525C437.424 137.12 436.365 139.691 436.593 142.201L439.581 141.929C439.444 140.427 440.078 138.899 441.381 137.95L439.615 135.525ZM449.982 137.154C447.569 133.841 442.928 133.112 439.615 135.525L441.381 137.95C443.355 136.512 446.12 136.947 447.558 138.92L449.982 137.154ZM461.721 153.27L449.982 137.154L447.558 138.92L459.296 155.036L461.721 153.27ZM475.174 131.718L459.301 153.263L461.716 155.042L477.59 133.498L475.174 131.718ZM481.889 127.684C478.831 127.684 476.127 129.422 475.005 132.012L477.759 133.204C478.373 131.783 479.946 130.684 481.889 130.684V127.684ZM449.079 171.712C453.141 174.31 456.602 177.769 459.204 181.829L461.73 180.211C458.894 175.785 455.123 172.017 450.695 169.185L449.079 171.712ZM461.73 181.829C465.288 176.276 470.451 171.851 476.563 169.208L475.373 166.455C468.707 169.336 463.081 174.159 459.204 180.211L461.73 181.829ZM474.468 153.134V167.832H477.468V153.134H474.468ZM466.456 168.574L477.176 154.024L474.76 152.245L464.04 166.794L466.456 168.574ZM460.461 171.593C462.826 171.599 465.053 170.478 466.456 168.574L464.04 166.794C463.205 167.929 461.878 168.597 460.469 168.593L460.461 171.593ZM454.483 168.541C455.875 170.453 458.096 171.587 460.461 171.593L460.469 168.593C459.06 168.589 457.737 167.914 456.908 166.775L454.483 168.541ZM448.691 160.589L454.483 168.541L456.908 166.775L451.116 158.823L448.691 160.589ZM451.403 170.059V159.706H448.403V170.059H451.403ZM451.381 170.575C451.396 170.404 451.403 170.232 451.403 170.059H448.403C448.403 170.148 448.399 170.235 448.392 170.322L451.381 170.575ZM461.695 237.028L453.603 226.348L451.212 228.16L459.304 238.84L461.695 237.028ZM467.434 226.418L459.309 237.022L461.69 238.846L469.816 228.242L467.434 226.418ZM469.537 226.14C466.468 223.787 463.821 220.912 461.73 217.648L459.204 219.266C461.484 222.824 464.368 225.957 467.712 228.521L469.537 226.14ZM459.204 217.648C457.134 220.879 454.52 223.728 451.491 226.067L453.324 228.442C456.625 225.893 459.473 222.788 461.73 219.266L459.204 217.648ZM511.144 199.738C511.144 211.558 501.562 221.14 489.742 221.14V224.14C503.219 224.14 514.144 213.215 514.144 199.738H511.144ZM489.742 178.336C501.562 178.336 511.144 187.918 511.144 199.738H514.144C514.144 186.261 503.219 175.336 489.742 175.336V178.336ZM468.34 199.738C468.34 187.918 477.922 178.336 489.742 178.336V175.336C476.265 175.336 465.34 186.261 465.34 199.738H468.34ZM489.742 221.14C477.922 221.14 468.34 211.558 468.34 199.738H465.34C465.34 213.215 476.265 224.14 489.742 224.14V221.14ZM452.593 199.738C452.593 211.558 443.011 221.14 431.191 221.14V224.14C444.668 224.14 455.593 213.215 455.593 199.738H452.593ZM431.191 178.337C443.011 178.337 452.593 187.919 452.593 199.738H455.593C455.593 186.262 444.668 175.337 431.191 175.337V178.337ZM409.79 199.738C409.79 187.919 419.371 178.337 431.191 178.337V175.337C417.715 175.337 406.79 186.262 406.79 199.738H409.79ZM431.191 221.14C419.371 221.14 409.79 211.558 409.79 199.738H406.79C406.79 213.215 417.715 224.14 431.191 224.14V221.14Z" fill="#073B4C"/>
<path fill-rule="evenodd" clip-rule="evenodd" d="M434.449 215.491C429.562 214.039 426.692 208.949 428.02 203.994C429.37 198.956 434.549 195.966 439.587 197.316C442.788 198.174 445.162 200.577 446.122 203.508C447.362 195.87 442.883 188.296 435.111 186.213C426.918 184.018 418.756 188.73 416.561 196.923C414.365 205.116 419.078 213.278 427.27 215.473C429.904 216.179 432.109 216.142 434.471 215.521C434.464 215.511 434.457 215.501 434.449 215.491Z" fill="#073B4C"/>
<path fill-rule="evenodd" clip-rule="evenodd" d="M493.881 215.491C488.993 214.039 486.124 208.949 487.451 203.994C488.801 198.956 493.98 195.966 499.018 197.316C502.219 198.174 504.594 200.577 505.553 203.508C506.794 195.87 502.314 188.296 494.542 186.213C486.349 184.018 478.187 188.73 475.992 196.923C473.797 205.116 478.509 213.278 486.702 215.473C489.335 216.179 491.54 216.142 493.902 215.521C493.895 215.511 493.888 215.501 493.881 215.491Z" fill="#073B4C"/>
<path d="M412.865 161.722H509.964V169.675C509.964 177.683 503.472 184.175 495.464 184.175H427.365C419.357 184.175 412.865 177.683 412.865 169.675V161.722Z" fill="#FFD166" stroke="#073B4C" stroke-width="3"/>
<path d="M412.865 150.257H509.964V163.009H412.865V150.257Z" fill="#FFD166" stroke="#073B4C" stroke-width="3"/>
<path d="M390.466 132.331C386.316 128.629 386.78 122.005 391.405 118.917L411.729 105.353C441.81 85.2759 481.018 85.2759 511.099 105.353L531.381 118.89C536.018 121.984 536.47 128.629 532.297 132.324L510.446 151.668H412.145L390.466 132.331Z" fill="#FFD166" stroke="#073B4C" stroke-width="3"/>
<path d="M448.452 116.33C448.307 115.543 448.806 114.78 449.585 114.598L461.165 111.887C461.39 111.834 461.624 111.834 461.849 111.887L473.404 114.592C474.189 114.776 474.688 115.546 474.535 116.337L471.243 133.369C471.177 133.709 470.996 134.015 470.73 134.237L462.374 141.195C461.818 141.658 461.01 141.658 460.454 141.195L459.495 142.348L460.454 141.195L452.109 134.246C451.84 134.022 451.658 133.71 451.594 133.366L448.452 116.33Z" fill="#FFD166" stroke="#073B4C" stroke-width="3" stroke-linecap="round" stroke-linejoin="round"/>
</svg>
