<svg width="613" height="420" viewBox="0 0 613 420" fill="none" xmlns="http://www.w3.org/2000/svg">
<rect x="19.4258" y="405.237" width="320.789" height="559.446" rx="10" transform="rotate(-90 19.4258 405.237)" fill="#073B4C"/>
<rect x="610.073" y="55.0892" width="363.352" height="577.244" rx="8" transform="rotate(95.2125 610.073 55.0892)" fill="#FFD166" stroke="#073B4C" stroke-width="4"/>
<path d="M503.12 187.694H501.62V187.73L501.621 187.767L503.12 187.694ZM503.12 188.27L501.621 188.197L501.62 188.234V188.27H503.12ZM503.12 217.918H501.62V219.502L503.202 219.416L503.12 217.918ZM494.608 285.756L495.058 284.325L494.051 284.008L493.412 284.849L494.608 285.756ZM480.58 304.254L479.385 303.347L479.38 303.354L479.375 303.36L480.58 304.254ZM475.832 306.648L475.834 308.148H475.834L475.832 306.648ZM471.077 304.267L472.28 303.37L472.275 303.364L471.077 304.267ZM457.087 285.711L458.285 284.808L457.644 283.958L456.63 284.282L457.087 285.711ZM453.371 218.545L453.076 220.016L454.871 220.376V218.545H453.371ZM453.396 194.936L454.888 195.095L454.904 194.948L454.89 194.8L453.396 194.936ZM455.807 189.608L456.691 190.82V190.82L455.807 189.608ZM464.079 190.908L462.867 191.791V191.791L464.079 190.908ZM475.818 207.024L474.606 207.907L475.811 209.562L477.026 207.913L475.818 207.024ZM491.691 185.479L492.899 186.369L493 186.231L493.068 186.075L491.691 185.479ZM465.196 223.319L463.702 223.193L463.625 224.095L464.388 224.583L465.196 223.319ZM475.776 233.891L474.513 234.7L475.776 236.671L477.039 234.7L475.776 233.891ZM491.278 220.702L491.873 222.079L492.778 221.688V220.702H491.278ZM491.278 206.005H492.778V201.44L490.07 205.115L491.278 206.005ZM480.558 220.555L481.765 221.445L481.765 221.445L480.558 220.555ZM475.775 222.964L475.77 224.464L475.775 222.964ZM471.005 220.529L469.792 221.412L471.005 220.529ZM465.213 212.577L466.425 211.694L463.713 207.97V212.577H465.213ZM475.809 290.805L474.614 291.711L475.803 293.28L477 291.717L475.809 290.805ZM467.717 280.125L466.801 278.938L465.624 279.847L466.522 281.031L467.717 280.125ZM483.935 280.201L485.125 281.113L486.037 279.923L484.847 279.01L483.935 280.201ZM475.777 271.328L477.04 270.518L475.777 268.547L474.514 270.518L475.777 271.328ZM504.62 187.473C504.62 183.53 501.169 180.555 497.199 180.555V183.555C499.768 183.555 501.62 185.432 501.62 187.473H504.62ZM504.62 187.694V187.473H501.62V187.694H504.62ZM504.618 188.343C504.63 188.102 504.629 187.861 504.618 187.621L501.621 187.767C501.628 187.91 501.628 188.054 501.621 188.197L504.618 188.343ZM504.62 217.918V188.27H501.62V217.918H504.62ZM503.202 219.416C503.814 219.382 504.431 219.365 505.052 219.365V216.365C504.376 216.365 503.704 216.384 503.037 216.42L503.202 219.416ZM505.052 219.365C523.412 219.365 538.296 234.249 538.296 252.609H541.296C541.296 232.592 525.069 216.365 505.052 216.365V219.365ZM538.296 252.609C538.296 270.969 523.412 285.853 505.052 285.853V288.853C525.069 288.853 541.296 272.626 541.296 252.609H538.296ZM505.052 285.853C501.567 285.853 498.21 285.317 495.058 284.325L494.157 287.186C497.598 288.269 501.258 288.853 505.052 288.853V285.853ZM481.775 305.16L495.803 286.662L493.412 284.849L479.385 303.347L481.775 305.16ZM475.834 308.148C478.181 308.145 480.387 307.032 481.785 305.147L479.375 303.36C478.542 304.483 477.228 305.146 475.83 305.148L475.834 308.148ZM469.875 305.164C471.278 307.045 473.488 308.151 475.834 308.148L475.83 305.148C474.432 305.15 473.115 304.491 472.28 303.37L469.875 305.164ZM455.889 286.614L469.88 305.17L472.275 303.364L458.285 284.808L455.889 286.614ZM456.63 284.282C453.439 285.302 450.036 285.853 446.501 285.853V288.853C450.349 288.853 454.06 288.253 457.544 287.14L456.63 284.282ZM446.501 285.853C428.141 285.853 413.257 270.97 413.257 252.61H410.257C410.257 272.627 426.484 288.853 446.501 288.853V285.853ZM413.257 252.61C413.257 234.25 428.141 219.366 446.501 219.366V216.366C426.484 216.366 410.257 232.593 410.257 252.61H413.257ZM446.501 219.366C448.753 219.366 450.952 219.59 453.076 220.016L453.666 217.074C451.348 216.609 448.952 216.366 446.501 216.366V219.366ZM451.871 195.423V218.545H454.871V195.423H451.871ZM451.905 194.778C451.882 194.99 451.871 195.206 451.871 195.423H454.871C454.871 195.312 454.877 195.202 454.888 195.095L451.905 194.778ZM454.924 188.396C452.733 189.991 451.674 192.562 451.903 195.072L454.89 194.8C454.753 193.298 455.388 191.769 456.691 190.82L454.924 188.396ZM465.292 190.025C462.879 186.712 458.237 185.982 454.924 188.396L456.691 190.82C458.664 189.383 461.429 189.817 462.867 191.791L465.292 190.025ZM477.03 206.14L465.292 190.025L462.867 191.791L474.606 207.907L477.03 206.14ZM490.484 184.589L474.61 206.134L477.026 207.913L492.899 186.369L490.484 184.589ZM497.199 180.555C494.14 180.555 491.436 182.293 490.315 184.883L493.068 186.075C493.683 184.654 495.256 183.555 497.199 183.555V180.555ZM464.388 224.583C468.451 227.182 471.911 230.64 474.513 234.7L477.039 233.082C474.203 228.656 470.432 224.888 466.005 222.056L464.388 224.583ZM477.039 234.7C480.597 229.147 485.761 224.721 491.873 222.079L490.682 219.326C484.017 222.207 478.39 227.03 474.513 233.082L477.039 234.7ZM489.778 206.005V220.702H492.778V206.005H489.778ZM481.765 221.445L492.485 206.895L490.07 205.115L479.35 219.665L481.765 221.445ZM475.77 224.464C478.136 224.47 480.362 223.349 481.765 221.445L479.35 219.665C478.514 220.8 477.188 221.468 475.779 221.464L475.77 224.464ZM469.792 221.412C471.185 223.324 473.405 224.457 475.77 224.464L475.779 221.464C474.37 221.46 473.047 220.785 472.217 219.646L469.792 221.412ZM464 213.46L469.792 221.412L472.217 219.646L466.425 211.694L464 213.46ZM466.713 222.93V212.577H463.713V222.93H466.713ZM466.691 223.446C466.705 223.275 466.713 223.103 466.713 222.93H463.713C463.713 223.019 463.709 223.106 463.702 223.193L466.691 223.446ZM477.005 289.899L468.913 279.219L466.522 281.031L474.614 291.711L477.005 289.899ZM482.744 279.289L474.619 289.892L477 291.717L485.125 281.113L482.744 279.289ZM484.847 279.01C481.778 276.658 479.131 273.783 477.04 270.518L474.514 272.137C476.793 275.695 479.678 278.828 483.022 281.391L484.847 279.01ZM474.514 270.518C472.443 273.749 469.829 276.599 466.801 278.938L468.634 281.313C471.935 278.764 474.783 275.659 477.04 272.137L474.514 270.518ZM526.454 252.609C526.454 264.429 516.872 274.011 505.052 274.011V277.011C518.528 277.011 529.454 266.086 529.454 252.609H526.454ZM505.052 231.207C516.872 231.207 526.454 240.789 526.454 252.609H529.454C529.454 239.132 518.528 228.207 505.052 228.207V231.207ZM483.65 252.609C483.65 240.789 493.232 231.207 505.052 231.207V228.207C491.575 228.207 480.65 239.132 480.65 252.609H483.65ZM505.052 274.011C493.232 274.011 483.65 264.429 483.65 252.609H480.65C480.65 266.086 491.575 277.011 505.052 277.011V274.011ZM467.903 252.61C467.903 264.429 458.321 274.011 446.501 274.011V277.011C459.978 277.011 470.903 266.086 470.903 252.61H467.903ZM446.501 231.208C458.321 231.208 467.903 240.79 467.903 252.61H470.903C470.903 239.133 459.978 228.208 446.501 228.208V231.208ZM425.099 252.61C425.099 240.79 434.681 231.208 446.501 231.208V228.208C433.024 228.208 422.099 239.133 422.099 252.61H425.099ZM446.501 274.011C434.681 274.011 425.099 264.429 425.099 252.61H422.099C422.099 266.086 433.024 277.011 446.501 277.011V274.011Z" fill="#073B4C"/>
<path fill-rule="evenodd" clip-rule="evenodd" d="M449.759 268.361C444.872 266.91 442.002 261.82 443.33 256.865C444.68 251.827 449.858 248.837 454.896 250.187C458.098 251.045 460.472 253.448 461.431 256.379C462.672 248.741 458.193 241.167 450.42 239.084C442.228 236.889 434.066 241.601 431.87 249.794C429.675 257.987 434.387 266.149 442.58 268.344C445.214 269.05 447.419 269.013 449.781 268.392C449.773 268.382 449.766 268.371 449.759 268.361Z" fill="#073B4C"/>
<path fill-rule="evenodd" clip-rule="evenodd" d="M509.191 268.361C504.303 266.91 501.433 261.82 502.761 256.865C504.111 251.827 509.29 248.837 514.328 250.187C517.529 251.045 519.903 253.448 520.863 256.379C522.104 248.741 517.624 241.167 509.852 239.084C501.659 236.889 493.497 241.601 491.302 249.794C489.107 257.987 493.819 266.149 502.012 268.344C504.645 269.05 506.85 269.013 509.212 268.392C509.205 268.382 509.198 268.372 509.191 268.361Z" fill="#073B4C"/>
<mask id="path-6-inside-1" fill="white">
<path fill-rule="evenodd" clip-rule="evenodd" d="M400.42 163.304C400.42 180.131 411.45 194.381 426.673 199.219V224.365C426.673 224.917 427.121 225.365 427.673 225.365H525.772C526.325 225.365 526.772 224.917 526.772 224.365V198.905C541.505 193.786 552.08 179.78 552.08 163.304C552.08 142.495 535.211 125.626 514.402 125.626C498.238 125.626 484.452 135.804 479.102 150.1H473.398C468.047 135.804 454.261 125.626 438.098 125.626C417.289 125.626 400.42 142.495 400.42 163.304Z"/>
</mask>
<path fill-rule="evenodd" clip-rule="evenodd" d="M400.42 163.304C400.42 180.131 411.45 194.381 426.673 199.219V224.365C426.673 224.917 427.121 225.365 427.673 225.365H525.772C526.325 225.365 526.772 224.917 526.772 224.365V198.905C541.505 193.786 552.08 179.78 552.08 163.304C552.08 142.495 535.211 125.626 514.402 125.626C498.238 125.626 484.452 135.804 479.102 150.1H473.398C468.047 135.804 454.261 125.626 438.098 125.626C417.289 125.626 400.42 142.495 400.42 163.304Z" fill="#FFD166"/>
<path d="M426.673 199.219H429.673V197.025L427.582 196.36L426.673 199.219ZM526.772 198.905L525.788 196.071L523.772 196.771V198.905H526.772ZM479.102 150.1V153.1H481.183L481.912 151.152L479.102 150.1ZM473.398 150.1L470.588 151.152L471.317 153.1H473.398V150.1ZM427.582 196.36C413.568 191.906 403.42 178.786 403.42 163.304H397.42C397.42 181.475 409.332 196.855 425.765 202.078L427.582 196.36ZM429.673 224.365V199.219H423.673V224.365H429.673ZM427.673 222.365C428.778 222.365 429.673 223.26 429.673 224.365H423.673C423.673 226.574 425.464 228.365 427.673 228.365V222.365ZM525.772 222.365H427.673V228.365H525.772V222.365ZM523.772 224.365C523.772 223.26 524.668 222.365 525.772 222.365V228.365C527.981 228.365 529.772 226.574 529.772 224.365H523.772ZM523.772 198.905V224.365H529.772V198.905H523.772ZM549.08 163.304C549.08 178.464 539.351 191.358 525.788 196.071L527.757 201.739C543.659 196.214 555.08 181.097 555.08 163.304H549.08ZM514.402 128.626C533.554 128.626 549.08 144.152 549.08 163.304H555.08C555.08 140.839 536.867 122.626 514.402 122.626V128.626ZM481.912 151.152C486.838 137.989 499.53 128.626 514.402 128.626V122.626C496.947 122.626 482.067 133.619 476.292 149.049L481.912 151.152ZM473.398 153.1H479.102V147.1H473.398V153.1ZM438.098 128.626C452.97 128.626 465.662 137.989 470.588 151.152L476.207 149.049C470.433 133.619 455.553 122.626 438.098 122.626V128.626ZM403.42 163.304C403.42 144.152 418.946 128.626 438.098 128.626V122.626C415.632 122.626 397.42 140.839 397.42 163.304H403.42Z" fill="#073B4C" mask="url(#path-6-inside-1)"/>
<circle cx="476.724" cy="139.587" r="36.1781" fill="#FFD166" stroke="#073B4C" stroke-width="3"/>
<circle cx="476.724" cy="139.587" r="37.6781" fill="#FFD166"/>
<path d="M514.402 139.587C514.402 118.778 497.533 101.909 476.723 101.909C455.914 101.909 439.045 118.778 439.045 139.587" stroke="#073B4C" stroke-width="3"/>
<line x1="428.927" y1="211.329" x2="523.42" y2="211.329" stroke="#073B4C" stroke-width="3"/>
</svg>
