<svg width="50" height="51" viewBox="0 0 50 51" fill="none" xmlns="http://www.w3.org/2000/svg">
<path d="M42.1875 24.4233L35.875 24.4233L35.875 19.689C35.875 19.6814 35.8751 19.6742 35.8751 19.6672C35.9772 19.6513 36.1234 19.6377 36.331 19.6312C36.5553 19.6242 36.7776 19.626 37.0395 19.628C37.1796 19.6292 37.3309 19.6304 37.5 19.6304L40.625 19.6304L42.125 19.6304L42.125 18.1304L42.125 10.3374L42.125 8.8374L40.625 8.8374L34.375 8.8374C28.3719 8.8374 23.5 13.6917 23.5 19.689L23.5 24.4233L18.75 24.4233L17.25 24.4233L17.25 25.9233L17.25 33.7163L17.25 35.2163L18.75 35.2163L23.5 35.2163L23.5 49.3608L6.25 49.3608C3.62762 49.3608 1.5 47.2331 1.5 44.6264L1.5 7.22021C1.5 4.61456 3.62781 2.48584 6.25 2.48584L43.75 2.48584C46.3722 2.48584 48.5 4.61456 48.5 7.22021L48.5 44.6264C48.5 47.2331 46.3724 49.3608 43.75 49.3608L35.875 49.3608L35.875 35.2163L39.0625 35.2163L40.0771 35.2163L40.4547 34.2746L43.5797 26.4816L44.4051 24.4233L42.1875 24.4233ZM35.891 19.5031C35.891 19.5031 35.8908 19.504 35.8902 19.5057C35.8907 19.504 35.891 19.5031 35.891 19.5031Z" stroke="white" stroke-width="3"/>
</svg>
