<svg width="51" height="51" viewBox="0 0 51 51" fill="none" xmlns="http://www.w3.org/2000/svg">
<path d="M34.7718 0.985838L16.0218 0.985839C7.39386 0.98584 0.39679 7.96541 0.39679 16.5718L0.396791 35.2749C0.396791 43.8812 7.39386 50.8608 16.0218 50.8608L34.7718 50.8608C43.3997 50.8608 50.3968 43.8812 50.3968 35.2749L50.3968 16.5718C50.3968 7.96541 43.3997 0.985838 34.7718 0.985838ZM45.7093 35.2749C45.7093 41.2913 40.8033 46.185 34.7718 46.185L16.0218 46.185C9.9903 46.185 5.08429 41.2913 5.08429 35.2749L5.08429 16.5718C5.08429 10.5554 9.99152 5.66162 16.0218 5.66162L34.7718 5.66162C40.8033 5.66162 45.7093 10.5566 45.7093 16.5718L45.7093 35.2749Z" fill="white"/>
<path d="M25.3966 13.454C18.4935 13.454 12.8966 19.0369 12.8966 25.9228C12.8966 32.8086 18.4935 38.3915 25.3966 38.3915C32.2997 38.3915 37.8966 32.8086 37.8966 25.9228C37.8966 19.0369 32.2997 13.454 25.3966 13.454ZM25.3966 33.7157C21.09 33.7157 17.5841 30.2186 17.5841 25.9228C17.5841 21.6232 21.09 18.1298 25.3966 18.1298C29.7032 18.1298 33.2091 21.6232 33.2091 25.9228C33.2091 30.2186 29.7032 33.7157 25.3966 33.7157Z" fill="white"/>
<path d="M40.4993 12.5194C40.4993 13.4375 39.7535 14.1803 38.8343 14.1803C37.9151 14.1803 37.1693 13.4363 37.1693 12.5194C37.1693 11.6025 37.9151 10.8585 38.8343 10.8585C39.7535 10.8573 40.4993 11.6013 40.4993 12.5194Z" fill="white"/>
</svg>
