<svg width="291" height="482" viewBox="0 0 291 482" fill="none" xmlns="http://www.w3.org/2000/svg">
<mask id="mask0" mask-type="alpha" maskUnits="userSpaceOnUse" x="0" y="0" width="483" height="482">
<circle cx="241.607" cy="241.173" r="240.693" transform="rotate(90 241.607 241.173)" fill="#FFD166"/>
</mask>
<g mask="url(#mask0)">
<path d="M-786.336 -464.994L299.883 621.225" stroke="white" stroke-width="6.10795" stroke-miterlimit="10"/>
<path d="M-752.693 -473.851L333.526 612.369" stroke="white" stroke-width="6.10795" stroke-miterlimit="10"/>
<path d="M-719.05 -482.703L367.17 603.516" stroke="white" stroke-width="6.10795" stroke-miterlimit="10"/>
<path d="M-685.407 -491.557L400.813 594.662" stroke="white" stroke-width="6.10795" stroke-miterlimit="10"/>
<path d="M-651.761 -500.411L434.458 585.808" stroke="white" stroke-width="6.10795" stroke-miterlimit="10"/>
<path d="M-618.118 -509.266L468.101 576.953" stroke="white" stroke-width="6.10795" stroke-miterlimit="10"/>
<path d="M-584.475 -518.118L501.744 568.102" stroke="white" stroke-width="6.10795" stroke-miterlimit="10"/>
<path d="M-550.832 -526.972L535.388 559.247" stroke="white" stroke-width="6.10795" stroke-miterlimit="10"/>
<path d="M-517.189 -535.826L569.031 550.393" stroke="white" stroke-width="6.10795" stroke-miterlimit="10"/>
<path d="M-483.545 -544.679L602.674 541.54" stroke="white" stroke-width="6.10795" stroke-miterlimit="10"/>
<path d="M-449.9 -553.534L636.319 532.685" stroke="white" stroke-width="6.10795" stroke-miterlimit="10"/>
<path d="M-416.257 -562.389L669.962 523.83" stroke="white" stroke-width="6.10795" stroke-miterlimit="10"/>
<path d="M-382.614 -571.241L703.606 514.978" stroke="white" stroke-width="6.10795" stroke-miterlimit="10"/>
<path d="M-348.971 -580.095L737.248 506.124" stroke="white" stroke-width="6.10795" stroke-miterlimit="10"/>
<path d="M-315.327 -588.949L770.892 497.27" stroke="white" stroke-width="6.10795" stroke-miterlimit="10"/>
<path d="M-281.684 -597.802L804.535 488.417" stroke="white" stroke-width="6.10795" stroke-miterlimit="10"/>
<path d="M-248.039 -606.656L838.18 479.563" stroke="white" stroke-width="6.10795" stroke-miterlimit="10"/>
<path d="M-214.396 -615.51L871.823 470.709" stroke="white" stroke-width="6.10795" stroke-miterlimit="10"/>
<path d="M-180.753 -624.364L905.466 461.855" stroke="white" stroke-width="6.10795" stroke-miterlimit="10"/>
<path d="M-147.109 -633.216L939.11 453.003" stroke="white" stroke-width="6.10795" stroke-miterlimit="10"/>
<path d="M-113.466 -642.069L972.753 444.15" stroke="white" stroke-width="6.10795" stroke-miterlimit="10"/>
<path d="M-79.8229 -650.923L1006.4 435.296" stroke="white" stroke-width="6.10795" stroke-miterlimit="10"/>
</g>
</svg>
