<svg width="29" height="31" viewBox="0 0 29 31" fill="none" xmlns="http://www.w3.org/2000/svg">
<path fill-rule="evenodd" clip-rule="evenodd" d="M9.04317 1.28617C9.99661 1.78688 10.7479 2.77578 11.3475 3.70776L11.3504 3.7122L12.0629 4.8316C12.0631 4.83193 12.0633 4.83225 12.0635 4.83257C12.6752 5.79011 13.2407 6.87754 13.3676 7.99562C13.5056 9.2112 13.1143 10.3743 12.0205 11.3271L11.0256 12.1942C10.8922 12.3089 10.7204 12.4233 10.6087 12.4977C10.5918 12.5089 10.5762 12.5193 10.5624 12.5286C10.4256 12.6206 10.3121 12.7005 10.21 12.7886C10.0172 12.955 9.90523 13.1155 9.86216 13.3281C9.81608 13.5556 9.81683 14.0056 10.1829 14.8039C10.5507 15.6058 11.2561 16.6893 12.5124 18.133C13.769 19.5786 14.7453 20.4289 15.4889 20.9051C16.2292 21.3792 16.675 21.4428 16.9068 21.4289C17.1233 21.4159 17.2978 21.3275 17.4901 21.1595C17.592 21.0705 17.6873 20.9693 17.7985 20.8461C17.8093 20.8341 17.8213 20.8207 17.8343 20.8062C17.924 20.706 18.0624 20.5514 18.1972 20.4341C18.1977 20.4336 18.1983 20.4331 18.1989 20.4326L19.1847 19.5699C20.2829 18.6204 21.4896 18.3952 22.6745 18.7012C23.7647 18.9827 24.763 19.6944 25.6261 20.4326L25.6286 20.4347L26.6303 21.2966C26.6305 21.2967 26.6301 21.2964 26.6303 21.2966C27.4738 22.0192 28.3505 22.9007 28.7145 23.9143C28.91 24.4586 28.9661 25.0624 28.7778 25.6826C28.5933 26.29 28.2047 26.8129 27.686 27.264C27.6857 27.2643 27.6853 27.2646 27.685 27.2649L26.8284 28.0117C26.069 28.7855 23.8275 30.7206 20.1722 30.7601C20.1722 30.7601 20.1722 30.7601 20.1722 30.7601C15.7234 30.8084 11.2526 28.0406 6.8947 23.021C6.8945 23.0208 6.8949 23.0213 6.8947 23.021C2.53193 18.0041 0.411482 13.1947 1.07587 8.79869C1.62163 5.17899 3.84931 3.23388 4.72391 2.58743L5.57986 1.83952C6.10008 1.38821 6.67288 1.07619 7.30063 0.978039C7.94106 0.877907 8.53116 1.01728 9.04317 1.28617ZM7.02012 3.4969C7.01966 3.4973 7.0192 3.49769 7.01874 3.49809L6.09691 4.30358L6.0576 4.33222C5.44862 4.77586 3.67789 6.26768 3.24707 9.12595C2.72606 12.5722 4.34566 16.7437 8.55157 21.5802C12.7515 26.4181 16.6602 28.6024 20.1484 28.5645C23.0337 28.5334 24.7636 26.9879 25.2846 26.4498L25.3169 26.4164L26.2445 25.6077C26.545 25.3465 26.6435 25.154 26.6768 25.0444C26.7064 24.9471 26.7109 24.8316 26.648 24.6564C26.4953 24.2311 26.0276 23.6716 25.2018 22.9641L24.199 22.1013C24.1986 22.101 24.1982 22.1006 24.1978 22.1003C23.393 21.412 22.7107 20.9783 22.1255 20.8272C21.6352 20.7006 21.1719 20.7553 20.623 21.2289C20.6223 21.2296 20.6215 21.2302 20.6208 21.2309L19.6417 22.0877L19.6384 22.0906C19.6388 22.0902 19.6382 22.0908 19.6364 22.0925C19.634 22.0946 19.6298 22.0986 19.6235 22.105C19.6124 22.116 19.5978 22.131 19.5785 22.1517C19.5481 22.1844 19.518 22.2178 19.4792 22.2609C19.4638 22.2781 19.447 22.2967 19.4283 22.3175C19.3082 22.4505 19.1404 22.6335 18.9346 22.8132C18.5117 23.1826 17.8931 23.5695 17.0379 23.6207C16.1981 23.671 15.2937 23.3875 14.3048 22.7542C13.3192 22.123 12.1869 21.1053 10.8556 19.5739C9.52476 18.0445 8.67474 16.7826 8.18706 15.7192C7.69768 14.6521 7.54308 13.7169 7.71014 12.8922C7.88022 12.0525 8.34986 11.4936 8.77551 11.1263C8.98266 10.9476 9.18767 10.807 9.33705 10.7066C9.36239 10.6895 9.3849 10.6745 9.40544 10.6607C9.45149 10.6299 9.48764 10.6057 9.52364 10.5807C9.5471 10.5644 9.56432 10.552 9.5771 10.5424C9.58665 10.5353 9.59181 10.5311 9.59363 10.5296L10.5781 9.67165C11.1238 9.19632 11.243 8.74632 11.1859 8.24328C11.1178 7.64312 10.783 6.90666 10.2126 6.01378L10.2116 6.01222L9.49952 4.89357C8.91191 3.98051 8.4231 3.44063 8.02228 3.23013C7.85701 3.14333 7.74132 3.13154 7.63982 3.14741C7.52582 3.16523 7.321 3.23619 7.02012 3.4969Z" fill="white"/>
</svg>
