<svg width="49" height="63" viewBox="0 0 49 63" fill="none" xmlns="http://www.w3.org/2000/svg">
<path d="M24.3183 33.6117C29.3337 33.6117 33.346 29.5993 33.346 24.5839C33.346 19.5685 29.3337 15.5562 24.3183 15.5562C19.3029 15.5562 15.2905 19.5685 15.2905 24.5839C15.2905 29.5993 19.3029 33.6117 24.3183 33.6117Z" stroke="#FFD166" stroke-width="4" stroke-linecap="round" stroke-linejoin="round"/>
<path d="M46.6372 24.8338C46.6372 44.8954 24.3186 60.4432 24.3186 60.4432C24.3186 60.4432 2 44.8954 2 24.8338C2 18.8153 4.25694 13.2983 8.52004 9.03519C12.7831 4.77209 18.3001 2.51514 24.3186 2.51514C30.3371 2.51514 35.8541 4.77209 40.1172 9.03519C44.3803 13.0475 46.6372 18.8153 46.6372 24.8338Z" stroke="#FFD166" stroke-width="4" stroke-linecap="round" stroke-linejoin="round"/>
</svg>
