<svg width="29" height="31" viewBox="0 0 29 31" fill="none" xmlns="http://www.w3.org/2000/svg">
<path fill-rule="evenodd" clip-rule="evenodd" d="M8.96212 0.933143C9.91556 1.43385 10.6669 2.42275 11.2665 3.35473L11.2693 3.35917L11.9818 4.47858C11.982 4.4789 11.9822 4.47922 11.9825 4.47955C12.5941 5.43708 13.1596 6.52452 13.2865 7.64259C13.4245 8.85817 13.0332 10.0213 11.9395 10.9741L10.9445 11.8412C10.8111 11.9558 10.6393 12.0702 10.5276 12.1446C10.5107 12.1559 10.4952 12.1662 10.4814 12.1755C10.3445 12.2676 10.2311 12.3475 10.129 12.4356C9.93616 12.602 9.82417 12.7625 9.78111 12.9751C9.73502 13.2026 9.73577 13.6526 10.1019 14.4509C10.4696 15.2527 11.1751 16.3363 12.4313 17.7799C13.688 19.2255 14.6643 20.0759 15.4079 20.5521C16.1482 21.0262 16.5939 21.0897 16.8257 21.0759C17.0422 21.0629 17.2168 20.9745 17.4091 20.8065C17.511 20.7175 17.6063 20.6162 17.7174 20.4931C17.7282 20.4811 17.7402 20.4677 17.7532 20.4532C17.8429 20.353 17.9814 20.1983 18.1161 20.0811C18.1167 20.0806 18.1173 20.0801 18.1178 20.0796L19.1036 19.2168C20.2018 18.2673 21.4085 18.0422 22.5934 18.3482C23.6837 18.6297 24.682 19.3414 25.5451 20.0796L25.5475 20.0817L26.5492 20.9435C26.5494 20.9437 26.549 20.9433 26.5492 20.9435C27.3927 21.6662 28.2695 22.5476 28.6335 23.5612C28.8289 24.1056 28.8851 24.7094 28.6967 25.3295C28.5122 25.937 28.1237 26.4599 27.605 26.911C27.6046 26.9113 27.6043 26.9116 27.6039 26.9119L26.7473 27.6587C25.9879 28.4324 23.7464 30.3676 20.0911 30.407C20.0911 30.407 20.0912 30.407 20.0911 30.407C15.6424 30.4553 11.1715 27.6876 6.81364 22.668C6.81344 22.6678 6.81385 22.6682 6.81364 22.668C2.45088 17.6511 0.330427 12.8417 0.994817 8.44567C1.54057 4.82597 3.76826 2.88085 4.64286 2.23441L5.49881 1.48649C6.01903 1.03518 6.59182 0.723164 7.21958 0.625012C7.86 0.524879 8.4501 0.66425 8.96212 0.933143ZM6.93906 3.14387C6.9386 3.14427 6.93814 3.14467 6.93769 3.14506L6.01586 3.95055L5.97654 3.97919C5.36756 4.42283 3.59683 5.91465 3.16602 8.77292C2.64501 12.2191 4.2646 16.3906 8.47051 21.2272C12.6705 26.0651 16.5791 28.2493 20.0674 28.2114C22.9526 28.1803 24.6826 26.6348 25.2036 26.0967L25.2359 26.0634L26.1635 25.2546C26.464 24.9935 26.5625 24.801 26.5958 24.6914C26.6253 24.594 26.6299 24.4786 26.5669 24.3033C26.4142 23.878 25.9466 23.3185 25.1207 22.611L24.1179 21.7483C24.1175 21.7479 24.1172 21.7476 24.1168 21.7473C23.3119 21.059 22.6296 20.6253 22.0444 20.4741C21.5542 20.3475 21.0908 20.4023 20.542 20.8759C20.5412 20.8765 20.5405 20.8772 20.5397 20.8778L19.5606 21.7347L19.5574 21.7375C19.5578 21.7372 19.5571 21.7378 19.5553 21.7394C19.553 21.7416 19.5488 21.7456 19.5424 21.7519C19.5313 21.763 19.5168 21.778 19.4975 21.7987C19.4671 21.8313 19.437 21.8648 19.3982 21.9079C19.3828 21.925 19.366 21.9437 19.3472 21.9645C19.2272 22.0974 19.0593 22.2804 18.8536 22.4601C18.4306 22.8296 17.812 23.2165 16.9569 23.2677C16.117 23.3179 15.2127 23.0344 14.2238 22.4012C13.2382 21.77 12.1058 20.7523 10.7746 19.2209C9.44371 17.6915 8.59369 16.4296 8.106 15.3662C7.61662 14.299 7.46203 13.3639 7.62909 12.5391C7.79917 11.6995 8.26881 11.1406 8.69445 10.7733C8.9016 10.5945 9.10662 10.454 9.25599 10.3535C9.28133 10.3365 9.30384 10.3214 9.32439 10.3077C9.37043 10.2769 9.40658 10.2527 9.44258 10.2277C9.46605 10.2114 9.48326 10.199 9.49605 10.1894C9.50559 10.1822 9.51075 10.1781 9.51257 10.1766L10.4971 9.31862C11.0427 8.84329 11.1619 8.39329 11.1048 7.89025C11.0367 7.29009 10.702 6.55363 10.1315 5.66075L10.1305 5.65919L9.41846 4.54054C8.83086 3.62748 8.34205 3.0876 7.94122 2.8771C7.77595 2.79031 7.66027 2.77851 7.55877 2.79438C7.44477 2.8122 7.23994 2.88317 6.93906 3.14387Z" fill="#FFD166"/>
</svg>
