<svg width="31" height="31" viewBox="0 0 31 31" fill="none" xmlns="http://www.w3.org/2000/svg">
<g clip-path="url(#clip0_2_1013)">
<path d="M24.425 25.5501V4.7001C24.425 2.63186 22.7432 0.950098 20.675 0.950098H5.07498C3.00673 0.950098 1.32498 2.63186 1.32498 4.7001C1.32498 6.51121 2.61625 8.02162 4.32498 8.37067V26.3001C4.32498 28.3683 6.00673 30.0501 8.07498 30.0501H26.675C28.7432 30.0501 30.425 28.3683 30.425 26.3001V25.7001C30.425 25.6173 30.3578 25.5501 30.275 25.5501H24.425ZM22.925 26.3001C22.9252 27.1152 23.1923 27.9047 23.6804 28.5501H8.07498C6.83422 28.5501 5.82498 27.5409 5.82498 26.3001V8.4501H20.675C20.7578 8.4501 20.825 8.38294 20.825 8.3001V7.1001C20.825 7.01726 20.7578 6.9501 20.675 6.9501C19.4342 6.9501 18.425 5.94086 18.425 4.7001C18.425 3.45934 19.4342 2.4501 20.675 2.4501C21.9157 2.4501 22.925 3.45934 22.925 4.7001V26.3001V26.3001ZM24.5536 27.0501H28.7963C28.4872 27.923 27.6522 28.5501 26.675 28.5501C25.6977 28.5501 24.8628 27.923 24.5536 27.0501ZM2.82498 4.7001C2.82498 3.45934 3.83422 2.4501 5.07498 2.4501H17.6813C17.2082 3.0768 16.925 3.85478 16.925 4.7001C16.925 5.54542 17.2082 6.3234 17.6813 6.9501H5.07498C3.83422 6.9501 2.82498 5.94086 2.82498 4.7001Z" fill="#FFD166" stroke="#FFD166" stroke-width="0.3" stroke-linejoin="round"/>
<path d="M8.07501 10.55C7.99217 10.55 7.92501 10.6171 7.92501 10.7V11.9C7.92501 11.9828 7.99217 12.05 8.07501 12.05H10.475C10.5579 12.05 10.625 11.9828 10.625 11.9V10.7C10.625 10.6171 10.5579 10.55 10.475 10.55H8.07501ZM12.275 10.55C12.1922 10.55 12.125 10.6171 12.125 10.7V11.9C12.125 11.9828 12.1922 12.05 12.275 12.05H20.675C20.7579 12.05 20.825 11.9828 20.825 11.9V10.7C20.825 10.6171 20.7579 10.55 20.675 10.55H12.275ZM8.07501 13.55C7.99217 13.55 7.92501 13.6171 7.92501 13.7V14.9C7.92501 14.9828 7.99217 15.05 8.07501 15.05H10.475C10.5579 15.05 10.625 14.9828 10.625 14.9V13.7C10.625 13.6171 10.5579 13.55 10.475 13.55H8.07501ZM12.275 13.55C12.1922 13.55 12.125 13.6171 12.125 13.7V14.9C12.125 14.9828 12.1922 15.05 12.275 15.05H20.675C20.7579 15.05 20.825 14.9828 20.825 14.9V13.7C20.825 13.6171 20.7579 13.55 20.675 13.55H12.275ZM8.07501 16.55C7.99217 16.55 7.92501 16.6171 7.92501 16.7V17.9C7.92501 17.9828 7.99217 18.05 8.07501 18.05H10.475C10.5579 18.05 10.625 17.9828 10.625 17.9V16.7C10.625 16.6171 10.5579 16.55 10.475 16.55H8.07501ZM12.275 16.55C12.1922 16.55 12.125 16.6171 12.125 16.7V17.9C12.125 17.9828 12.1922 18.05 12.275 18.05H20.675C20.7579 18.05 20.825 17.9828 20.825 17.9V16.7C20.825 16.6171 20.7579 16.55 20.675 16.55H12.275ZM8.07501 19.55C7.99217 19.55 7.92501 19.6171 7.92501 19.7V20.9C7.92501 20.9828 7.99217 21.05 8.07501 21.05H10.475C10.5579 21.05 10.625 20.9828 10.625 20.9V19.7C10.625 19.6171 10.5579 19.55 10.475 19.55H8.07501ZM12.275 19.55C12.1922 19.55 12.125 19.6171 12.125 19.7V20.9C12.125 20.9828 12.1922 21.05 12.275 21.05H20.675C20.7579 21.05 20.825 20.9828 20.825 20.9V19.7C20.825 19.6171 20.7579 19.55 20.675 19.55H12.275ZM8.07501 22.55C7.99217 22.55 7.92501 22.6171 7.92501 22.7V23.9C7.92501 23.9828 7.99217 24.05 8.07501 24.05H10.475C10.5579 24.05 10.625 23.9828 10.625 23.9V22.7C10.625 22.6171 10.5579 22.55 10.475 22.55H8.07501ZM12.275 22.55C12.1922 22.55 12.125 22.6171 12.125 22.7V23.9C12.125 23.9828 12.1922 24.05 12.275 24.05H20.675C20.7579 24.05 20.825 23.9828 20.825 23.9V22.7C20.825 22.6171 20.7579 22.55 20.675 22.55H12.275ZM8.07501 25.55C7.99217 25.55 7.92501 25.6171 7.92501 25.7V26.9C7.92501 26.9828 7.99217 27.05 8.07501 27.05H10.475C10.5579 27.05 10.625 26.9828 10.625 26.9V25.7C10.625 25.6171 10.5579 25.55 10.475 25.55H8.07501ZM12.275 25.55C12.1922 25.55 12.125 25.6171 12.125 25.7V26.9C12.125 26.9828 12.1922 27.05 12.275 27.05H20.675C20.7579 27.05 20.825 26.9828 20.825 26.9V25.7C20.825 25.6171 20.7579 25.55 20.675 25.55H12.275Z" fill="#FFD166" stroke="#FFD166" stroke-width="0.3" stroke-linejoin="round"/>
</g>
<defs>
<clipPath id="clip0_2_1013">
<rect width="30" height="30" fill="white" transform="translate(0.875 0.5)"/>
</clipPath>
</defs>
</svg>
