<svg width="36" height="35" viewBox="0 0 36 35" fill="none" xmlns="http://www.w3.org/2000/svg">
<path d="M29.945 16.57C29.6135 16.57 29.2955 16.4383 29.0611 16.2039C28.8267 15.9695 28.695 15.6515 28.695 15.32V11.79C28.695 6.79 24.075 2.79 18.395 2.79C12.715 2.79 8.09497 6.84 8.09497 11.79V15.32C8.09497 15.6515 7.96327 15.9695 7.72885 16.2039C7.49443 16.4383 7.17649 16.57 6.84497 16.57C6.51345 16.57 6.19551 16.4383 5.96109 16.2039C5.72667 15.9695 5.59497 15.6515 5.59497 15.32V11.79C5.59497 5.43 11.345 0.25 18.395 0.25C25.445 0.25 31.195 5.43 31.195 11.79V15.32C31.1963 15.4845 31.1649 15.6477 31.1025 15.7999C31.0402 15.9522 30.9482 16.0905 30.8318 16.2069C30.7155 16.3232 30.5772 16.4152 30.4249 16.4776C30.2726 16.5399 30.1095 16.5713 29.945 16.57V16.57Z" fill="#FFD166"/>
<path d="M26.565 28.33C26.2335 28.33 25.9155 28.1983 25.6811 27.9639C25.4467 27.7295 25.315 27.4115 25.315 27.08V15.21C25.3254 14.8855 25.4617 14.5777 25.695 14.3519C25.9283 14.126 26.2403 13.9998 26.565 14C30.875 14 34.385 17.23 34.385 21.19C34.385 25.15 30.875 28.33 26.565 28.33ZM27.815 16.59V25.7C28.9094 25.5188 29.9089 24.9687 30.6474 24.141C31.386 23.3133 31.8191 22.2579 31.875 21.15C31.8214 20.0404 31.3892 18.9826 30.6504 18.1529C29.9117 17.3232 28.911 16.7716 27.815 16.59ZM10.185 28.33C5.87499 28.33 2.36499 25.11 2.36499 21.15C2.36499 17.19 5.87499 14 10.185 14C10.5165 14 10.8345 14.1317 11.0689 14.3661C11.3033 14.6005 11.435 14.9185 11.435 15.25V27.08C11.435 27.4115 11.3033 27.7295 11.0689 27.9639C10.8345 28.1983 10.5165 28.33 10.185 28.33V28.33ZM8.93499 16.59C7.839 16.7716 6.83829 17.3232 6.09955 18.1529C5.36081 18.9826 4.92863 20.0404 4.87499 21.15C4.93085 22.2579 5.36403 23.3133 6.10258 24.141C6.84113 24.9687 7.8406 25.5188 8.93499 25.7V16.59Z" fill="#FFD166"/>
<path d="M26.155 32.3999H22.015C21.6835 32.3999 21.3656 32.2682 21.1311 32.0338C20.8967 31.7994 20.765 31.4814 20.765 31.1499C20.765 30.8184 20.8967 30.5004 21.1311 30.266C21.3656 30.0316 21.6835 29.8999 22.015 29.8999H26.155C26.8021 29.8999 27.4228 29.6428 27.8804 29.1853C28.3379 28.7277 28.595 28.107 28.595 27.4599V26.9099C28.595 26.5784 28.7267 26.2605 28.9611 26.026C29.1956 25.7916 29.5135 25.6599 29.845 25.6599C30.1765 25.6599 30.4945 25.7916 30.7289 26.026C30.9633 26.2605 31.095 26.5784 31.095 26.9099V27.4599C31.095 28.7701 30.5746 30.0266 29.6481 30.953C28.7217 31.8794 27.4652 32.3999 26.155 32.3999V32.3999Z" fill="#FFD166"/>
<path d="M19.875 34.75H17.405C16.4979 34.75 15.6281 34.3897 14.9867 33.7483C14.3453 33.107 13.985 32.2371 13.985 31.33V31.19C13.9876 30.2847 14.3491 29.4174 14.9902 28.7782C15.6313 28.139 16.4997 27.78 17.405 27.78H19.875C20.7794 27.78 21.6467 28.1393 22.2862 28.7788C22.9257 29.4183 23.285 30.2856 23.285 31.19V31.33C23.285 32.2353 22.926 33.1037 22.2868 33.7448C21.6476 34.3859 20.7803 34.7474 19.875 34.75ZM17.425 30.28C17.1827 30.28 16.9502 30.3756 16.778 30.5459C16.6057 30.7163 16.5076 30.9478 16.505 31.19V31.33C16.505 31.574 16.6019 31.808 16.7744 31.9806C16.947 32.1531 17.181 32.25 17.425 32.25H19.875C20.1172 32.2474 20.3487 32.1493 20.5191 31.9771C20.6894 31.8048 20.785 31.5723 20.785 31.33V31.19C20.785 30.9487 20.6891 30.7172 20.5185 30.5466C20.3478 30.3759 20.1163 30.28 19.875 30.28H17.425Z" fill="#FFD166"/>
</svg>
