<svg width="110" height="100" viewBox="0 0 110 100" fill="none" xmlns="http://www.w3.org/2000/svg">
<path d="M82.4834 75.0464L55.9914 89.9482C55.3826 90.2906 54.6392 90.2906 54.0304 89.9482L27.5384 75.0464V59.8962C27.5384 59.1699 27.1446 58.5006 26.5097 58.1479L22.6604 56.0094C21.3273 55.2688 19.6891 56.2327 19.6891 57.7577V78.4671C19.6891 79.1896 20.0788 79.856 20.7086 80.2102L54.0304 98.9538C54.6392 99.2962 55.3826 99.2962 55.9914 98.9538L89.3132 80.2102C89.943 79.856 90.3327 79.1896 90.3327 78.4671V57.7577C90.3327 56.2327 88.6945 55.2688 87.3614 56.0094L83.5121 58.1479C82.8772 58.5006 82.4834 59.1699 82.4834 59.8962V75.0464Z" fill="#FFD166"/>
<path d="M56.8517 1.26918C55.6972 0.670541 54.3237 0.670542 53.1692 1.26918L2.22417 27.6851C0.897928 28.3728 0.0654297 29.7422 0.0654297 31.2361V33.2537C0.0654297 34.7064 0.853015 36.0448 2.1229 36.7503L53.0679 65.0523C54.276 65.7235 55.7449 65.7235 56.953 65.0523L96.1637 43.2694C98.8298 41.7882 102.106 43.7161 102.106 46.766V57.718C102.106 59.8855 103.863 61.6427 106.031 61.6427C108.198 61.6427 109.956 59.8856 109.956 57.718V31.2361C109.956 29.7422 109.123 28.3728 107.797 27.6851L56.8517 1.26918ZM56.9531 56.0746C55.745 56.7458 54.276 56.7458 53.0678 56.0746L16.8363 35.9452C14.0478 34.396 14.1057 30.366 16.9376 28.8976L53.1692 10.1109C54.3237 9.51228 55.6972 9.51228 56.8517 10.1109L93.0833 28.8976C95.9152 30.366 95.9732 34.396 93.1847 35.9452L56.9531 56.0746Z" fill="#FFD166"/>
</svg>
