<svg width="117" height="117" viewBox="0 0 117 117" fill="none" xmlns="http://www.w3.org/2000/svg">
<path fill-rule="evenodd" clip-rule="evenodd" d="M54.9841 0.728655C45.895 3.22207 41.7211 14.803 47.3458 21.9218C47.6907 22.3583 48.0408 22.8297 48.1238 22.9696C48.2138 23.1213 47.7093 23.5725 46.8708 24.0902C38.8211 29.0587 33.4082 44.3881 38.5883 47.5464C39.7463 48.2525 77.23 48.2525 78.3881 47.5464C83.5688 44.3876 78.1552 29.0587 70.1038 24.0891L68.6981 23.2215L69.4902 22.1426C77.0305 11.8708 67.2106 -2.62552 54.9841 0.728655ZM61.3591 8.00413C65.3897 9.90753 66.3927 15.1374 63.3687 18.4848C59.3344 22.9501 51.8723 20.0295 51.8723 13.9853C51.8723 9.03587 56.8705 5.88464 61.3591 8.00413ZM5.39387 24.0465C3.18005 24.9571 1.72019 26.4499 0.900239 28.641C0.27167 30.3215 0.173938 67.734 0.789128 71.2682C2.16395 79.1677 6.02085 85.1609 13.5145 91.0416C16.7584 93.5874 18.1981 95.2062 19.2861 97.5309C20.5659 100.266 20.6562 100.884 20.7831 107.79C20.9611 117.458 19.0346 116.478 37.8534 116.478C54.2315 116.478 53.3483 116.565 54.4122 114.837C55.1655 113.614 54.9909 79.558 54.2186 77.0387C51.9878 69.763 49.361 67.0088 38.8738 60.9492C29.7704 55.6892 27.048 55.1119 22.0761 57.388L20.8466 57.9508L20.8439 46.0021C20.841 32.8707 20.8419 32.88 19.4355 30.0868C16.919 25.0889 10.0469 22.1326 5.39387 24.0465ZM105.329 23.8465C101.049 25.0594 97.6007 28.546 96.4665 32.8079C96.1959 33.8246 96.1347 36.2462 96.1324 46.0021L96.1297 57.9508L94.9002 57.388C89.9284 55.1119 87.206 55.6892 78.1026 60.9492C67.6153 67.0088 64.9886 69.763 62.7578 77.0387C61.9854 79.558 61.8108 113.614 62.5641 114.837C63.6281 116.565 62.7448 116.478 79.123 116.478C97.9417 116.478 96.0152 117.458 96.1932 107.79C96.3202 100.884 96.4104 100.266 97.6903 97.5309C98.7785 95.2058 100.218 93.5876 103.463 91.0416C109.806 86.0645 112.972 81.8478 115.067 75.5859C116.566 71.1077 116.552 71.3664 116.485 49.238L116.424 29.2913L115.823 28.009C114.136 24.4093 109.638 22.6254 105.329 23.8465ZM61.7761 28.0875C67.3505 29.2684 73.0006 35.5364 73.0006 40.5396V41.196H58.4882H43.9758V40.5718C43.9758 32.8723 53.3449 26.3013 61.7761 28.0875ZM10.8027 31.0319C11.3272 31.2764 12.0798 31.8446 12.475 32.2947C13.9981 34.0296 13.9188 33.0918 14.0467 50.8332C14.1748 68.6077 14.0897 67.5918 15.6503 70.0238C17.3852 72.7276 29.3747 79.9911 31.5078 79.6306C33.3266 79.3233 34.4482 78.0183 34.4504 76.2068C34.4531 74.241 34.0595 73.8798 28.2795 70.5438C22.4122 67.1571 22.4339 67.1723 22.4339 66.4594C22.4339 64.9408 24.9491 63.3216 27.3235 63.3116L28.9253 63.3048L33.2191 65.7723C48.3857 74.4882 48.0574 73.8113 48.0574 96.3486V109.676H37.8756H27.6938L27.5956 104.744C27.409 95.3613 25.3881 91.5262 17.1825 84.9829C11.9083 80.7773 9.23988 76.8199 7.87368 71.1784C7.13218 68.1175 6.94556 31.5145 7.66755 30.7925C8.21109 30.2489 9.30111 30.3321 10.8027 31.0319ZM109.296 30.7793C110.018 31.5013 109.86 67.7741 109.121 71.0292C107.84 76.6696 105.141 80.7029 99.7721 84.9986C91.5681 91.5632 89.5674 95.365 89.3808 104.744L89.2826 109.676H79.1008H68.919V96.3486C68.919 78.0473 69.1879 76.6011 73.3718 72.4088C74.7949 70.9832 75.7323 70.3839 83.7572 65.7723L88.0511 63.3048L89.6529 63.3116C92.0273 63.3216 94.5424 64.9408 94.5424 66.4594C94.5424 67.1723 94.5642 67.1571 88.6969 70.5438C82.3794 74.19 81.3325 75.5514 82.9547 78.012C84.6658 80.6072 85.5951 80.4292 93.1744 76.0528C103.477 70.1041 102.932 71.4925 102.932 51.184C102.932 31.5233 103.033 31.1584 108.658 30.3367C108.752 30.3229 109.039 30.5222 109.296 30.7793Z" fill="#FFD166"/>
</svg>
