<svg width="42" height="51" viewBox="0 0 42 51" fill="none" xmlns="http://www.w3.org/2000/svg">
<path d="M33.0808 0.721299C33.0333 0.667045 32.9647 0.635925 32.8926 0.635925H16.226C13.6323 0.635925 11.5315 2.73674 11.5315 5.33037V8.6637C11.5315 9.41289 12.1435 10.0248 12.8926 10.0248C13.6418 10.0248 14.2537 9.41289 14.2537 8.6637V5.33037C14.2537 4.24622 15.1418 3.35815 16.226 3.35815H29.3093V9.77481C29.3093 11.1351 30.4212 12.247 31.7815 12.247H38.1982V34.2193C38.1982 35.3034 37.3101 36.1915 36.226 36.1915H32.8926C32.1435 36.1915 31.5315 36.8034 31.5315 37.5526C31.5315 38.3018 32.1435 38.9137 32.8926 38.9137H36.226C38.8196 38.9137 40.9204 36.8129 40.9204 34.2193V9.77481C40.9204 9.71426 40.8984 9.65576 40.8586 9.61019L33.0808 0.721299ZM29.8093 20.8859C29.8093 20.8254 29.7873 20.7669 29.7474 20.7213L21.9697 11.8324C21.9222 11.7782 21.8536 11.747 21.7815 11.747H5.11485C2.52123 11.747 0.42041 13.8479 0.42041 16.4415V45.3304C0.42041 47.924 2.52123 50.0248 5.11485 50.0248H25.1149C27.7085 50.0248 29.8093 47.924 29.8093 45.3304V20.8859ZM21.7815 33.9693H8.44819C7.69901 33.9693 7.08708 34.5812 7.08708 35.3304C7.08708 36.0796 7.69901 36.6915 8.44819 36.6915H21.7815C22.5307 36.6915 23.1426 36.0796 23.1426 35.3304C23.1426 34.5812 22.5307 33.9693 21.7815 33.9693ZM8.44819 40.6359C7.69901 40.6359 7.08708 41.2479 7.08708 41.997C7.08708 42.7462 7.69901 43.3582 8.44819 43.3582H17.3371C18.0863 43.3582 18.6982 42.7462 18.6982 41.997C18.6982 41.2479 18.0863 40.6359 17.3371 40.6359H8.44819ZM8.44819 23.3581H12.8926C13.6418 23.3581 14.2537 22.7462 14.2537 21.997C14.2537 21.2479 13.6418 20.6359 12.8926 20.6359H8.44819C7.69901 20.6359 7.08708 21.2479 7.08708 21.997C7.08708 22.7462 7.69901 23.3581 8.44819 23.3581ZM7.08708 28.6637C7.08708 29.4129 7.69901 30.0248 8.44819 30.0248H21.7815C22.5307 30.0248 23.1426 29.4129 23.1426 28.6637C23.1426 27.9145 22.5307 27.3026 21.7815 27.3026H8.44819C7.69901 27.3026 7.08708 27.9145 7.08708 28.6637ZM32.0315 9.52481V3.93142L37.013 9.52481H32.0315ZM27.0871 45.3304C27.0871 46.4248 26.1998 47.3026 25.1149 47.3026H5.11485C4.02989 47.3026 3.14263 46.4248 3.14263 45.3304V16.4415C3.14263 15.3573 4.0307 14.4693 5.11485 14.4693H18.1982V20.8859C18.1982 22.2462 19.3101 23.3581 20.6704 23.3581H27.0871V45.3304ZM20.9204 20.6359V15.0425L25.9019 20.6359H20.9204Z" fill="#073B4C" stroke="#073B4C" stroke-width="0.5" stroke-linejoin="round"/>
</svg>
