<svg width="42" height="51" viewBox="0 0 42 51" fill="none" xmlns="http://www.w3.org/2000/svg">
<path d="M8.55659 25.8767H21.8899C22.6391 25.8767 23.251 25.2647 23.251 24.5156C23.251 23.7664 22.6391 23.1544 21.8899 23.1544H8.55659C7.8074 23.1544 7.19548 23.7664 7.19548 24.5156C7.19548 25.2647 7.8074 25.8767 8.55659 25.8767ZM8.55659 32.5433H33.001C33.7502 32.5433 34.3621 31.9314 34.3621 31.1822C34.3621 30.433 33.7502 29.8211 33.001 29.8211H8.55659C7.8074 29.8211 7.19548 30.433 7.19548 31.1822C7.19548 31.9314 7.8074 32.5433 8.55659 32.5433ZM28.5566 39.21C29.3058 39.21 29.9177 38.5981 29.9177 37.8489C29.9177 37.0997 29.3058 36.4878 28.5566 36.4878H8.55659C7.8074 36.4878 7.19548 37.0997 7.19548 37.8489C7.19548 38.5981 7.8074 39.21 8.55659 39.21H28.5566ZM38.5566 7.59889H29.9177V5.62667C29.9177 4.26637 28.8058 3.15444 27.4455 3.15444H23.2384C23.1122 1.91052 22.0547 0.93222 20.7788 0.93222C19.5029 0.93222 18.4455 1.91052 18.3192 3.15444H14.1121C12.7518 3.15444 11.6399 4.26637 11.6399 5.62667V7.59889H3.00103C1.64074 7.59889 0.528809 8.71082 0.528809 10.0711V47.8489C0.528809 49.2092 1.64074 50.3211 3.00103 50.3211H38.5566C39.9169 50.3211 41.0288 49.2092 41.0288 47.8489V10.0711C41.0288 8.71082 39.9169 7.59889 38.5566 7.59889ZM14.3621 5.87667H27.1955V9.82111H14.3621V5.87667ZM3.25103 47.5989V16.9878H38.3066V47.5989H3.25103ZM38.3066 14.2656H3.25103V10.3211H11.6525C11.7788 11.565 12.8362 12.5433 14.1121 12.5433H27.4455C28.7214 12.5433 29.7788 11.565 29.9051 10.3211H38.3066V14.2656Z" fill="#073B4C" stroke="#073B4C" stroke-width="0.5" stroke-linejoin="round"/>
</svg>
