<svg width="42" height="50" viewBox="0 0 42 50" fill="none" xmlns="http://www.w3.org/2000/svg">
<path d="M19.0214 12.3876C19.0214 12.2495 18.9095 12.1376 18.7714 12.1376H16.5492C16.4111 12.1376 16.2992 12.2495 16.2992 12.3876V23.2967C16.2992 23.4348 16.4111 23.5467 16.5492 23.5467H18.7714C18.9095 23.5467 19.0214 23.4348 19.0214 23.2967V12.3876ZM7.91032 12.3876C7.91032 12.2495 7.79839 12.1376 7.66032 12.1376H5.4381C5.30003 12.1376 5.1881 12.2495 5.1881 12.3876V23.2967C5.1881 23.4348 5.30003 23.5467 5.4381 23.5467H7.66032C7.79839 23.5467 7.91032 23.4348 7.91032 23.2967V12.3876ZM14.577 12.3876C14.577 12.2495 14.4651 12.1376 14.327 12.1376H9.88254C9.74447 12.1376 9.63254 12.2495 9.63254 12.3876V23.2967C9.63254 23.4348 9.74447 23.5467 9.88254 23.5467H14.327C14.4651 23.5467 14.577 23.4348 14.577 23.2967V12.3876ZM27.9103 12.3876C27.9103 12.2495 27.7984 12.1376 27.6603 12.1376H25.4381C25.3 12.1376 25.1881 12.2495 25.1881 12.3876V23.2967C25.1881 23.4348 25.3 23.5467 25.4381 23.5467H27.6603C27.7984 23.5467 27.9103 23.4348 27.9103 23.2967V12.3876ZM23.4659 12.3876C23.4659 12.2495 23.3539 12.1376 23.2159 12.1376H20.9937C20.8556 12.1376 20.7437 12.2495 20.7437 12.3876V23.2967C20.7437 23.4348 20.8556 23.5467 20.9937 23.5467H23.2159C23.3539 23.5467 23.4659 23.4348 23.4659 23.2967V12.3876ZM21.2437 36.3876C21.2437 36.2495 21.1317 36.1376 20.9937 36.1376H5.4381C5.30003 36.1376 5.1881 36.2495 5.1881 36.3876V38.5694C5.1881 38.7075 5.30003 38.8194 5.4381 38.8194H20.9937C21.1317 38.8194 21.2437 38.7075 21.2437 38.5694V36.3876ZM9.63254 5.84215C9.63254 5.98022 9.74447 6.09215 9.88254 6.09215H12.1048C12.2428 6.09215 12.3548 5.98022 12.3548 5.84215V3.91033H38.5214V39.07L35.2831 36.5283C35.0359 36.2791 34.6979 36.1376 34.327 36.1376C34.1889 36.1376 34.077 36.2495 34.077 36.3876V39.0167C34.077 39.1174 34.1374 39.2083 34.2303 39.2472C34.2915 39.2729 34.359 39.2727 34.4184 39.2494L38.9264 42.7923C39.1736 43.0416 39.5116 43.1831 39.8825 43.1831C40.6274 43.1831 41.2437 42.5845 41.2437 41.8422V2.56942C41.2437 1.82705 40.6274 1.22852 39.8825 1.22852H10.9937C10.2488 1.22852 9.63254 1.82705 9.63254 2.56942V5.84215ZM16.7992 27.6603C16.7992 27.5223 16.6873 27.4103 16.5492 27.4103H5.4381C5.30003 27.4103 5.1881 27.5223 5.1881 27.6603V29.8422C5.1881 29.9802 5.30003 30.0922 5.4381 30.0922H16.5492C16.6873 30.0922 16.7992 29.9802 16.7992 29.8422V27.6603ZM13.0688 49.3405L13.0691 49.3403L16.5495 45.9128L20.0274 49.3274C20.2754 49.5831 20.6176 49.7285 20.9937 49.7285C21.3703 49.7285 21.711 49.5828 21.9577 49.3405L25.5453 45.8182L30.04 49.3506C30.2858 49.5868 30.6222 49.7285 30.9937 49.7285C31.7385 49.7285 32.3548 49.13 32.3548 48.3876V9.11488C32.3548 8.3725 31.7385 7.77397 30.9937 7.77397H2.10476C1.35993 7.77397 0.743652 8.3725 0.743652 9.11488V48.3876C0.743652 49.13 1.35993 49.7285 2.10476 49.7285C2.47619 49.7285 2.81258 49.5868 3.0584 49.3506L7.55311 45.8182L11.1407 49.3405C11.3874 49.5828 11.7281 49.7285 12.1048 49.7285C12.4815 49.7285 12.8221 49.5828 13.0688 49.3405ZM24.4741 43.071L24.4738 43.0713L20.9934 46.4988L17.5155 43.0841C17.2674 42.8285 16.9252 42.6831 16.5492 42.6831C16.1725 42.6831 15.8319 42.8288 15.5852 43.071L15.5849 43.0713L12.1045 46.4988L8.62663 43.0842C8.37857 42.8285 8.03636 42.6831 7.66032 42.6831C7.28883 42.6831 6.9524 42.8248 6.70657 43.061L3.46587 45.6142V10.4558H29.6325V45.6154L26.3942 43.0738C26.147 42.8245 25.809 42.6831 25.4381 42.6831C25.0614 42.6831 24.7208 42.8288 24.4741 43.071ZM27.9103 32.024C27.9103 31.8859 27.7984 31.774 27.6603 31.774H5.4381C5.30003 31.774 5.1881 31.8859 5.1881 32.024V34.2058C5.1881 34.3439 5.30003 34.4558 5.4381 34.4558H27.6603C27.7984 34.4558 27.9103 34.3439 27.9103 34.2058V32.024Z" fill="#073B4C" stroke="#073B4C" stroke-width="0.5" stroke-linejoin="round"/>
</svg>
