<svg width="42" height="42" viewBox="0 0 42 42" fill="none" xmlns="http://www.w3.org/2000/svg">
<path d="M39.3803 0.626865L1.275 16.9681C1.25656 16.9725 1.23862 16.979 1.22155 16.9876L1.18518 17.0058C1.16612 17.0153 1.14863 17.0271 1.13299 17.0407C0.779132 17.2284 0.528809 17.6066 0.528809 18.0475C0.528809 18.5424 0.846986 18.9479 1.27199 19.1112C1.2915 19.1277 1.31374 19.1414 1.33819 19.1514L16.26 25.2936L22.4022 40.2154C22.4122 40.2399 22.4259 40.2621 22.4424 40.2816C22.6057 40.7066 23.0112 41.0248 23.5061 41.0248C23.9484 41.0248 24.3239 40.7737 24.5186 40.4246C24.5336 40.4079 24.5466 40.3891 24.557 40.3684L24.5751 40.3321C24.5837 40.315 24.5902 40.297 24.5946 40.2786L40.9177 2.17325C40.9245 2.15738 40.9296 2.14102 40.9329 2.12444C40.9942 1.9885 41.0288 1.83726 41.0288 1.6839C41.0288 1.04583 40.5078 0.524811 39.8697 0.524811C39.7183 0.524811 39.5721 0.558546 39.4433 0.609157C39.4219 0.612231 39.4007 0.618117 39.3803 0.626865ZM9.78286 27.9607L10.6919 27.0516C10.9019 26.8416 11.0288 26.551 11.0288 26.2294C11.0288 25.5913 10.5078 25.0703 9.86972 25.0703C9.54811 25.0703 9.25747 25.1971 9.04749 25.4071L8.1384 26.3162C7.92841 26.5262 7.80154 26.8168 7.80154 27.1384C7.80154 27.7765 8.32256 28.2975 8.96063 28.2975C9.28223 28.2975 9.57287 28.1707 9.78286 27.9607ZM15.5743 27.1384C15.5743 26.5004 15.0532 25.9794 14.4152 25.9794C14.0936 25.9794 13.8029 26.1062 13.5929 26.3162L4.50203 35.4071C4.29205 35.6171 4.16517 35.9078 4.16517 36.2294C4.16517 36.8674 4.68619 37.3884 5.32426 37.3884C5.64586 37.3884 5.93651 37.2616 6.1465 37.0516L15.2374 27.9607C15.4474 27.7507 15.5743 27.4601 15.5743 27.1384ZM15.3243 30.5248C15.0027 30.5248 14.712 30.6517 14.502 30.8617L11.7748 33.5889C11.5648 33.7989 11.4379 34.0896 11.4379 34.4112C11.4379 35.0492 11.9589 35.5703 12.597 35.5703C12.9186 35.5703 13.2092 35.4434 13.4192 35.2334L16.1465 32.5061C16.3565 32.2961 16.4834 32.0055 16.4834 31.6839C16.4834 31.0458 15.9623 30.5248 15.3243 30.5248ZM4.66937 18.0249L34.7941 5.11555L16.8654 23.0528L4.66937 18.0249ZM18.5098 24.6883L36.4377 6.76034L23.5289 36.8838L18.5098 24.6883Z" fill="#073B4C" stroke="#073B4C" stroke-width="0.5" stroke-linejoin="round"/>
</svg>
