<svg width="42" height="42" viewBox="0 0 42 42" fill="none" xmlns="http://www.w3.org/2000/svg">
<path d="M24.4836 1.30174C24.4367 1.25485 24.3731 1.22852 24.3068 1.22852H7.94314C6.80507 1.22852 5.87496 2.15863 5.87496 3.2967V12.1376H2.48859C1.35052 12.1376 0.42041 13.0677 0.42041 14.2058V17.8422C0.42041 18.9901 1.35134 19.9103 2.48859 19.9103H4.05677V39.6603C4.05677 40.7984 4.98688 41.7285 6.12496 41.7285H35.2159C36.3539 41.7285 37.284 40.7984 37.284 39.6603V19.9103H38.8522C39.9895 19.9103 40.9204 18.9901 40.9204 17.8422V14.2058C40.9204 13.0677 39.9903 12.1376 38.8522 12.1376H35.4659V5.11488C35.4659 3.97681 34.5358 3.0467 33.3977 3.0467H26.2285L24.4836 1.30174ZM29.9381 6.75628L28.5467 5.36488H33.1477V12.1376H30.0113V6.93306C30.0113 6.86676 29.985 6.80317 29.9381 6.75628ZM15.2159 29.0012H26.125C27.263 29.0012 28.1931 28.0711 28.1931 26.9331V25.1149C28.1931 23.9768 27.263 23.0467 26.125 23.0467H15.2159C14.0786 23.0467 13.1477 23.9669 13.1477 25.1149V26.9331C13.1477 28.0711 14.0778 29.0012 15.2159 29.0012ZM15.4659 25.3649H25.875V26.6831H15.4659V25.3649ZM24.5568 4.80934L26.4305 6.68306H24.5568V4.80934ZM8.19314 3.5467H22.2386V7.84215C22.2386 8.48022 22.7596 9.00124 23.3977 9.00124H27.6931V12.1376H8.19314V3.5467ZM34.9659 39.4103H6.37496V19.9103H34.9659V39.4103ZM38.6022 17.5922H2.73859V14.4558H38.6022V17.5922Z" fill="#073B4C" stroke="#073B4C" stroke-width="0.5" stroke-linejoin="round"/>
</svg>
