<svg width="42" height="42" viewBox="0 0 42 42" fill="none" xmlns="http://www.w3.org/2000/svg">
<path d="M9.17547 6.25582C7.52831 6.25582 6.1982 7.58593 6.1982 9.23309C6.1982 10.8802 7.52831 12.2104 9.17547 12.2104C10.8226 12.2104 12.1527 10.8802 12.1527 9.23309C12.1527 7.58593 10.8226 6.25582 9.17547 6.25582ZM9.17547 9.89218C8.81354 9.89218 8.51638 9.59502 8.51638 9.23309C8.51638 8.87116 8.81354 8.574 9.17547 8.574C9.5374 8.574 9.83456 8.87116 9.83456 9.23309C9.83456 9.59502 9.5374 9.89218 9.17547 9.89218ZM22.8118 25.8467C23.1334 25.8467 23.4241 25.7198 23.6341 25.5099L27.2704 21.8735C27.4804 21.6635 27.6073 21.3729 27.6073 21.0513C27.6073 20.4132 27.0863 19.8922 26.4482 19.8922C26.1266 19.8922 25.836 20.0191 25.626 20.229L21.9896 23.8654C21.7796 24.0754 21.6527 24.366 21.6527 24.6876C21.6527 25.3257 22.1738 25.8467 22.8118 25.8467ZM40.9068 21.1381L20.9068 1.13813C20.6968 0.928144 20.4062 0.80127 20.0846 0.80127H3.72093C2.07376 0.80127 0.743652 2.13138 0.743652 3.77854V20.1422C0.743652 20.4638 0.870527 20.7544 1.08051 20.9644L21.0805 40.9644C21.2905 41.1744 21.5811 41.3013 21.9027 41.3013C22.2243 41.3013 22.515 41.1744 22.725 40.9644L40.9068 22.7826C41.1168 22.5726 41.2437 22.282 41.2437 21.9604C41.2437 21.6388 41.1168 21.3481 40.9068 21.1381ZM19.6083 3.11945L38.4492 21.9604L21.9027 38.5068L3.06183 19.6659V3.77854C3.06183 3.41661 3.359 3.11945 3.72093 3.11945H19.6083ZM17.4441 28.4109C17.2342 28.6208 17.1073 28.9115 17.1073 29.2331C17.1073 29.8712 17.6283 30.3922 18.2664 30.3922C18.588 30.3922 18.8786 30.2653 19.0886 30.0553L20.9068 28.2371C21.1168 28.0272 21.2437 27.7365 21.2437 27.4149C21.2437 26.7768 20.7226 26.2558 20.0846 26.2558C19.763 26.2558 19.4723 26.3827 19.2623 26.5927L17.4441 28.4109ZM21.9027 34.0285C22.2243 34.0285 22.515 33.9017 22.725 33.6917L28.1795 28.2371C28.3895 28.0272 28.5164 27.7365 28.5164 27.4149C28.5164 26.7768 27.9954 26.2558 27.3573 26.2558C27.0357 26.2558 26.745 26.3827 26.5351 26.5927L21.0805 32.0472C20.8705 32.2572 20.7437 32.5478 20.7437 32.8695C20.7437 33.5075 21.2647 34.0285 21.9027 34.0285Z" fill="#073B4C" stroke="#073B4C" stroke-width="0.5" stroke-linejoin="round"/>
</svg>
