<svg width="42" height="35" viewBox="0 0 42 35" fill="none" xmlns="http://www.w3.org/2000/svg">
<path d="M4.85729 24.2149C3.19365 24.7967 0.993652 26.024 0.993652 29.6603M4.85729 24.2149C4.85729 24.2149 6.89365 23.7512 6.89365 21.1058C6.89365 18.9136 6.26451 18.0604 5.84957 17.4977C5.82399 17.463 5.79922 17.4294 5.77547 17.3967L0.993652 29.6603M4.85729 24.2149C4.80179 23.9711 4.80165 23.9712 4.80152 23.9712M4.85729 24.2149L5.58138 17.5549M0.993652 29.6603H0.743652C0.743652 27.7867 1.31249 26.5089 2.11659 25.624C2.9151 24.7453 3.92623 24.2757 4.77476 23.9789C4.78332 23.9759 4.79204 23.9734 4.80088 23.9713C4.80095 23.9713 4.80102 23.9713 4.80109 23.9713C4.80123 23.9712 4.80137 23.9712 4.80152 23.9712M0.993652 29.6603C0.743652 29.6603 0.743652 29.6605 0.743652 29.6606L0.743653 29.6609L0.743655 29.6615L0.743664 29.663L0.743713 29.667L0.744013 29.6789C0.744333 29.6885 0.744935 29.7014 0.746063 29.7172C0.748314 29.7487 0.752693 29.7921 0.761258 29.8435C0.778192 29.9451 0.812524 30.0844 0.883682 30.2267C0.955329 30.37 1.06673 30.5209 1.2385 30.6354C1.41184 30.751 1.63172 30.8194 1.90274 30.8194H5.95729C6.06564 30.8194 6.16167 30.7496 6.19509 30.6466C6.40683 29.9937 6.6886 29.4043 7.02201 28.8866C7.07155 28.8097 7.07512 28.7119 7.03131 28.6315C6.98751 28.5512 6.90332 28.5012 6.81183 28.5012H3.17818C3.32951 27.8441 3.61385 27.3835 3.96924 27.0416C4.3776 26.6488 4.89498 26.3981 5.4596 26.199C6.75907 25.8364 8.96183 24.3743 8.96183 21.1149C8.96183 19.6869 8.72984 18.6467 8.42892 17.8731C8.12779 17.0989 7.76132 16.6021 7.51282 16.2662L7.51288 16.2662L7.50917 16.2614L7.45599 16.193M0.993652 29.6603C0.993652 29.6603 0.993652 30.5694 1.90274 30.5694M0.993652 29.6603L1.90274 30.5694M5.58138 17.5549C5.60334 17.585 5.62583 17.6156 5.64873 17.6467C5.84267 17.9099 6.06666 18.214 6.25614 18.6835C6.47047 19.2145 6.64365 19.9682 6.64365 21.1058C6.64365 22.3546 6.16707 23.064 5.71061 23.4644C5.47885 23.6678 5.24701 23.7958 5.07398 23.8726C4.98765 23.911 4.91661 23.9363 4.86849 23.9517C4.84446 23.9594 4.82623 23.9646 4.81477 23.9677L4.80281 23.9709L4.80179 23.9711C4.8017 23.9711 4.80161 23.9712 4.80152 23.9712M5.58138 17.5549L5.57897 17.5522C5.57002 17.542 5.55853 17.5283 5.54507 17.511C5.51812 17.4763 5.48332 17.4269 5.44502 17.3614C5.36831 17.2302 5.27837 17.0356 5.20944 16.7667C5.07462 16.2408 5.02258 15.4405 5.2942 14.2853C5.0633 13.7747 4.72348 13.0223 4.53049 12.1689C4.3272 11.2699 4.28142 10.2374 4.70857 9.23633C5.17003 8.11714 5.56462 7.38308 6.04228 6.84737C6.52185 6.30953 7.0703 5.98813 7.80349 5.66612C8.35471 5.32253 9.63451 4.86488 10.9755 4.86488C11.6016 4.86488 12.2559 4.96903 12.8494 5.23173C12.9113 5.25913 12.9594 5.31045 12.9828 5.37398C13.0062 5.43751 13.0028 5.5078 12.9734 5.56879C12.8549 5.81509 12.7403 6.05317 12.6349 6.31682C12.5134 6.62047 12.4256 6.92676 12.3444 7.2334C12.325 7.30663 12.2735 7.36712 12.2043 7.39788C12.135 7.42865 12.0556 7.42636 11.9883 7.39167C11.7319 7.25962 11.4007 7.18306 10.9755 7.18306C10.536 7.18306 10.0955 7.26447 9.73643 7.36379C9.37477 7.46382 9.1194 7.57529 9.03779 7.62531M5.58138 17.5549L4.80152 23.9712M7.45599 16.193C7.42162 16.0461 7.35953 15.6115 7.5638 14.756M7.45599 16.193C7.46137 16.216 7.46607 16.232 7.46896 16.2414L7.29878 16.2937L7.28254 16.2987L7.23002 16.3149M7.45599 16.193L7.44581 16.1799C7.43827 16.1687 7.4166 16.1381 7.37878 16.1116C7.33145 16.0785 7.27862 16.0649 7.23002 16.0649V16.3149M7.5638 14.756C7.67888 14.2941 7.60463 13.7735 7.42163 13.3668L7.42164 13.3668L7.42072 13.3648C7.23388 12.9592 6.97963 12.4011 6.82916 11.808C6.67775 11.2111 6.64144 10.616 6.85109 10.1216L6.8511 10.1216L6.85198 10.1194C7.25143 9.15259 7.52203 8.66802 7.78604 8.37559C8.04073 8.09347 8.29876 7.97758 8.74865 7.78018L8.74973 7.7797C8.83708 7.74088 8.94062 7.68965 9.03779 7.62531M7.5638 14.756C7.56368 14.7564 7.56357 14.7569 7.56346 14.7573L7.32093 14.6967M7.5638 14.756C7.56389 14.7556 7.56399 14.7552 7.56408 14.7548L7.32093 14.6967M9.03779 7.62531C9.03692 7.62584 9.03607 7.62636 9.03524 7.62688L8.90274 7.41488L9.04142 7.62289C9.04021 7.6237 9.039 7.6245 9.03779 7.62531ZM7.32093 14.6967C7.07547 15.724 7.19365 16.1967 7.23002 16.3149M7.32093 14.6967C7.42093 14.2967 7.35729 13.8331 7.19365 13.4694C6.82093 12.6603 6.13911 11.1603 6.62093 10.024L7.23002 16.3149M7.23002 16.3149C7.23563 16.3149 7.23778 16.3184 7.24075 16.3232C7.24258 16.3261 7.24473 16.3296 7.2482 16.3331L7.23002 16.3149ZM37.1864 23.9713C37.1953 23.9734 37.204 23.9759 37.2125 23.9789C38.0611 24.2757 39.0722 24.7453 39.8707 25.624C40.6748 26.5089 41.2437 27.7867 41.2437 29.6603H40.9937C41.2437 29.6603 41.2437 29.6605 41.2437 29.6606V29.6609L41.2436 29.6615L41.2436 29.663L41.2436 29.667L41.2433 29.6789C41.243 29.6885 41.2424 29.7014 41.2412 29.7172C41.239 29.7487 41.2346 29.7921 41.226 29.8435C41.2091 29.9451 41.1748 30.0844 41.1036 30.2267C41.032 30.37 40.9206 30.5209 40.7488 30.6354C40.5755 30.751 40.3556 30.8194 40.0846 30.8194H36.0391C35.9308 30.8194 35.8347 30.7496 35.8013 30.6466C35.5896 29.9937 35.3078 29.4043 34.9744 28.8866C34.9248 28.8097 34.9213 28.7119 34.9651 28.6315C35.0089 28.5512 35.0931 28.5012 35.1846 28.5012H38.8186C38.6673 27.8402 38.3827 27.3791 38.0272 27.0371C37.6189 26.6444 37.1017 26.3936 36.5361 26.1897C35.2266 25.8266 33.0346 24.3638 33.0346 21.1058C33.0346 19.6778 33.2666 18.6377 33.5675 17.864C33.8686 17.0899 34.2351 16.5931 34.4836 16.2571L34.4872 16.2523L34.4872 16.2523L34.5442 16.179C34.5772 16.0491 34.6418 15.615 34.4326 14.7471C34.3181 14.2875 34.3813 13.7751 34.5759 13.3552L34.5761 13.3548C34.7625 12.9547 35.0168 12.3964 35.1672 11.8034C35.3187 11.2062 35.3548 10.6116 35.1456 10.1222L35.1444 10.1194C34.745 9.15259 34.4744 8.66802 34.2104 8.37559C33.9564 8.09423 33.699 7.9782 33.2514 7.78176C33.145 7.73884 33.0507 7.6863 32.9607 7.62668C32.8708 7.57418 32.6118 7.463 32.2522 7.36384C31.8918 7.26446 31.4513 7.18306 31.0118 7.18306C30.5647 7.18306 30.2018 7.2667 29.9386 7.40341C29.9247 7.41234 29.913 7.41937 29.9041 7.42471C29.8927 7.43154 29.8859 7.43563 29.8778 7.44107C29.8097 7.48644 29.7238 7.49566 29.6477 7.46573C29.5715 7.43581 29.5149 7.37054 29.4959 7.29097C29.3629 6.73213 29.176 6.16208 28.9434 5.58045C28.8937 5.45631 28.9505 5.31508 29.0723 5.25989C29.6923 4.97894 30.356 4.86488 31.0118 4.86488C32.3523 4.86488 33.6317 5.3222 34.1832 5.66576C34.917 5.98355 35.4656 6.30507 35.9452 6.84417C36.4228 7.381 36.8173 8.11732 37.2787 9.2363C37.7059 10.2374 37.6601 11.2722 37.4568 12.1722C37.2639 13.0264 36.9244 13.7784 36.6932 14.2857C36.9647 15.4407 36.9127 16.2409 36.7779 16.7667C36.7089 17.0356 36.619 17.2302 36.5423 17.3614C36.504 17.4269 36.4692 17.4763 36.4422 17.511C36.4288 17.5283 36.4173 17.542 36.4083 17.5522L36.405 17.5559C36.3873 17.5796 36.3694 17.6037 36.3511 17.628C36.1516 17.8944 35.921 18.2023 35.7279 18.6831C35.5147 19.214 35.3437 19.9677 35.3437 21.1058C35.3437 22.3546 35.8202 23.064 36.2767 23.4644C36.5085 23.6678 36.7403 23.7958 36.9133 23.8726C36.9997 23.911 37.0707 23.9363 37.1188 23.9517C37.1428 23.9594 37.1611 23.9646 37.1725 23.9677L37.1845 23.9709L37.1855 23.9711C37.1856 23.9711 37.1857 23.9712 37.1858 23.9712M37.1864 23.9713L37.13 24.2149C37.1855 23.9711 37.1857 23.9712 37.1858 23.9712M37.1864 23.9713C37.1863 23.9713 37.1862 23.9713 37.1861 23.9712C37.186 23.9712 37.1859 23.9712 37.1858 23.9712M37.1864 23.9713L37.1858 23.9712M28.2969 25.9807C28.306 25.9829 28.3149 25.9856 28.3237 25.9887C28.3778 26.0082 28.4335 26.0281 28.4908 26.0486C29.5238 26.4183 31.0631 26.9691 32.3672 28.0031C33.756 29.1042 34.88 30.7543 34.88 33.2967H34.63C34.88 33.2967 34.88 33.2968 34.88 33.297V33.2972L34.88 33.2978L34.88 33.2993L34.88 33.3033L34.8797 33.3152C34.8793 33.3248 34.8787 33.3378 34.8776 33.3536C34.8754 33.3851 34.871 33.4285 34.8624 33.4798C34.8455 33.5814 34.8111 33.7207 34.74 33.863C34.6683 34.0063 34.5569 34.1572 34.3852 34.2718C34.2118 34.3873 33.9919 34.4558 33.7209 34.4558H8.26638C7.99536 34.4558 7.77548 34.3873 7.60214 34.2718C7.43036 34.1572 7.31897 34.0063 7.24732 33.863C7.17616 33.7207 7.14183 33.5814 7.1249 33.4798C7.11633 33.4285 7.11195 33.3851 7.1097 33.3536C7.10857 33.3378 7.10797 33.3248 7.10765 33.3152L7.10735 33.3033L7.1073 33.2993L7.10729 33.2978L7.10729 33.2972L7.10729 33.297C7.10729 33.2968 7.10729 33.2967 7.35729 33.2967H7.10729C7.10729 30.7543 8.23132 29.1042 9.61904 28.0042C10.9279 26.9667 12.4729 26.4177 13.5022 26.052C13.5545 26.0334 13.6055 26.0153 13.6551 25.9976C13.6634 25.9946 13.6719 25.9921 13.6805 25.99L13.6805 25.99L13.6807 25.99L13.6812 25.9899L13.6862 25.9886L13.7094 25.9824C13.7304 25.9766 13.7625 25.9674 13.8039 25.9544C13.8868 25.9283 14.0069 25.8869 14.1519 25.8268C14.4426 25.7064 14.8293 25.5123 15.2148 25.2184C15.9806 24.6344 16.7437 23.657 16.7437 22.0512C16.7437 20.5963 16.4194 19.6264 16.0414 18.9361C15.8514 18.5891 15.6453 18.3081 15.4522 18.0666C15.3858 17.9835 15.3177 17.9014 15.2515 17.8215C15.1371 17.6836 15.0283 17.5524 14.9435 17.4348C14.9416 17.4325 14.9394 17.43 14.9371 17.4273C14.9269 17.4152 14.9136 17.3987 14.8978 17.3774C14.8662 17.335 14.8247 17.2738 14.7788 17.1922C14.687 17.0288 14.578 16.7845 14.4941 16.4454C14.3292 15.7785 14.2634 14.754 14.604 13.2668C14.3138 12.6099 13.8869 11.6392 13.646 10.5364C13.3954 9.38947 13.341 8.0793 13.862 6.81181C14.4432 5.35917 15.0533 4.42081 15.7639 3.74004C16.469 3.06447 17.2578 2.65798 18.1647 2.24923C18.8436 1.81383 20.4334 1.22852 22.1118 1.22852C23.0227 1.22852 23.9769 1.3973 24.8244 1.86918L24.8268 1.87053L24.8268 1.87055C25.9829 2.53121 26.7279 3.65113 27.5416 5.59816C28.9954 8.90709 28.6545 11.6467 27.4623 13.3855C27.7951 14.8622 27.7094 15.8578 27.5223 16.4996C27.4265 16.8281 27.305 17.0609 27.2027 17.2155C27.1517 17.2926 27.1057 17.3499 27.0705 17.3896C27.0539 17.4083 27.0397 17.4231 27.0286 17.4341C26.9447 17.5496 26.8384 17.6778 26.7267 17.8124C26.6605 17.8923 26.5924 17.9744 26.526 18.0575C26.3329 18.299 26.1268 18.58 25.9368 18.927C25.5588 19.6173 25.2346 20.5872 25.2346 22.0422C25.2346 23.6527 25.9978 24.6299 26.7633 25.2125C27.1487 25.5059 27.5353 25.6991 27.8258 25.8188C27.9708 25.8785 28.0909 25.9196 28.1738 25.9455C28.2152 25.9584 28.2472 25.9675 28.2683 25.9732L28.2914 25.9794L28.2964 25.9806L28.2969 25.9807ZM28.2969 25.9807L28.2971 25.9808C28.297 25.9808 28.2969 25.9807 28.2391 26.224L28.2969 25.9807ZM1.90274 30.5694H5.95729H1.90274ZM32.4353 32.1376H9.55306C10.0686 29.9432 12.0781 29.0115 14.2877 28.2137L14.2877 28.2137L14.2905 28.2126L14.3519 28.1896C16.0492 27.7322 19.0709 25.9186 19.0709 22.0331C19.0709 18.7789 17.741 17.1685 17.0332 16.3209C16.9861 16.2613 16.9345 16.197 16.8897 16.1413C16.8695 16.1162 16.8507 16.0928 16.8343 16.0723C16.8195 16.0538 16.8071 16.0383 16.7975 16.026C16.7528 15.9192 16.5186 15.2488 16.8824 13.7087L16.8825 13.7085C16.9834 13.2795 16.9497 12.9375 16.8851 12.6967C16.853 12.577 16.8137 12.4837 16.7808 12.418C16.7643 12.3852 16.7494 12.3593 16.7378 12.3403C16.7357 12.3368 16.7336 12.3336 16.7317 12.3305C16.482 11.7718 16.1423 11.0017 15.9449 10.1686C15.7449 9.32435 15.6987 8.44554 16.0158 7.67352L16.0167 7.67136C16.4736 6.52914 16.8958 5.86984 17.3693 5.41436C17.843 4.9586 18.3847 4.6895 19.1282 4.35396C19.2356 4.3105 19.3306 4.25725 19.4215 4.1968C19.5364 4.1231 19.8792 3.95934 20.3675 3.81352C20.8528 3.66856 21.4646 3.5467 22.1118 3.5467C22.755 3.5467 23.2813 3.66862 23.6783 3.89534C24.1401 4.16161 24.6316 4.66856 25.4179 6.53033L25.4179 6.53034L25.4194 6.53373C26.8462 9.77726 25.9317 11.5473 25.5181 12.1233C25.1672 12.6086 25.0422 13.2289 25.1871 13.8105C25.5147 15.187 25.3327 15.7874 25.2801 15.9168C25.272 15.9267 25.2625 15.9387 25.252 15.9518L25.1593 16.0684C25.0882 16.1579 25.0093 16.2564 24.9584 16.3158L24.9584 16.3158L24.9555 16.3193L24.9475 16.329C24.2394 17.186 22.9164 18.7875 22.9164 22.0331C22.9164 25.9269 25.9369 27.7411 27.636 28.1898L27.6968 28.2126L27.6968 28.2126L27.7005 28.214C29.9097 29.003 31.9271 29.9428 32.4353 32.1376Z" fill="#073B4C" stroke="#073B4C" stroke-width="0.5" stroke-linejoin="round"/>
</svg>
