<svg width="42" height="42" viewBox="0 0 42 42" fill="none" xmlns="http://www.w3.org/2000/svg">
<path d="M19.8927 9.69211L19.8924 9.69211C18.8663 9.7106 17.8163 9.7354 17.0062 10.3585C16.2113 10.97 15.5834 12.2175 15.5834 14.8603C15.5834 17.0978 15.8624 18.6948 16.2559 19.9431C16.6386 21.1573 17.132 22.0505 17.6023 22.902C17.6159 22.9266 17.6295 22.9513 17.6431 22.9759C17.9246 23.4843 18.1935 23.9754 18.4259 24.5054C19.0836 25.9993 19.1487 27.4096 18.616 28.635C18.0849 29.8569 16.9773 30.8539 15.3705 31.5618C12.7586 32.7188 11.6077 33.2896 9.32652 35.2579C12.4341 37.8456 16.4182 39.4103 20.7788 39.4103C25.1975 39.4103 29.2222 37.7987 32.359 35.1519C31.3081 34.1745 29.5575 32.6788 27.8993 31.8955L27.8991 31.8954C25.6683 30.8396 24.3394 29.6737 23.8246 28.1972L23.8245 28.1969C23.4247 27.0465 23.569 25.7856 24.2179 24.4686C24.218 24.4684 24.2181 24.4682 24.2182 24.468L24.4424 24.5785C24.7606 23.924 25.0697 23.3694 25.3515 22.8694L19.8927 9.69211ZM19.8927 9.69211C21.3556 9.66415 22.0834 9.4105 22.6624 9.20504L22.6647 9.20421C23.0275 9.07146 23.2223 9.01033 23.5879 9.01033C24.3385 9.01033 25.1504 9.37874 25.7843 10.3152C26.4227 11.2583 26.8834 12.7849 26.8834 15.0876C26.8834 17.427 26.7066 18.8675 26.4039 19.9546C26.114 20.9955 25.7063 21.7238 25.1984 22.6311C25.177 22.6694 25.1554 22.7079 25.1337 22.7468L19.8927 9.69211ZM38.7106 21.4785C38.7106 26.1306 36.9252 30.3515 34.0211 33.5414C32.8862 32.4786 30.8837 30.7445 28.8764 29.7979L28.8762 29.7978C27.1665 28.9927 26.2701 28.2028 25.9967 27.4326C25.8172 26.9086 25.8843 26.2806 26.2756 25.4893L26.2758 25.489C26.5814 24.8688 26.8693 24.3559 27.1408 23.8853L27.1423 23.8826C27.1632 23.8454 27.1839 23.8084 27.2046 23.7716C27.747 22.8048 28.2396 21.9268 28.5954 20.6765C28.9643 19.3802 29.1834 17.6958 29.1834 15.0967C29.1834 11.1708 28.0495 9.0554 26.7495 7.9272C25.4563 6.80492 24.0459 6.70124 23.5697 6.70124C22.8067 6.70124 22.3211 6.8733 21.8837 7.02825L21.8681 7.03377L21.8672 7.03409C21.4035 7.20032 20.9312 7.36547 19.8384 7.38309L19.8345 7.38315C18.818 7.3967 17.1623 7.41877 15.7657 8.37813C14.3469 9.35269 13.2561 11.246 13.2561 14.8603C13.2561 17.3784 13.5842 19.2246 14.0451 20.678C14.4954 22.0981 15.0704 23.1348 15.5715 24.0383L15.6056 24.0997L15.6059 24.1003C15.8703 24.5744 16.1095 25.0089 16.2945 25.4406L16.2945 25.4406L16.2956 25.4433C16.7149 26.391 16.7521 27.148 16.4632 27.7737C16.1704 28.4077 15.5166 28.9654 14.423 29.4499C11.6527 30.6742 10.2989 31.3304 7.63213 33.6583C4.67075 30.4571 2.84699 26.1795 2.84699 21.4785C2.84699 11.5711 10.8714 3.5467 20.7788 3.5467C30.6862 3.5467 38.7106 11.5711 38.7106 21.4785ZM20.7788 1.22852C9.59528 1.22852 0.528809 10.295 0.528809 21.4785C0.528809 32.662 9.59528 41.7285 20.7788 41.7285C31.9623 41.7285 41.0288 32.662 41.0288 21.4785C41.0288 10.295 31.9623 1.22852 20.7788 1.22852Z" fill="#073B4C" stroke="#073B4C" stroke-width="0.5" stroke-linejoin="round"/>
</svg>
