<svg width="42" height="57" viewBox="0 0 42 57" fill="none" xmlns="http://www.w3.org/2000/svg">
<path d="M20.7788 56.4785C20.9498 56.6609 20.9499 56.6608 20.9501 56.6606L20.9509 56.6599L20.9537 56.6572L20.9649 56.6467L21.0084 56.6054C21.0467 56.569 21.1033 56.515 21.177 56.4439C21.3244 56.3017 21.5401 56.0915 21.8146 55.8183C22.3634 55.2719 23.1468 54.4738 24.0867 53.4654C25.9661 51.4489 28.4725 48.5901 30.9794 45.2215C35.9834 38.4973 41.0288 29.6904 41.0288 21.4785C41.0288 10.2904 31.9669 1.22852 20.7788 1.22852C9.59074 1.22852 0.528809 10.2904 0.528809 21.4785C0.528809 29.6904 5.5742 38.4973 10.5782 45.2215C13.0851 48.5901 15.5915 51.4489 17.4709 53.4654C18.4108 54.4738 19.1942 55.2719 19.7431 55.8183C20.0175 56.0915 20.2333 56.3017 20.3806 56.4439C20.4543 56.515 20.5109 56.569 20.5492 56.6054L20.5927 56.6467L20.6039 56.6572L20.6068 56.6599L20.6075 56.6606C20.6077 56.6608 20.6078 56.6609 20.7788 56.4785ZM20.7788 56.4785L20.9498 56.6609C20.8536 56.751 20.704 56.751 20.6078 56.6609L20.7788 56.4785ZM20.7788 52.3844C20.7712 52.3771 20.7633 52.3695 20.7551 52.3618C20.6279 52.24 20.4409 52.0591 20.2027 51.8233C19.7263 51.3517 19.045 50.6607 18.2272 49.7845C16.5913 48.0318 14.4104 45.5393 12.2301 42.5802C7.86097 36.6507 3.52881 28.8939 3.52881 21.4785C3.52881 11.9541 11.2544 4.22852 20.7788 4.22852C30.3032 4.22852 38.0288 11.9541 38.0288 21.4785C38.0288 28.8939 33.6966 36.6507 29.3275 42.5802C27.1472 45.5393 24.9663 48.0318 23.3304 49.7845C22.5126 50.6607 21.8313 51.3517 21.3549 51.8233C21.1167 52.0591 20.9297 52.24 20.8025 52.3618C20.7943 52.3695 20.7865 52.3771 20.7788 52.3844ZM20.7788 11.2285C15.1157 11.2285 10.5288 15.8154 10.5288 21.4785C10.5288 27.1416 15.1157 31.7285 20.7788 31.7285C26.4419 31.7285 31.0288 27.1416 31.0288 21.4785C31.0288 15.8154 26.4419 11.2285 20.7788 11.2285ZM20.7788 28.7285C16.7794 28.7285 13.5288 25.4779 13.5288 21.4785C13.5288 17.4791 16.7794 14.2285 20.7788 14.2285C24.7782 14.2285 28.0288 17.4791 28.0288 21.4785C28.0288 25.4779 24.7782 28.7285 20.7788 28.7285Z" fill="#073B4C" stroke="#073B4C" stroke-width="0.5" stroke-linejoin="round"/>
</svg>
