<svg width="42" height="57" viewBox="0 0 42 57" fill="none" xmlns="http://www.w3.org/2000/svg">
<path d="M25.9204 6.47852C25.9204 6.34044 25.8085 6.22852 25.6704 6.22852H23.1704C23.0323 6.22852 22.9204 6.34044 22.9204 6.47852V21.4785C22.9204 21.6166 23.0323 21.7285 23.1704 21.7285H25.6704C25.8085 21.7285 25.9204 21.6166 25.9204 21.4785V6.47852ZM15.9204 6.47852C15.9204 6.34044 15.8085 6.22852 15.6704 6.22852H10.6704C10.5323 6.22852 10.4204 6.34044 10.4204 6.47852V21.4785C10.4204 21.6166 10.5323 21.7285 10.6704 21.7285H15.6704C15.8085 21.7285 15.9204 21.6166 15.9204 21.4785V6.47852ZM20.9204 6.47852C20.9204 6.34044 20.8085 6.22852 20.6704 6.22852H18.1704C18.0323 6.22852 17.9204 6.34044 17.9204 6.47852V21.4785C17.9204 21.6166 18.0323 21.7285 18.1704 21.7285H20.6704C20.8085 21.7285 20.9204 21.6166 20.9204 21.4785V6.47852ZM35.9204 6.47852C35.9204 6.34044 35.8085 6.22852 35.6704 6.22852H33.1704C33.0323 6.22852 32.9204 6.34044 32.9204 6.47852V21.4785C32.9204 21.6166 33.0323 21.7285 33.1704 21.7285H35.6704C35.8085 21.7285 35.9204 21.6166 35.9204 21.4785V6.47852ZM30.9204 6.47852C30.9204 6.34044 30.8085 6.22852 30.6704 6.22852H28.1704C28.0323 6.22852 27.9204 6.34044 27.9204 6.47852V21.4785C27.9204 21.6166 28.0323 21.7285 28.1704 21.7285H30.6704C30.8085 21.7285 30.9204 21.6166 30.9204 21.4785V6.47852ZM2.98469 56.2928L2.98495 56.2925L6.92068 52.3448L10.8539 56.278C11.1265 56.5644 11.5039 56.7285 11.9204 56.7285C12.3373 56.7285 12.7131 56.5642 12.9844 56.2931C12.9845 56.293 12.9846 56.2929 12.9847 56.2928L16.7681 52.5212L19.4829 56.141C19.5047 56.1701 19.5323 56.1936 19.5634 56.2106C19.8252 56.507 20.2054 56.7285 20.6704 56.7285C21.1383 56.7285 21.5189 56.5043 21.7893 56.1984C21.8207 56.1814 21.8485 56.1577 21.8704 56.1285L24.585 52.5091L28.3539 56.278C28.6265 56.5644 29.0039 56.7285 29.4204 56.7285C29.8375 56.7285 30.2133 56.5641 30.4847 56.2928L30.485 56.2925L34.4207 52.3448L38.3539 56.278C38.6265 56.5644 39.0039 56.7285 39.4204 56.7285C40.246 56.7285 40.9204 56.0541 40.9204 55.2285V2.72852C40.9204 1.90294 40.246 1.22852 39.4204 1.22852H1.92041C1.09484 1.22852 0.42041 1.90294 0.42041 2.72852V55.2285C0.42041 56.0541 1.09484 56.7285 1.92041 56.7285C2.33747 56.7285 2.71334 56.5641 2.98469 56.2928ZM24.4204 48.7285C23.9525 48.7285 23.5719 48.9527 23.3015 49.2586C23.2701 49.2756 23.2424 49.2992 23.2205 49.3284L20.6704 52.7247L18.1203 49.3284C18.0984 49.2992 18.0707 49.2756 18.0393 49.2586C17.7689 48.9527 17.3883 48.7285 16.9204 48.7285C16.5034 48.7285 16.1275 48.8929 15.8561 49.1642L15.8559 49.1645L11.9201 53.1122L7.98698 49.179C7.71431 48.8926 7.33689 48.7285 6.92041 48.7285C6.50335 48.7285 6.12748 48.8929 5.85613 49.1642L5.85575 49.1646L3.42041 51.6106V4.22852H37.9204V51.6125L35.4869 49.179C35.2143 48.8926 34.8369 48.7285 34.4204 48.7285C34.0034 48.7285 33.6275 48.8929 33.3561 49.1642L33.3559 49.1645L29.4201 53.1122L25.487 49.179C25.2143 48.8926 24.8369 48.7285 24.4204 48.7285ZM30.9204 41.4785C30.9204 41.3404 30.8085 41.2285 30.6704 41.2285H5.67041C5.53234 41.2285 5.42041 41.3404 5.42041 41.4785V43.9785C5.42041 44.1166 5.53234 44.2285 5.67041 44.2285H30.6704C30.8085 44.2285 30.9204 44.1166 30.9204 43.9785V41.4785ZM35.9204 36.4785C35.9204 36.3404 35.8085 36.2285 35.6704 36.2285H5.67041C5.53234 36.2285 5.42041 36.3404 5.42041 36.4785V38.9785C5.42041 39.1166 5.53234 39.2285 5.67041 39.2285H35.6704C35.8085 39.2285 35.9204 39.1166 35.9204 38.9785V36.4785ZM8.42041 6.47852C8.42041 6.34044 8.30848 6.22852 8.17041 6.22852H5.67041C5.53234 6.22852 5.42041 6.34044 5.42041 6.47852V21.4785C5.42041 21.6166 5.53234 21.7285 5.67041 21.7285H8.17041C8.30848 21.7285 8.42041 21.6166 8.42041 21.4785V6.47852ZM35.9204 31.4785C35.9204 31.3404 35.8085 31.2285 35.6704 31.2285H5.67041C5.53234 31.2285 5.42041 31.3404 5.42041 31.4785V33.9785C5.42041 34.1166 5.53234 34.2285 5.67041 34.2285H35.6704C35.8085 34.2285 35.9204 34.1166 35.9204 33.9785V31.4785ZM25.9204 26.4785C25.9204 26.3404 25.8085 26.2285 25.6704 26.2285H5.67041C5.53234 26.2285 5.42041 26.3404 5.42041 26.4785V28.9785C5.42041 29.1166 5.53234 29.2285 5.67041 29.2285H25.6704C25.8085 29.2285 25.9204 29.1166 25.9204 28.9785V26.4785Z" fill="#073B4C" stroke="#073B4C" stroke-width="0.5" stroke-linejoin="round"/>
</svg>
