<svg width="42" height="42" viewBox="0 0 42 42" fill="none" xmlns="http://www.w3.org/2000/svg">
<path d="M11.1729 7.39253C11.1056 7.47922 11.1027 7.59968 11.1658 7.6895C11.2289 7.77933 11.3431 7.81752 11.4475 7.78366C12.442 7.46115 13.4734 7.22784 14.5421 7.07516C14.592 7.06805 14.6385 7.04606 14.6756 7.01207C17.2136 4.68858 20.5904 3.25949 24.3068 3.25949C32.196 3.25949 38.5931 9.65666 38.5931 17.5459C38.5931 21.2622 37.1641 24.6391 34.8406 27.177C34.8066 27.2142 34.7846 27.2607 34.7775 27.3105C34.6246 28.3808 34.4003 29.4111 34.0696 30.4032C34.0348 30.5076 34.0724 30.6225 34.1621 30.6861C34.2519 30.7498 34.3728 30.7473 34.4598 30.6799C38.3815 27.644 40.9204 22.8997 40.9204 17.5459C40.9204 8.37142 33.4812 0.93222 24.3068 0.93222C18.9619 0.93222 14.2178 3.47118 11.1729 7.39253ZM17.7386 20.9742C17.8374 20.9873 17.915 21.0087 17.9794 21.0361C18.087 21.0819 18.1757 21.1519 18.272 21.2636C18.451 21.4713 18.5674 21.7828 18.5842 22.2369C18.5892 22.3713 18.6996 22.4777 18.834 22.4777H20.425C20.563 22.4777 20.675 22.3657 20.675 22.2277C20.675 21.7253 20.5878 21.2804 20.4075 20.8796L20.4065 20.8775C20.2287 20.4922 19.9895 20.1721 19.6887 19.9115L19.6887 19.9114L19.685 19.9083C19.3842 19.6577 19.0273 19.4706 18.6278 19.3439C18.3131 19.2441 18.0587 19.1857 17.7386 19.1665V18.464C17.7386 18.326 17.6267 18.214 17.4886 18.214H16.6522C16.5142 18.214 16.4022 18.326 16.4022 18.464V19.1675C16.0758 19.1894 15.8127 19.2561 15.4914 19.3632C15.0832 19.4993 14.7214 19.6945 14.4074 19.9398L14.4074 19.9397L14.4037 19.9427C14.0853 20.2014 13.8257 20.5209 13.6366 20.9091C13.4441 21.3041 13.3568 21.743 13.3568 22.2368C13.3568 22.7897 13.4516 23.2787 13.6673 23.6804C13.8647 24.0645 14.1326 24.3928 14.4716 24.6524C14.793 24.9054 15.1601 25.1075 15.5523 25.2606C15.6501 25.2987 15.7429 25.3369 15.8345 25.3745C16.0219 25.4514 16.2038 25.5261 16.4113 25.5942V28.6311C16.2422 28.609 16.1099 28.57 16.0008 28.518C15.8442 28.4432 15.7185 28.3335 15.5953 28.1745C15.3594 27.8701 15.23 27.4324 15.2386 26.8312C15.2395 26.7643 15.2136 26.6998 15.1666 26.6522C15.1196 26.6045 15.0555 26.5777 14.9886 26.5777H13.3977C13.2613 26.5777 13.15 26.687 13.1477 26.8234C13.1382 27.3833 13.2137 27.8995 13.3925 28.3469C13.5682 28.7956 13.8151 29.173 14.1447 29.4826C14.4704 29.7886 14.8541 30.0239 15.3019 30.1894C15.6709 30.3258 15.9932 30.4102 16.4022 30.4396V31.1822C16.4022 31.3203 16.5142 31.4322 16.6522 31.4322H17.4886C17.6267 31.4322 17.7386 31.3203 17.7386 31.1822V30.4344C18.1124 30.3991 18.4072 30.3179 18.7511 30.2007C19.1843 30.053 19.5581 29.8264 19.8809 29.5427C20.2113 29.2524 20.4688 28.8844 20.6459 28.4619C20.8351 28.0232 20.9204 27.5245 20.9204 26.9549C20.9204 26.4114 20.8257 25.933 20.6117 25.5329C20.422 25.1358 20.1521 24.8064 19.8132 24.5473C19.4847 24.2961 19.1093 24.0846 18.6878 23.9217C18.5957 23.8862 18.5075 23.8507 18.4207 23.8157C18.1991 23.7266 17.9862 23.6409 17.7386 23.5658V20.9742ZM17.034 8.20495C7.85961 8.20495 0.42041 15.6441 0.42041 24.8186C0.42041 33.993 7.85961 41.4322 17.034 41.4322C26.2085 41.4322 33.6477 33.993 33.6477 24.8186C33.6477 15.6441 26.2085 8.20495 17.034 8.20495ZM17.034 39.1049C9.14485 39.1049 2.74768 32.7078 2.74768 24.8186C2.74768 16.9294 9.14485 10.5322 17.034 10.5322C24.9232 10.5322 31.3204 16.9294 31.3204 24.8186C31.3204 32.7078 24.9232 39.1049 17.034 39.1049ZM16.4022 23.2275C16.3651 23.211 16.3235 23.1934 16.2776 23.1759C16.1078 23.1112 15.9682 23.0327 15.8462 22.9336C15.7233 22.8338 15.6267 22.7215 15.5526 22.5881C15.4867 22.4694 15.4477 22.3134 15.4477 22.1186C15.4477 21.6494 15.5729 21.375 15.7629 21.2229C15.882 21.1276 15.9926 21.0627 16.1228 21.0196C16.2018 20.9934 16.2925 20.9738 16.4022 20.9623V23.2275ZM18.4473 28.2534C18.2244 28.438 18.0275 28.5572 17.7386 28.6159V25.9025C17.7879 25.9244 17.8445 25.948 17.9108 25.9712C18.0974 26.0446 18.2581 26.1332 18.4022 26.2368C18.535 26.3409 18.6398 26.4676 18.7241 26.6209C18.7971 26.7536 18.8386 26.935 18.8386 27.1822C18.8386 27.7102 18.6886 28.0534 18.4473 28.2534Z" fill="#073B4C" stroke="#073B4C" stroke-width="0.5" stroke-linejoin="round"/>
</svg>
