<svg width="42" height="42" viewBox="0 0 42 42" fill="none" xmlns="http://www.w3.org/2000/svg">
<mask id="path-1-outside-1_2_1209" maskUnits="userSpaceOnUse" x="-0.00634766" y="-0.366943" width="42" height="42" fill="black">
<rect fill="white" x="-0.00634766" y="-0.366943" width="42" height="42"/>
<path d="M20.9891 9.71984C14.9632 9.71984 10.0825 14.5994 10.0825 20.624C10.0825 26.6485 14.9632 31.5281 20.9891 31.5281C27.015 31.5281 31.8957 26.6485 31.8957 20.624C31.8957 14.5994 27.015 9.71984 20.9891 9.71984ZM20.9891 11.5372C24.0793 11.5372 26.806 13.0819 28.451 15.4445L23.6158 18.1251C22.9523 17.4254 22.0252 16.9893 20.9891 16.9893C19.953 16.9893 19.0259 17.4254 18.3624 18.1251L13.5272 15.4445C15.1722 13.0819 17.8989 11.5372 20.9891 11.5372ZM20.0802 29.6653C15.4904 29.211 11.9003 25.34 11.9003 20.624C11.9003 19.3427 12.1638 18.1342 12.6455 17.0256L17.4808 19.7153C17.4081 20.0061 17.3536 20.3059 17.3536 20.624C17.3536 22.3141 18.5169 23.7226 20.0802 24.1315V29.6653ZM19.1713 20.624C19.1713 19.6244 19.9893 18.8066 20.9891 18.8066C21.9889 18.8066 22.8069 19.6244 22.8069 20.624C22.8069 21.6235 21.9889 22.4413 20.9891 22.4413C19.9893 22.4413 19.1713 21.6235 19.1713 20.624ZM30.078 20.624C30.078 25.34 26.4879 29.211 21.898 29.6653V24.1315C23.4613 23.7226 24.6246 22.3141 24.6246 20.624C24.6246 20.3059 24.5701 20.0061 24.4974 19.7153L29.3327 17.0256C29.8144 18.1342 30.078 19.3427 30.078 20.624ZM39.6485 16.6258L37.7217 16.1442C37.3218 14.663 36.7401 13.2637 35.9857 11.9643L37.0127 10.256C37.3309 9.64714 37.5308 8.89294 37.0127 8.37499L33.2409 4.60398C33.0046 4.36772 32.7137 4.27686 32.4229 4.27686C32.0593 4.27686 31.6776 4.41316 31.3595 4.60398L29.6417 5.63079C28.3511 4.88567 26.9514 4.29503 25.4699 3.9043L24.9882 1.96881C24.7792 1.31457 24.3883 0.633057 23.6521 0.633057H18.317C17.5808 0.633057 17.1536 1.31457 16.9809 1.96881L16.5083 3.9043C15.0359 4.30412 13.6362 4.88567 12.3365 5.63079L10.6187 4.60398C10.3006 4.41316 9.9189 4.27686 9.55534 4.27686C9.25541 4.27686 8.96457 4.36772 8.73735 4.60398L4.96548 8.37499C4.44741 8.89294 4.64737 9.64714 4.96548 10.256L5.99252 11.9643C5.23814 13.2637 4.64737 14.663 4.25655 16.1442L2.32971 16.6258C1.67532 16.7894 0.993652 17.2255 0.993652 17.9615V23.2955C0.993652 24.0315 1.67532 24.4222 2.32971 24.6312L4.25655 25.1128C4.65646 26.594 5.23814 27.9934 5.99252 29.2928L4.96548 31.0011C4.6201 31.5826 4.44741 32.3641 4.96548 32.882L8.73735 36.653C8.96457 36.8802 9.24632 36.9711 9.52808 36.9711C9.89163 36.9711 10.2825 36.8257 10.6187 36.653L12.3365 35.6262C13.6271 36.3714 15.0268 36.962 16.5083 37.3527L16.99 39.2882C17.1536 39.9425 17.5899 40.624 18.3261 40.624H23.6612C24.3974 40.624 24.7882 39.9425 24.9973 39.2882L25.479 37.3527C26.9514 36.962 28.3511 36.3714 29.6508 35.6262L31.3686 36.653C31.7139 36.8257 32.0957 36.9711 32.4592 36.9711C32.7501 36.9711 33.0227 36.8802 33.25 36.653L37.0218 32.882C37.5399 32.3641 37.3672 31.5735 37.0218 31.0011L35.9948 29.2928C36.7492 27.9934 37.3399 26.594 37.7308 25.1128L39.6576 24.6312C40.312 24.4222 40.9937 24.0315 40.9937 23.2955V17.9615C40.9846 17.2255 40.3029 16.7894 39.6485 16.6258ZM39.1668 22.8684C39.1577 22.8684 39.1577 22.8775 39.1486 22.8775L37.2854 23.3409C36.6401 23.5045 36.1402 23.9952 35.9675 24.6312C35.6131 25.9397 35.095 27.1937 34.4133 28.3659C34.077 28.9384 34.0861 29.6471 34.4224 30.2105L35.4222 31.8734L32.2502 35.0447C32.2411 35.0447 32.2411 35.0356 32.232 35.0356L30.5688 34.0451C30.2779 33.8725 29.9598 33.7816 29.6326 33.7816C29.3236 33.7816 29.0055 33.8634 28.7237 34.027C27.5513 34.7085 26.297 35.2264 24.9973 35.5717C24.3611 35.7444 23.8612 36.2441 23.7067 36.8893L23.2341 38.7612C23.2341 38.7703 23.2341 38.7703 23.225 38.7794H18.7351L18.2625 36.8802C18.0989 36.2351 17.6081 35.7353 16.9718 35.5626C15.6721 35.2173 14.4179 34.6903 13.2454 34.0179C12.9637 33.8543 12.6546 33.7725 12.3365 33.7725C12.0093 33.7725 11.6912 33.8543 11.4004 34.0361L9.73712 35.0265C9.72803 35.0265 9.72803 35.0356 9.71894 35.0356L6.54694 31.8643L7.54671 30.1923C7.89209 29.629 7.89209 28.9202 7.56489 28.3477C6.88322 27.1755 6.35607 25.9125 6.01069 24.6131C5.83801 23.977 5.33812 23.4772 4.69281 23.3227L2.8296 22.8593C2.82051 22.8593 2.81142 22.8593 2.81142 22.8502V18.3614L4.69281 17.8889C5.32903 17.7253 5.83801 17.2346 6.01069 16.5985C6.35607 15.29 6.88322 14.0361 7.56489 12.8639C7.90117 12.2914 7.89209 11.5826 7.54671 11.0192L6.55603 9.37454C6.55603 9.36545 6.54694 9.36545 6.54694 9.35637L9.71894 6.18508L11.4004 7.19371C11.6912 7.36636 12.0093 7.44814 12.3365 7.44814C12.6455 7.44814 12.9637 7.36636 13.2454 7.2028C14.4179 6.52129 15.6721 6.00334 16.9718 5.65805C17.6081 5.4854 18.1079 4.98562 18.2625 4.34046L18.7442 2.45041H23.2341C23.2341 2.4595 23.2341 2.4595 23.2431 2.46859L23.7158 4.34046C23.8794 4.98562 24.3702 5.4854 25.0064 5.65805C26.3061 6.00334 27.5603 6.52129 28.7328 7.2028C29.0146 7.36636 29.3236 7.44814 29.6417 7.44814C29.9689 7.44814 30.287 7.36636 30.5778 7.19371L32.2593 6.18508L35.4313 9.35637C35.4313 9.36545 35.4222 9.36545 35.4222 9.37454L34.4315 11.0192C34.0861 11.5826 34.0861 12.2914 34.4224 12.8639C35.1041 14.0361 35.6222 15.2991 35.9766 16.5985C36.1493 17.2346 36.6492 17.7344 37.2945 17.8889L39.1668 18.3795V22.8684Z"/>
</mask>
<path d="M20.9891 9.71984C14.9632 9.71984 10.0825 14.5994 10.0825 20.624C10.0825 26.6485 14.9632 31.5281 20.9891 31.5281C27.015 31.5281 31.8957 26.6485 31.8957 20.624C31.8957 14.5994 27.015 9.71984 20.9891 9.71984ZM20.9891 11.5372C24.0793 11.5372 26.806 13.0819 28.451 15.4445L23.6158 18.1251C22.9523 17.4254 22.0252 16.9893 20.9891 16.9893C19.953 16.9893 19.0259 17.4254 18.3624 18.1251L13.5272 15.4445C15.1722 13.0819 17.8989 11.5372 20.9891 11.5372ZM20.0802 29.6653C15.4904 29.211 11.9003 25.34 11.9003 20.624C11.9003 19.3427 12.1638 18.1342 12.6455 17.0256L17.4808 19.7153C17.4081 20.0061 17.3536 20.3059 17.3536 20.624C17.3536 22.3141 18.5169 23.7226 20.0802 24.1315V29.6653ZM19.1713 20.624C19.1713 19.6244 19.9893 18.8066 20.9891 18.8066C21.9889 18.8066 22.8069 19.6244 22.8069 20.624C22.8069 21.6235 21.9889 22.4413 20.9891 22.4413C19.9893 22.4413 19.1713 21.6235 19.1713 20.624ZM30.078 20.624C30.078 25.34 26.4879 29.211 21.898 29.6653V24.1315C23.4613 23.7226 24.6246 22.3141 24.6246 20.624C24.6246 20.3059 24.5701 20.0061 24.4974 19.7153L29.3327 17.0256C29.8144 18.1342 30.078 19.3427 30.078 20.624ZM39.6485 16.6258L37.7217 16.1442C37.3218 14.663 36.7401 13.2637 35.9857 11.9643L37.0127 10.256C37.3309 9.64714 37.5308 8.89294 37.0127 8.37499L33.2409 4.60398C33.0046 4.36772 32.7137 4.27686 32.4229 4.27686C32.0593 4.27686 31.6776 4.41316 31.3595 4.60398L29.6417 5.63079C28.3511 4.88567 26.9514 4.29503 25.4699 3.9043L24.9882 1.96881C24.7792 1.31457 24.3883 0.633057 23.6521 0.633057H18.317C17.5808 0.633057 17.1536 1.31457 16.9809 1.96881L16.5083 3.9043C15.0359 4.30412 13.6362 4.88567 12.3365 5.63079L10.6187 4.60398C10.3006 4.41316 9.9189 4.27686 9.55534 4.27686C9.25541 4.27686 8.96457 4.36772 8.73735 4.60398L4.96548 8.37499C4.44741 8.89294 4.64737 9.64714 4.96548 10.256L5.99252 11.9643C5.23814 13.2637 4.64737 14.663 4.25655 16.1442L2.32971 16.6258C1.67532 16.7894 0.993652 17.2255 0.993652 17.9615V23.2955C0.993652 24.0315 1.67532 24.4222 2.32971 24.6312L4.25655 25.1128C4.65646 26.594 5.23814 27.9934 5.99252 29.2928L4.96548 31.0011C4.6201 31.5826 4.44741 32.3641 4.96548 32.882L8.73735 36.653C8.96457 36.8802 9.24632 36.9711 9.52808 36.9711C9.89163 36.9711 10.2825 36.8257 10.6187 36.653L12.3365 35.6262C13.6271 36.3714 15.0268 36.962 16.5083 37.3527L16.99 39.2882C17.1536 39.9425 17.5899 40.624 18.3261 40.624H23.6612C24.3974 40.624 24.7882 39.9425 24.9973 39.2882L25.479 37.3527C26.9514 36.962 28.3511 36.3714 29.6508 35.6262L31.3686 36.653C31.7139 36.8257 32.0957 36.9711 32.4592 36.9711C32.7501 36.9711 33.0227 36.8802 33.25 36.653L37.0218 32.882C37.5399 32.3641 37.3672 31.5735 37.0218 31.0011L35.9948 29.2928C36.7492 27.9934 37.3399 26.594 37.7308 25.1128L39.6576 24.6312C40.312 24.4222 40.9937 24.0315 40.9937 23.2955V17.9615C40.9846 17.2255 40.3029 16.7894 39.6485 16.6258ZM39.1668 22.8684C39.1577 22.8684 39.1577 22.8775 39.1486 22.8775L37.2854 23.3409C36.6401 23.5045 36.1402 23.9952 35.9675 24.6312C35.6131 25.9397 35.095 27.1937 34.4133 28.3659C34.077 28.9384 34.0861 29.6471 34.4224 30.2105L35.4222 31.8734L32.2502 35.0447C32.2411 35.0447 32.2411 35.0356 32.232 35.0356L30.5688 34.0451C30.2779 33.8725 29.9598 33.7816 29.6326 33.7816C29.3236 33.7816 29.0055 33.8634 28.7237 34.027C27.5513 34.7085 26.297 35.2264 24.9973 35.5717C24.3611 35.7444 23.8612 36.2441 23.7067 36.8893L23.2341 38.7612C23.2341 38.7703 23.2341 38.7703 23.225 38.7794H18.7351L18.2625 36.8802C18.0989 36.2351 17.6081 35.7353 16.9718 35.5626C15.6721 35.2173 14.4179 34.6903 13.2454 34.0179C12.9637 33.8543 12.6546 33.7725 12.3365 33.7725C12.0093 33.7725 11.6912 33.8543 11.4004 34.0361L9.73712 35.0265C9.72803 35.0265 9.72803 35.0356 9.71894 35.0356L6.54694 31.8643L7.54671 30.1923C7.89209 29.629 7.89209 28.9202 7.56489 28.3477C6.88322 27.1755 6.35607 25.9125 6.01069 24.6131C5.83801 23.977 5.33812 23.4772 4.69281 23.3227L2.8296 22.8593C2.82051 22.8593 2.81142 22.8593 2.81142 22.8502V18.3614L4.69281 17.8889C5.32903 17.7253 5.83801 17.2346 6.01069 16.5985C6.35607 15.29 6.88322 14.0361 7.56489 12.8639C7.90117 12.2914 7.89209 11.5826 7.54671 11.0192L6.55603 9.37454C6.55603 9.36545 6.54694 9.36545 6.54694 9.35637L9.71894 6.18508L11.4004 7.19371C11.6912 7.36636 12.0093 7.44814 12.3365 7.44814C12.6455 7.44814 12.9637 7.36636 13.2454 7.2028C14.4179 6.52129 15.6721 6.00334 16.9718 5.65805C17.6081 5.4854 18.1079 4.98562 18.2625 4.34046L18.7442 2.45041H23.2341C23.2341 2.4595 23.2341 2.4595 23.2431 2.46859L23.7158 4.34046C23.8794 4.98562 24.3702 5.4854 25.0064 5.65805C26.3061 6.00334 27.5603 6.52129 28.7328 7.2028C29.0146 7.36636 29.3236 7.44814 29.6417 7.44814C29.9689 7.44814 30.287 7.36636 30.5778 7.19371L32.2593 6.18508L35.4313 9.35637C35.4313 9.36545 35.4222 9.36545 35.4222 9.37454L34.4315 11.0192C34.0861 11.5826 34.0861 12.2914 34.4224 12.8639C35.1041 14.0361 35.6222 15.2991 35.9766 16.5985C36.1493 17.2346 36.6492 17.7344 37.2945 17.8889L39.1668 18.3795V22.8684Z" fill="#073B4C"/>
<path d="M20.9891 9.71984C14.9632 9.71984 10.0825 14.5994 10.0825 20.624C10.0825 26.6485 14.9632 31.5281 20.9891 31.5281C27.015 31.5281 31.8957 26.6485 31.8957 20.624C31.8957 14.5994 27.015 9.71984 20.9891 9.71984ZM20.9891 11.5372C24.0793 11.5372 26.806 13.0819 28.451 15.4445L23.6158 18.1251C22.9523 17.4254 22.0252 16.9893 20.9891 16.9893C19.953 16.9893 19.0259 17.4254 18.3624 18.1251L13.5272 15.4445C15.1722 13.0819 17.8989 11.5372 20.9891 11.5372ZM20.0802 29.6653C15.4904 29.211 11.9003 25.34 11.9003 20.624C11.9003 19.3427 12.1638 18.1342 12.6455 17.0256L17.4808 19.7153C17.4081 20.0061 17.3536 20.3059 17.3536 20.624C17.3536 22.3141 18.5169 23.7226 20.0802 24.1315V29.6653ZM19.1713 20.624C19.1713 19.6244 19.9893 18.8066 20.9891 18.8066C21.9889 18.8066 22.8069 19.6244 22.8069 20.624C22.8069 21.6235 21.9889 22.4413 20.9891 22.4413C19.9893 22.4413 19.1713 21.6235 19.1713 20.624ZM30.078 20.624C30.078 25.34 26.4879 29.211 21.898 29.6653V24.1315C23.4613 23.7226 24.6246 22.3141 24.6246 20.624C24.6246 20.3059 24.5701 20.0061 24.4974 19.7153L29.3327 17.0256C29.8144 18.1342 30.078 19.3427 30.078 20.624ZM39.6485 16.6258L37.7217 16.1442C37.3218 14.663 36.7401 13.2637 35.9857 11.9643L37.0127 10.256C37.3309 9.64714 37.5308 8.89294 37.0127 8.37499L33.2409 4.60398C33.0046 4.36772 32.7137 4.27686 32.4229 4.27686C32.0593 4.27686 31.6776 4.41316 31.3595 4.60398L29.6417 5.63079C28.3511 4.88567 26.9514 4.29503 25.4699 3.9043L24.9882 1.96881C24.7792 1.31457 24.3883 0.633057 23.6521 0.633057H18.317C17.5808 0.633057 17.1536 1.31457 16.9809 1.96881L16.5083 3.9043C15.0359 4.30412 13.6362 4.88567 12.3365 5.63079L10.6187 4.60398C10.3006 4.41316 9.9189 4.27686 9.55534 4.27686C9.25541 4.27686 8.96457 4.36772 8.73735 4.60398L4.96548 8.37499C4.44741 8.89294 4.64737 9.64714 4.96548 10.256L5.99252 11.9643C5.23814 13.2637 4.64737 14.663 4.25655 16.1442L2.32971 16.6258C1.67532 16.7894 0.993652 17.2255 0.993652 17.9615V23.2955C0.993652 24.0315 1.67532 24.4222 2.32971 24.6312L4.25655 25.1128C4.65646 26.594 5.23814 27.9934 5.99252 29.2928L4.96548 31.0011C4.6201 31.5826 4.44741 32.3641 4.96548 32.882L8.73735 36.653C8.96457 36.8802 9.24632 36.9711 9.52808 36.9711C9.89163 36.9711 10.2825 36.8257 10.6187 36.653L12.3365 35.6262C13.6271 36.3714 15.0268 36.962 16.5083 37.3527L16.99 39.2882C17.1536 39.9425 17.5899 40.624 18.3261 40.624H23.6612C24.3974 40.624 24.7882 39.9425 24.9973 39.2882L25.479 37.3527C26.9514 36.962 28.3511 36.3714 29.6508 35.6262L31.3686 36.653C31.7139 36.8257 32.0957 36.9711 32.4592 36.9711C32.7501 36.9711 33.0227 36.8802 33.25 36.653L37.0218 32.882C37.5399 32.3641 37.3672 31.5735 37.0218 31.0011L35.9948 29.2928C36.7492 27.9934 37.3399 26.594 37.7308 25.1128L39.6576 24.6312C40.312 24.4222 40.9937 24.0315 40.9937 23.2955V17.9615C40.9846 17.2255 40.3029 16.7894 39.6485 16.6258ZM39.1668 22.8684C39.1577 22.8684 39.1577 22.8775 39.1486 22.8775L37.2854 23.3409C36.6401 23.5045 36.1402 23.9952 35.9675 24.6312C35.6131 25.9397 35.095 27.1937 34.4133 28.3659C34.077 28.9384 34.0861 29.6471 34.4224 30.2105L35.4222 31.8734L32.2502 35.0447C32.2411 35.0447 32.2411 35.0356 32.232 35.0356L30.5688 34.0451C30.2779 33.8725 29.9598 33.7816 29.6326 33.7816C29.3236 33.7816 29.0055 33.8634 28.7237 34.027C27.5513 34.7085 26.297 35.2264 24.9973 35.5717C24.3611 35.7444 23.8612 36.2441 23.7067 36.8893L23.2341 38.7612C23.2341 38.7703 23.2341 38.7703 23.225 38.7794H18.7351L18.2625 36.8802C18.0989 36.2351 17.6081 35.7353 16.9718 35.5626C15.6721 35.2173 14.4179 34.6903 13.2454 34.0179C12.9637 33.8543 12.6546 33.7725 12.3365 33.7725C12.0093 33.7725 11.6912 33.8543 11.4004 34.0361L9.73712 35.0265C9.72803 35.0265 9.72803 35.0356 9.71894 35.0356L6.54694 31.8643L7.54671 30.1923C7.89209 29.629 7.89209 28.9202 7.56489 28.3477C6.88322 27.1755 6.35607 25.9125 6.01069 24.6131C5.83801 23.977 5.33812 23.4772 4.69281 23.3227L2.8296 22.8593C2.82051 22.8593 2.81142 22.8593 2.81142 22.8502V18.3614L4.69281 17.8889C5.32903 17.7253 5.83801 17.2346 6.01069 16.5985C6.35607 15.29 6.88322 14.0361 7.56489 12.8639C7.90117 12.2914 7.89209 11.5826 7.54671 11.0192L6.55603 9.37454C6.55603 9.36545 6.54694 9.36545 6.54694 9.35637L9.71894 6.18508L11.4004 7.19371C11.6912 7.36636 12.0093 7.44814 12.3365 7.44814C12.6455 7.44814 12.9637 7.36636 13.2454 7.2028C14.4179 6.52129 15.6721 6.00334 16.9718 5.65805C17.6081 5.4854 18.1079 4.98562 18.2625 4.34046L18.7442 2.45041H23.2341C23.2341 2.4595 23.2341 2.4595 23.2431 2.46859L23.7158 4.34046C23.8794 4.98562 24.3702 5.4854 25.0064 5.65805C26.3061 6.00334 27.5603 6.52129 28.7328 7.2028C29.0146 7.36636 29.3236 7.44814 29.6417 7.44814C29.9689 7.44814 30.287 7.36636 30.5778 7.19371L32.2593 6.18508L35.4313 9.35637C35.4313 9.36545 35.4222 9.36545 35.4222 9.37454L34.4315 11.0192C34.0861 11.5826 34.0861 12.2914 34.4224 12.8639C35.1041 14.0361 35.6222 15.2991 35.9766 16.5985C36.1493 17.2346 36.6492 17.7344 37.2945 17.8889L39.1668 18.3795V22.8684Z" stroke="#073B4C" stroke-linejoin="round" mask="url(#path-1-outside-1_2_1209)"/>
</svg>
